<?xml version="1.0" encoding="UTF-8" standalone="no"?>
<!DOCTYPE svg PUBLIC "-//W3C//DTD SVG 1.1//EN" "http://www.w3.org/Graphics/SVG/1.1/DTD/svg11.dtd">
<svg width="100%" height="100%" viewBox="0 0 191 236" version="1.1" xmlns="http://www.w3.org/2000/svg" xmlns:xlink="http://www.w3.org/1999/xlink" xml:space="preserve" xmlns:serif="http://www.serif.com/" style="fill-rule:evenodd;clip-rule:evenodd;stroke-miterlimit:10;">
    <g transform="matrix(1,0,0,1,-200.735,4.52472)">
        <g>
            <path d="M386.69,207.3L364.15,207.3L364.15,215.83C363.88,219.36 386.69,219.36 386.69,216.72L386.69,207.3Z" style="fill:white;fill-rule:nonzero;stroke:black;stroke-width:1px;"/>
            <path d="M229.95,212.65L205.76,213.08L206.27,219.52C206,223.05 229.95,221.11 229.95,218.47L229.95,212.65Z" style="fill:white;fill-rule:nonzero;stroke:black;stroke-width:1px;"/>
            <path d="M293.19,168.81C290.76,93.16 290.23,37.88 292.14,31.18C293.16,27.6 295,25.1 295,25.1C297.66,21.5 299.76,21.71 304.11,17.95C306.65,15.75 311.45,13.41 312.22,8.34C312.62,5.68 312.5,6.02 312.69,5.99C313.02,5.95 311.53,9.89 316.8,14.9C316.98,15.07 317.37,15.79 318.59,16.33C325.67,19.46 333.92,21.66 345.22,26.7C347.05,27.51 347.29,28.07 349.69,29.38C354.27,31.89 356.37,32.34 358.8,34.74C359.07,35.01 359.41,35.36 359.83,35.88C360.25,36.39 360.74,37.03 361.32,37.66C366.56,42.53 369.81,49.02 371,56.05C371.19,56.97 371.36,57.88 371.56,58.8C371.8,59.72 372,60.66 372.17,61.6C372.51,63.49 372.85,65.22 373.05,67.13C373.05,68.03 373.1,68.91 373.18,69.77C373.26,70.63 373.38,71.46 373.52,72.28C375.25,77.85 377.02,83.82 377.82,89.76C377.96,90.55 378.12,91.28 378.25,92.02C380.78,96.9 380.78,101.77 381.5,107.06C381.75,107.98 382.01,108.92 382.24,109.86C384.34,118.32 384.11,127.04 383.29,135.66C383.44,136.55 383.68,137.59 383.97,138.78C384.26,139.97 384.57,141.31 384.91,142.85C386.39,149.64 388.81,160.74 388.84,172.69C388.88,185.72 386.04,185.18 386.52,198.42C386.87,208.1 386.63,216.1 386.63,216.1C386.63,216.1 384.28,214.06 380.98,213.65C377.76,213.25 373.79,212.83 369.65,213.29C365.91,213.7 364.19,215.22 364.19,215.22L364.19,197.89C364.19,196.1 364.22,194.57 364.27,193.26C364.29,192.02 364.29,191.14 364.18,190.7C362.82,188.99 361.68,187.13 360.79,185.18C360.61,184.79 360.45,184.39 360.29,183.99C357.24,181.31 354,176.03 358.08,172.23C358.53,171.76 358.6,171.66 358.63,171.08C358.86,168.73 358.86,165.89 358.19,163.35C358.1,162.52 358.01,161.75 357.79,160.96C356.42,156.17 355.64,152.76 355.42,151.79C354.55,147.95 354.36,146.47 353.91,144.15C353.87,143.96 353.9,143.83 353.92,143.68C354.4,141.95 353.59,140.33 352.68,138.62C352.59,138.32 352.52,138.03 352.44,137.74C351.13,132.61 350.64,132.15 349.33,126.77C349.09,125.76 348.87,124.87 348.67,124.06C348.47,123.25 348.35,122.6 348.32,122.1C350.33,118.41 352.36,113.94 350.33,109.89C352.36,114.46 350.43,118.23 347.54,121.39C346.96,122.02 346.35,122.63 345.72,123.21C341,126.12 348.3,133.02 346.71,137.76C346.69,139.06 346.54,140.37 346.3,141.66C345.82,144.24 344.95,146.73 344.43,149.08C344.26,150.38 344.27,151.8 344.24,153.22C344.21,154.64 344.11,156.04 343.84,157.41C343.88,158.08 343.93,158.82 343.97,159.6C344.36,167.43 343.71,179.84 341.3,185.39C331.84,207.15 260.04,204.29 252.12,183.25C250.46,178.84 249.18,167.18 249.46,159.15C249.45,158.44 249.37,158.24 249.33,157.94C246.67,155.23 245.14,151.84 244.67,148.25C244.58,147.53 244.53,146.81 244.52,146.07C244.01,141.15 245.23,136.68 246.06,132.41C246.13,131.93 246.07,131.6 245.94,131.11C242.79,127.76 243.61,122.89 241.6,118.66C241.45,118.02 241.33,117.37 241.26,116.72C240.91,113.45 241.57,110.06 242.9,106.93C243.01,106.52 243.31,106.24 243.18,105.53C242.6,102.37 243.02,100.18 242.82,100.17C242.61,100.15 242.33,102.83 241.74,107.06C241.63,107.65 241.46,108.24 241.3,108.88C240.36,111.95 240.36,114.79 239.74,117.92C239.63,118.91 239.59,119.81 239.42,120.65C238.44,125.73 237.67,128.68 236.39,130.55C235.56,131.77 234.12,133.56 233.89,136.27C233.68,138.73 234.62,140.04 235.14,142.17C236.02,145.81 234.79,148.28 233.35,153.25C232.77,155.27 232.31,157.46 231.76,160.53C231.67,161.04 231.67,161.53 231.67,162.06C232.24,165.52 230.61,168.76 229.89,172.24C229.8,172.77 229.74,173.26 229.7,173.71C229.46,175.97 229.48,177.16 229.3,179.16C229.26,179.62 229.21,180.12 229.16,180.68C229.39,182.95 228.17,185.39 228.12,187.65C228.06,188.11 228.01,188.59 227.98,189.09C227.87,190.59 227.88,192.26 228.16,194.16C228.57,196.94 229.95,200.41 229.95,200.41L229.95,218.46C229.72,216.89 225.59,216.42 221.18,216.06C213.55,215.43 206.57,218.31 206.22,219.35C206.22,219.35 205.46,211.4 205.1,197.91C204.84,188.24 204.01,188.86 203.49,175.39C203.28,169.84 203.42,169.84 203.13,160.02C202.77,147.57 202.52,147 202.59,143.76C202.71,138.66 203.45,135.02 204.6,130.9C204.74,130.38 204.88,129.87 205.01,129.37C202.65,125.83 202.78,122.14 204.35,118.96C204.57,118.51 204.65,118.1 204.78,117.67C205.11,116.22 205.68,114.69 206.29,113.16C206.49,112.65 206.7,112.14 206.91,111.64C206.71,110.67 206.66,109.76 206.72,108.92C207.47,105.85 208.28,102.6 208.68,98.95C208.68,96.52 210.71,94.89 210.43,91.95C210.52,91.47 210.63,90.99 210.77,90.52C210.91,90.05 210.88,89.73 210.91,89.35C210.78,86.73 211.69,84.47 212.83,82.28C213.06,81.84 213.3,81.4 213.54,80.97C214.77,75.42 213.96,69.33 216.8,64.15C216.88,63.63 216.96,63.12 217.05,62.6C217.49,60 218.06,57.34 218.87,54.41C221.07,46.45 221.62,48.9 225.84,38.15C226.33,36.9 227.36,34.23 229.95,32.25C231.64,30.96 233.36,30.61 234.06,30.28C241.8,26.73 258.12,21.89 269.09,17.06C271.7,15.91 275.46,12.78 275.52,9.2C275.55,7.58 274.78,5.99 274.81,5.98C274.85,5.97 275.22,10.36 278.03,13.84C280.76,17.23 285.04,18.91 286.97,19.56C288.83,20.19 289.51,20.22 290.79,20.99C293.9,22.87 293.47,23.11 295.01,25.1" style="fill:white;fill-rule:nonzero;"/>
            <path d="M277.87,23.26C279.27,24.29 280.49,25.67 283.48,26.51C287.79,27.73 290.52,27.58 293.53,27.52" style="fill:white;fill-rule:nonzero;stroke:black;stroke-width:1px;"/>
            <path d="M293.88,26.92C296.48,27.01 301.04,27.14 305.18,25.95C308.05,25.13 309.8,23.63 311.14,21.87" style="fill:white;fill-rule:nonzero;stroke:black;stroke-width:1px;"/>
            <path d="M287.28,19.67C283.38,18.58 279.03,21.8 272.48,29.39C269.44,25.75 266.49,21.87 269.67,15.79L274.7,5.27C275.7,9.84 281.06,14.83 287.28,19.67Z" style="fill:white;fill-rule:nonzero;stroke:black;stroke-width:1px;"/>
            <path d="M302.46,19.28C305.91,16.9 316.31,29.79 316.31,29.79C316.31,29.79 321.35,19.21 318.92,15.11L312.12,4.62C311.82,9.62 307.15,14.05 302.46,19.28Z" style="fill:white;fill-rule:nonzero;stroke:black;stroke-width:1px;"/>
            <g>
                <path d="M307.83,29.82C310.47,28.91 313.47,28.71 316,29.9C313.13,26 309.64,22.57 305.69,19.76C305.03,19.29 304.27,18.82 303.47,18.95C303.01,19.03 302.61,19.3 302.22,19.57C301.94,19.76 301.68,19.9 301.45,20C300.41,20.7 299.52,21.21 298.7,21.73C301.79,21.31 303,26.23 302.78,26.74C302.92,26.44 305.32,27.47 305.64,27.56C303.18,30.13 301.49,31.23 299.3,34.14C299.69,34.35 300.15,34.1 300.52,33.86C302.83,32.3 305.19,30.73 307.83,29.82Z" style="fill:rgb(230,230,230);fill-rule:nonzero;"/>
                <path d="M272.68,29.74C273.35,30.46 276.5,30.44 277.45,30.6C277.81,30.66 278.23,30.7 278.5,30.45C279,29.98 278.4,29.16 277.79,28.84C277.18,28.52 276.39,28.11 276.47,27.43C276.52,27.07 276.81,26.8 276.99,26.48C277.23,26.06 277.36,25.46 277.84,25.36C278.04,25.32 278.25,25.39 278.45,25.46C279.51,25.86 280.5,26.43 281.38,27.14C282.39,27.95 283.25,28.93 284.26,29.74C285.27,30.55 286.49,31.2 287.79,31.16C288.43,31.14 289.17,30.83 289.25,30.2C289.29,29.82 289.08,29.47 288.83,29.18C287.49,27.64 285.25,27.34 283.21,27.14C283.32,24.76 284.57,22.46 286.52,21.09C286.94,20.79 287.46,20.34 287.25,19.87C287.08,19.48 286.54,19.44 286.11,19.49C281.53,20.05 277.94,23.54 274.72,26.84C274,27.59 271.86,28.86 272.68,29.74Z" style="fill:rgb(230,230,230);fill-rule:nonzero;"/>
                <path d="M347.82,112.11C346.13,103.84 342.7,95.92 337.84,89.02C335.27,85.38 332.61,82.42 328.27,80.89C327.01,80.45 325.24,80.35 324.7,81.57C324.18,82.74 325.29,83.93 326.22,84.81C331.34,89.69 333.65,96.75 335.46,103.59C335.87,105.13 336.27,106.71 337.16,108.03C338.26,109.67 339.98,110.77 341.69,111.76C343.54,112.84 345.52,113.87 347.66,114C348.05,113.49 347.95,112.75 347.82,112.11Z" style="fill:rgb(230,230,230);fill-rule:nonzero;"/>
                <path d="M245.5,130.6C245.91,129.47 245.97,128.23 246,127.01C246.07,124.2 246.11,121.26 244.87,118.74C244.5,117.98 244.01,117.27 243.8,116.45C243.51,115.27 243.87,113.95 244.73,113.09C245.18,114.1 245.62,115.12 246.07,116.13C246.34,116.74 247.08,117.45 247.52,116.94C246.7,115.13 246.52,113.04 247.02,111.12C248.05,111.72 248.19,113.12 248.22,114.31C248.26,116.14 247.93,118.49 248.47,120.22C249.73,117.54 250.45,114.44 251.39,111.62C251.88,110.14 252.37,108.67 252.87,107.19C253.26,106.04 254.24,104.29 254.24,103.08C255.3,99.9 256.37,96.7 257.91,93.72C259.2,91.22 260.82,88.89 261.96,86.32C262.58,84.92 262.94,82.99 261.7,82.09C260.99,81.57 259.97,81.63 259.18,82.02C258.39,82.41 257.77,83.07 257.17,83.72C252.73,88.58 248.55,93.68 244.67,99C244.01,99.9 243.36,100.82 242.86,101.8C242.86,102.73 242.91,104.01 243.18,105.51C243.31,106.22 243.01,106.5 242.9,106.91C242.32,108.27 241.88,109.68 241.58,111.11C241.61,114.03 241.8,116.95 242.08,119.86C243.4,123.58 243.12,127.61 245.5,130.6Z" style="fill:rgb(230,230,230);fill-rule:nonzero;"/>
                <path d="M242.24,103.35C241.81,104.72 241.67,106.16 241.61,107.61C241.65,107.42 241.7,107.24 241.74,107.05C241.94,105.62 242.1,104.38 242.24,103.35Z" style="fill:rgb(230,230,230);fill-rule:nonzero;"/>
                <path d="M249.23,151.25C251.32,152.54 253.58,153.84 256.03,153.8C256.38,153.79 256.76,153.74 256.99,153.48C257.49,152.89 256.75,152.06 256.1,151.63C253.53,149.93 251.22,147.83 249.28,145.43C247.52,143.26 246.06,140.1 247.67,137.81C248,137.34 248.57,136.92 249.12,137.08C249.49,137.19 249.74,137.53 249.98,137.84C251.48,139.74 253.83,140.93 256.25,141.02C257.58,141.07 258.92,140.8 260.25,140.86C261.49,140.92 262.7,141.26 263.94,141.42C268.79,142.03 273.47,139.7 277.8,137.45C278.15,137.27 278.52,137.06 278.66,136.69C278.95,135.92 277.95,135.23 277.13,135.27C276.3,135.31 275.5,135.72 274.68,135.61C273.61,135.46 272.84,134.4 272.74,133.32C272.64,132.25 273.08,131.19 273.67,130.28C275.43,127.56 278.62,125.84 281.85,125.84C282.31,125.29 282.02,124.38 281.43,123.98C280.84,123.58 280.06,123.57 279.35,123.66C273.09,124.44 269.26,131.28 263.26,133.22C261.17,133.89 258.93,133.93 256.74,133.84C255.73,133.8 254.7,133.73 253.8,133.28C252.9,132.83 252.16,131.91 252.22,130.91C252.29,129.79 253.27,128.97 254.21,128.37C256.92,126.64 260.02,125.53 263.21,125.16C266.74,124.75 270.84,125.02 273.25,122.4C273.86,121.74 274.31,120.87 274.19,119.98C274.09,119.28 273.65,118.67 273.14,118.17C271.37,116.45 268.74,115.83 266.28,116.02C263.82,116.22 261.48,117.14 259.23,118.16C258.54,118.47 257.75,118.8 257.07,118.49C255.91,117.97 256.11,116.27 256.57,115.08C257.21,113.43 257.98,111.84 258.87,110.31C260.79,107.01 263.26,104.06 265.72,101.12C268.03,98.36 270.35,95.6 272.66,92.83C274.78,90.29 277.33,87.54 280.64,87.48C280.98,87.47 281.33,87.5 281.6,87.71C282.07,88.08 282.03,88.8 281.86,89.38C281.21,91.6 279.47,93.29 278.06,95.13C276.07,97.73 274.68,100.78 274.02,103.98C275.44,104.23 276.81,103.4 277.98,102.56C281.19,100.26 284.15,97.62 286.79,94.69C288.52,92.77 290.19,90.1 289.07,87.78C288.77,87.15 288.27,86.61 288.09,85.93C287.62,84.11 289.57,82.66 290.41,80.97C291.21,79.37 290.98,77.46 290.67,75.7C288.88,74.97 286.69,75.35 285.26,76.64C283.83,77.93 283.2,80.06 283.73,81.92C284.03,82.96 284.65,83.91 284.82,84.98C284.99,86.05 284.46,87.38 283.38,87.51C283.65,86.91 283.27,86.1 282.64,85.92C282.58,85.9 282.52,85.9 282.45,85.89L282.84,85.58C280.85,84.82 278.82,84.16 276.77,83.59C275.18,83.15 273.52,82.77 271.9,83.05C270.57,83.28 269.34,83.94 268.24,84.73C266.31,86.12 264.7,87.95 263.56,90.04C262.66,91.7 262.05,93.5 261.2,95.18C260.26,97.04 259.03,98.73 258,100.54C256.46,103.26 255.41,106.22 254.36,109.16C253.22,112.36 252.07,115.57 251.21,118.86C250.03,123.36 249.25,128.24 246.15,131.71C246.12,131.74 246.1,131.77 246.07,131.79C246.08,131.97 246.08,132.14 246.05,132.35C245.22,136.63 244,141.09 244.51,146.01C244.51,146.32 244.53,146.64 244.55,146.95C245.52,148.89 247.41,150.14 249.23,151.25Z" style="fill:rgb(230,230,230);fill-rule:nonzero;"/>
                <path d="M339.72,117.82C338.5,115.81 337,113.99 335.67,112.05C334.28,110.01 333.09,107.85 331.9,105.69C329.79,101.86 327.68,98.02 326,93.98C325.25,92.18 324.58,90.33 323.58,88.65C321.13,84.51 316.94,81.74 312.76,79.38C312.26,79.1 311.72,78.81 311.15,78.86C310.75,78.9 310.39,79.09 309.99,79.14C308.74,79.3 307.83,78.04 307.09,77.02C305.59,74.95 303.57,73.27 301.28,72.15C301.27,74.1 301.25,76.05 301.24,78C301.24,78.51 301.24,79.05 301.46,79.51C301.76,80.13 302.4,80.49 302.88,80.98C303.81,81.94 304.11,83.36 304.94,84.4C305.75,85.41 306.98,85.96 308.02,86.72C309.06,87.48 309.99,88.7 309.72,89.96C307.91,90.36 305.91,89.68 304.72,88.26C304.21,87.65 303.84,86.92 303.3,86.34C301.43,84.33 301.27,86.28 301.38,87.91C301.5,89.75 301.62,91.6 301.75,93.44C301.82,94.51 301.92,95.65 302.57,96.5C303.42,97.62 305.02,97.92 306.41,97.68C307.8,97.44 309.07,96.76 310.38,96.26C311.89,95.68 313.49,95.31 315.11,95.19C315.85,95.13 316.62,95.13 317.31,95.42C318.14,95.77 318.73,96.51 319.29,97.22C322.58,101.42 325.93,105.71 327.68,110.75C328.42,112.89 328.94,115.27 330.64,116.77C331.75,117.75 333.29,118.26 334.14,119.48C333.85,120.37 332.59,120.32 331.68,120.1C329.01,119.45 326.33,118.8 323.66,118.15C322.57,117.89 321.45,117.62 320.35,117.81C319.25,118 318.16,118.76 317.96,119.87C317.77,120.9 318.38,121.9 319.07,122.69C324.33,128.71 334.21,127.93 340.48,132.89C341.38,133.6 342.23,134.44 343.33,134.76C344.43,135.08 345.87,134.6 346.1,133.48C346.23,132.82 345.92,132.16 345.63,131.55C343.48,127.05 342.31,122.09 339.72,117.82Z" style="fill:rgb(230,230,230);fill-rule:nonzero;"/>
                <path d="M309.21,153.39C307.03,153.24 304.86,153.08 302.68,152.93C302.4,152.91 302.08,152.9 301.87,153.1C301.67,153.29 301.65,153.59 301.65,153.86C301.63,155.08 301.71,156.3 301.88,157.51C301.93,157.89 302,158.28 302.23,158.59C302.84,159.42 304.11,159.18 305.11,158.94C308.76,158.09 312.57,158.58 316.29,159.07C317.45,159.22 318.64,159.39 319.68,159.93C321.12,160.68 322.11,162.06 323.42,163.01C325.38,164.43 327.88,164.79 330.29,165.06C331.63,165.21 333.95,164.95 333.72,163C333.53,161.46 331.27,160.92 330.07,160.6C323.68,158.86 317.66,155.77 312.53,151.57C309.43,149.04 306.47,146.01 302.59,145.07C301.73,145.86 301.68,147.36 302.47,148.21C302.82,148.58 303.28,148.82 303.73,149.06C305.97,150.22 308.21,151.37 310.46,152.53C310.75,153.06 309.83,153.43 309.21,153.39Z" style="fill:rgb(230,230,230);fill-rule:nonzero;"/>
                <path d="M348.54,88.4C345.08,85.09 344.59,79.14 340.44,76.75C339.24,76.06 337.34,75.98 336.81,77.26C336.59,77.79 336.69,78.38 336.82,78.93C337.89,83.74 340.5,88.05 343.07,92.26C344.22,94.14 345.36,96.02 346.51,97.9C347.16,98.97 347.82,100.05 348.67,100.96C349.06,101.38 349.5,101.77 349.82,102.24C349.87,102.31 349.91,102.39 349.96,102.47L349.95,102.28C350.08,98.89 350.21,95.5 350.34,92.12C350.37,91.46 350.39,90.78 350.13,90.18C350.12,90.15 350.1,90.13 350.09,90.1C350.41,90.23 350.72,89.79 350.83,89.42C352.41,84.09 353.47,78.61 353.99,73.07C354.05,72.46 353.87,71.61 353.26,71.66C352.49,73.87 351.72,76.08 350.95,78.3C350.72,78.96 350.1,79.79 349.5,79.41C349.32,79.3 349.22,79.11 349.13,78.92C348.14,76.86 348.08,74.59 348.66,72.41C348.91,71.49 349.23,70.91 348.98,69.97C348.7,68.9 347.91,68.04 346.93,68.99C346.73,68.46 346.39,67.95 345.91,67.63C345.79,69.41 345.66,71.19 345.54,72.96C345.45,74.19 345.37,75.44 345.5,76.67C345.99,81.33 349.45,85.28 350,89.93C349.65,89.34 349.05,88.89 348.54,88.4Z" style="fill:rgb(230,230,230);fill-rule:nonzero;"/>
                <path d="M349.96,102.49L350.19,105.48C350.56,104.51 350.47,103.39 349.96,102.49Z" style="fill:rgb(230,230,230);fill-rule:nonzero;"/>
                <path d="M357.8,57.64C355.84,64.24 356.85,71.38 355.5,78.13C355.04,80.41 354.32,82.63 353.75,84.89C352.82,88.57 352.29,92.33 351.76,96.09C351.35,99.01 350.94,101.93 350.53,104.85C351.56,103.81 351.97,102.32 352.34,100.91C354.2,93.86 356.07,86.81 357.93,79.76C359.44,74.07 362,68.61 362.83,62.77C363.36,59.04 363.33,55.23 362.72,51.51C362.59,50.69 362.11,49.64 361.29,49.8C360.37,53.57 359.99,57.46 360.16,61.33C360.2,62.21 359.9,63.45 359.03,63.32C359.02,61.45 359.02,59.59 359.01,57.72C359.01,57.38 358.95,56.95 358.62,56.85C358.22,56.74 357.92,57.24 357.8,57.64Z" style="fill:rgb(230,230,230);fill-rule:nonzero;"/>
                <path d="M354.75,128.59C358.03,124.14 362.23,120.37 367,117.58C367.79,117.12 368.65,116.55 369.25,115.87L368.87,117C370.45,114.85 371.55,112.35 372.07,109.74C370.54,110.07 369.3,111.13 368.1,112.14C365.15,114.62 362.09,116.98 358.94,119.2C358.34,119.62 357.45,120.02 356.95,119.48C356.71,119.22 356.68,118.83 356.66,118.48C356.35,111.65 357.53,104.75 360.1,98.42C361.36,95.31 362.95,92.33 363.95,89.12C364.95,85.91 365.31,82.37 364.09,79.24C363.24,79.64 362.68,80.47 362.24,81.3C360.18,85.14 359.8,89.64 358.53,93.81C357.79,96.24 356.74,98.57 356.13,101.03C355.51,103.52 355.34,106.11 354.73,108.6C354.26,110.5 353.54,112.34 353.11,114.25C352.66,116.27 352.55,118.36 352.27,120.41C351.96,122.6 351.45,124.76 350.74,126.85C350.33,128.06 349.96,129.65 350.99,130.4C351.62,130.86 352.53,130.72 353.19,130.3C353.82,129.87 354.29,129.22 354.75,128.59Z" style="fill:rgb(230,230,230);fill-rule:nonzero;"/>
                <path d="M370.3,118.47C368.45,120.21 366.16,121.46 364.47,123.35C364.21,123.64 363.96,123.97 363.91,124.35C363.81,125.29 364.94,125.87 365.88,125.92C367.78,126.02 369.58,125.16 371.27,124.29C372.96,123.42 374.73,122.51 376.63,122.5C378.53,122.49 380.59,123.72 380.8,125.61C380.86,126.16 381.39,126.56 381.85,126.25C382.31,125.93 382.41,125.31 382.45,124.75C382.75,120.66 381.78,116.6 380.68,112.65C380.38,111.57 379.84,110.28 378.72,110.17C378.29,110.13 378.3,110.47 378,110.16C374.82,112.22 373.06,115.87 370.3,118.47Z" style="fill:rgb(230,230,230);fill-rule:nonzero;"/>
                <path d="M357.13,147.58C360.41,146.54 363.66,145.45 366.9,144.3C366.76,143.56 365.87,143.28 365.13,143.17C363.95,143.01 362.75,142.95 361.55,143C360.65,143.04 359.73,143.14 358.84,143C357.95,142.86 357.05,142.42 356.59,141.64C355.94,140.51 356.38,139.09 356.83,137.87C357.67,135.63 358.65,133.2 360.74,132.03C361.98,131.34 363.65,131 364.14,129.67C360.84,129.71 357.58,131.03 355.18,133.29C353.34,135.02 352.73,136.75 352.75,138.79C353.62,140.44 354.37,142.02 353.91,143.69C353.89,143.85 353.86,143.97 353.9,144.16C354.06,144.98 354.18,145.69 354.32,146.44C354.88,147.43 355.74,148.02 357.13,147.58Z" style="fill:rgb(230,230,230);fill-rule:nonzero;"/>
                <path d="M360.53,136.39C359.62,136.76 358.95,137.67 358.86,138.65C358.83,139.04 358.89,139.46 359.14,139.77C359.42,140.11 359.88,140.24 360.31,140.33C363.19,140.88 366.16,140.03 369.08,140.34C370.24,140.46 371.37,140.77 372.53,140.84C375.18,140.99 377.71,139.9 380.04,138.75C382.73,137.42 382.18,135.83 379.25,135.64C373.72,135.3 367.95,135.96 362.41,136.12C361.78,136.13 361.12,136.15 360.53,136.39Z" style="fill:rgb(230,230,230);fill-rule:nonzero;"/>
                <path d="M377.86,133.45C378.98,133.52 381.42,133.92 380.41,132.45C379.61,131.29 377.29,131.12 376.09,130.73C375.12,130.42 371.28,128.54 370.65,130.19C370.41,130.82 371.07,131.41 371.67,131.73C373.58,132.74 375.71,133.32 377.86,133.45Z" style="fill:rgb(230,230,230);fill-rule:nonzero;"/>
                <path d="M358.36,171.92C359.08,171.43 359.73,170.84 360.27,170.15C360.74,169.54 361.13,168.87 361.65,168.3C362.47,167.4 363.57,166.82 364.51,166.06C365.46,165.3 366.31,164.25 366.32,163.04C366.32,161.7 365.28,160.56 364.11,159.9C362.32,158.88 360.21,158.64 358.28,157.92C357.74,157.72 357.2,157.44 356.7,157.12C357,158.27 357.35,159.56 357.76,160.98C357.99,161.78 358.07,162.54 358.16,163.37C358.83,165.91 358.83,168.75 358.6,171.1C358.59,171.51 358.54,171.68 358.36,171.92Z" style="fill:rgb(230,230,230);fill-rule:nonzero;"/>
                <path d="M381.01,160.24C381,160.39 380.95,160.55 380.87,160.68C381.13,160.93 381.38,161.19 381.62,161.44L381.01,160.24Z" style="fill:rgb(230,230,230);fill-rule:nonzero;"/>
                <path d="M374.4,164.58C375.86,163.3 377.39,161.99 379.26,161.48C379.78,161.34 380.34,161.25 380.72,160.88C380.78,160.83 380.82,160.76 380.86,160.69C380.13,159.99 379.31,159.39 378.33,159.24C377.03,159.05 375.76,159.71 374.7,160.47C371.61,162.69 369.36,165.92 366.25,168.11C365.49,168.65 364.67,169.13 364.03,169.8C363.38,170.47 362.91,171.39 363.04,172.31C365.48,172.26 367.53,170.57 369.37,168.97C371.05,167.5 372.73,166.04 374.4,164.58Z" style="fill:rgb(230,230,230);fill-rule:nonzero;"/>
                <path d="M380.64,159.53L381,160.24C381.03,159.94 380.92,159.64 380.64,159.53Z" style="fill:rgb(230,230,230);fill-rule:nonzero;"/>
                <path d="M381.8,152.01C381.39,152.7 380.96,153.39 380.34,153.9C380.02,154.17 379.65,154.38 379.36,154.68C379.07,154.98 378.87,155.41 378.98,155.81C379.14,156.39 379.85,156.63 380.45,156.63C382.18,156.63 383.69,155.5 384.95,154.32C385.51,153.8 386.32,152.96 386.76,152.07C386.6,151.2 386.44,150.36 386.28,149.54C385.36,148.95 383.94,149.34 383.18,150.07C382.61,150.62 382.2,151.33 381.8,152.01Z" style="fill:rgb(230,230,230);fill-rule:nonzero;"/>
                <path d="M388.82,172.7C388.82,172.04 388.81,171.39 388.79,170.74C386.93,168.64 385.96,165.77 384.3,163.45C384.11,163.19 383.9,162.93 383.61,162.81C383.18,162.64 382.7,162.84 382.29,163.06C377.7,165.48 374.78,170.26 370.35,172.96C369.97,173.19 369.55,173.44 369.4,173.86C369.19,174.43 369.56,175.03 369.92,175.51C373.52,180.27 378.5,183.98 384.09,186.06C384.94,186.37 385.88,186.65 386.72,186.32C387.69,185.93 377.16,177.19 377.52,176.21C380.13,168.98 386.17,172.4 388.82,172.7Z" style="fill:rgb(230,230,230);fill-rule:nonzero;"/>
                <path d="M361.18,180C362.72,180.65 364.15,181.49 365.51,182.45C368.42,184.53 372.27,187.61 376,185.53C374.97,183.96 373.83,182.45 372.61,181.02C371.9,180.19 371.16,179.39 370.28,178.75C369.02,177.85 367.52,177.34 366.04,176.85C363.56,176.02 360.97,175.18 358.39,175.56C357.89,175.63 357.33,175.8 357.1,176.25C356.94,176.58 356.99,176.98 357.13,177.32C357.8,178.97 359.72,179.39 361.18,180Z" style="fill:rgb(230,230,230);fill-rule:nonzero;"/>
                <path d="M368.35,189.99C368.66,189.9 368.76,189.48 368.62,189.19C368.48,188.9 368.19,188.72 367.92,188.55C366.46,187.66 365,186.78 363.54,185.89C362.84,185.47 361.11,184.1 359.52,183.3C359.77,183.56 360.03,183.8 360.28,184.03C360.44,184.43 360.6,184.82 360.78,185.22C361.41,186.61 362.17,187.94 363.04,189.21C363.12,189.03 363.14,188.83 363.04,188.64C364.66,188.58 366.29,188.99 367.69,189.81C367.89,189.92 368.12,190.05 368.35,189.99Z" style="fill:rgb(230,230,230);fill-rule:nonzero;"/>
                <path d="M383.77,196.75C384.69,196.67 385.62,196.19 386.01,195.36C387.09,193.07 384.03,189.83 382.05,188.99C379.26,187.81 376.24,189.68 373.47,189.79C372.56,189.83 371.57,189.53 371.04,188.79C371.21,189.13 371.44,189.43 371.72,189.68C372,189.93 372.33,190.13 372.65,190.32C374.17,191.2 375.83,191.9 377.11,193.1C377.89,193.83 378.51,194.74 379.38,195.36C379.89,195.73 380.47,195.99 381.06,196.21C381.94,196.56 382.85,196.83 383.77,196.75Z" style="fill:rgb(230,230,230);fill-rule:nonzero;"/>
                <path d="M375.09,197.55C375.94,197.58 375.69,197.56 375.46,196.67C374.82,194.17 371.93,192.66 369.63,192.48C368.36,192.38 367.02,192.3 365.85,192.8C365.51,192.95 365.15,193.2 365.15,193.57C365.15,194.04 365.7,194.29 366.16,194.35C367.3,194.49 368.49,194.17 369.6,194.47C370.14,194.62 370.62,194.9 371.1,195.19C372.04,195.75 374.05,197.52 375.09,197.55Z" style="fill:rgb(230,230,230);fill-rule:nonzero;"/>
                <path d="M268.82,168.16C269.45,169.91 271.97,168.6 272.48,167.43C272.78,166.75 272.77,165.97 273.05,165.29C273.33,164.6 274.11,164 274.77,164.33C274.96,164.43 275.12,164.59 275.25,164.76C275.97,165.73 276.05,167 276.4,168.16C276.75,169.31 277.63,170.52 278.83,170.46C279.61,170.42 280.29,169.83 280.59,169.11C280.89,168.39 280.88,167.58 280.74,166.81C280.39,164.87 279.31,163.16 278.22,161.52C277.59,160.58 276.91,159.61 275.91,159.08C274.57,158.37 272.84,158.62 271.61,159.51C270.38,160.4 269.62,161.83 269.32,163.32C269.24,163.72 269.22,164.11 269.22,164.5C268.92,165.45 268.79,166.38 268.96,167.12C268.83,167.5 268.72,167.88 268.82,168.16Z" style="fill:rgb(230,230,230);fill-rule:nonzero;"/>
                <path d="M259.09,164.21C259.22,163.69 258.57,163.37 258.22,162.96C257.75,162.42 257.81,161.6 257.52,160.95C257.35,160.56 257.06,160.24 256.77,159.93C255.11,158.16 253.14,156.39 250.95,155.14C250.65,154.87 250.34,154.63 250,154.41C248.95,153.73 247.64,153.36 246.43,153.7C246.39,153.71 246.36,153.73 246.32,153.74C246.93,154.97 247.71,156.13 248.64,157.21C248.73,157.24 248.81,157.27 248.88,157.31C250.22,157.95 251.17,159.17 252.03,160.39C252.88,161.6 253.71,162.88 254.91,163.75C256.13,164.62 257.83,164.99 259.09,164.21Z" style="fill:rgb(230,230,230);fill-rule:nonzero;"/>
                <path d="M285.53,163.68C284.91,163.67 284.27,163.55 283.7,163.8C283.02,164.11 282.69,164.86 282.49,165.58C282.25,166.42 282.12,167.28 282.1,168.15C282.09,168.44 282.1,168.74 282.22,169C282.55,169.71 283.52,169.8 284.31,169.75C285.56,169.67 286.8,169.49 288.02,169.23C288.23,169.18 288.45,169.13 288.64,169.01C289.24,168.6 289.11,167.7 289.24,166.99C289.48,165.68 290.74,164.81 291.27,163.59C291.42,163.24 291.53,162.64 291.59,162C291.76,161.55 291.83,161.05 291.87,160.56C292.4,155 292.34,149.42 292.15,143.84C292.11,142.72 291.94,138.84 289.72,140.6C288.21,141.8 291.39,142.65 290.98,144.55C290.79,145.44 290.21,146.18 289.65,146.9C288.34,148.56 287.03,150.23 285.71,151.89C285.51,152.15 285.29,152.48 285.44,152.78C285.52,152.95 285.7,153.04 285.87,153.13C287.52,153.94 289.61,154.63 290.06,156.42C290.51,158.19 289.02,160.08 289.09,161.8C288.25,162.91 287.26,163.71 285.53,163.68Z" style="fill:rgb(230,230,230);fill-rule:nonzero;"/>
                <path d="M289.91,44.69C289.11,45.29 288.51,47.03 288.09,47.88C287.45,49.16 286.81,50.44 286.16,51.71C284.88,54.27 283.59,56.82 282.31,59.38C281.36,61.27 280.41,63.16 279.67,65.14C280.38,65.4 281.19,65.08 281.74,64.56C282.29,64.04 282.64,63.36 283.02,62.7C284.77,59.68 287.03,56.98 289.34,54.36C291.45,51.96 290.57,50.61 290.78,47.27C290.87,45.97 291.19,43.74 289.91,44.69Z" style="fill:rgb(230,230,230);fill-rule:nonzero;"/>
                <path d="M234.11,122.27C233.81,121.85 233.66,121.31 233.34,120.92L233.46,120.9C232.83,119.54 230.98,119.28 229.53,119.65C228.08,120.02 226.73,120.81 225.24,120.88C223.93,120.94 222.67,120.44 221.46,119.95C219.85,119.29 218.23,118.64 216.62,117.98C214.58,117.15 212.17,116.34 210.28,117.47C208.92,118.29 208.25,119.94 208.19,121.53C208.16,122.3 208.27,123.12 208.73,123.74C209.48,124.77 210.91,124.97 212.18,125.09C217.85,125.62 223.53,126.15 229.2,126.68C230.33,126.79 231.7,127.09 232.01,128.18C232.27,129.1 231.57,129.99 230.9,130.66C230.41,131.15 229.89,131.67 229.61,132.29C228.7,131.78 227.74,131.37 226.74,131.07C226.52,131 226.28,130.95 226.05,130.92C223.38,129.96 220,131.13 217.43,129.76C220.33,133.23 225.29,134.43 228.19,137.89C228.94,138.79 229.69,139.91 230.86,140.02C231.38,139.2 231.3,138.15 231.2,137.19C231.11,136.29 231.01,135.4 230.92,134.5C231.21,134.41 231.46,134.2 231.69,134C233.37,132.5 235.05,131.01 236.73,129.51C236.87,129.38 237.02,129.25 237.16,129.12C237.67,128 238.11,126.58 238.53,124.78C237.55,123.39 235.12,123.67 234.11,122.27Z" style="fill:rgb(230,230,230);fill-rule:nonzero;"/>
                <path d="M237.53,71.2C237.87,67.57 237.96,63.57 237.15,59.99C236.48,57.02 234.82,53.8 234.72,50.75C234.81,53.57 234.9,56.39 235,59.22C233.63,58.06 232.64,56.45 232.26,54.69C231.01,55.48 231.18,57.32 231.45,58.78C233.37,69.12 232.54,79.74 232.38,90.26C232.22,100.78 232.82,111.63 237.32,121.14C237.67,121.87 238.28,122.7 239.01,122.71C239.1,122.26 239.2,121.79 239.29,121.3C238.74,107.41 234.89,93.59 236.41,79.77C236.72,76.91 237.26,74.07 237.53,71.2Z" style="fill:rgb(230,230,230);fill-rule:nonzero;"/>
                <path d="M215.19,108.31C221.05,108.23 226.17,111.94 231.23,114.89C231.37,114.97 231.51,115.05 231.67,115.04C232.03,115 232.13,114.53 232.13,114.16C232.1,112.45 231.84,110.71 231.08,109.18C230.31,107.65 228.99,106.34 227.35,105.87C224.94,105.17 222.12,106.26 219.96,104.99C218.93,104.38 218.31,103.36 217.87,102.27C217.62,101.65 217.47,99.58 216.76,99.46C215.29,99.21 213.72,104.96 213.29,105.84C213.02,106.38 212.74,107.01 212.99,107.56C213.33,108.3 214.36,108.32 215.19,108.31Z" style="fill:rgb(230,230,230);fill-rule:nonzero;"/>
                <path d="M205.02,129.37C204.89,129.88 204.75,130.39 204.61,130.9C204.57,131.06 204.53,131.21 204.48,131.37C205.02,131.48 205.57,131.56 206.1,131.65C208.31,132.01 210.47,132.64 212.53,133.52C213.63,133.99 214.72,134.53 215.89,134.77C217.06,135.01 218.38,134.9 219.32,134.16C217.44,132.76 215.38,131.61 213.21,130.76C212.27,130.39 211.28,130.06 210.47,129.45C207.82,127.47 207.84,123.29 205.41,121.04C205.26,120.9 205.09,120.76 204.89,120.7C204.62,120.62 204.33,120.68 204.07,120.77C203.91,120.82 203.75,120.89 203.6,120.95C202.84,123.63 203.14,126.54 205.02,129.37Z" style="fill:rgb(230,230,230);fill-rule:nonzero;"/>
                <path d="M235.13,142.16C234.61,140.03 233.67,138.72 233.88,136.26C233.94,135.56 234.08,134.92 234.27,134.33C233.81,134.48 233.38,134.72 233.07,135.08C232.66,135.58 232.49,136.23 232.37,136.87C232.03,138.57 231.85,140.3 231.82,142.03C231.42,141.91 230.99,141.85 230.58,141.76C229.41,141.48 228.32,140.82 227.55,139.9C226.98,139.23 226.35,138.21 225.34,138.53C226.88,141.04 229.05,147.62 232.78,145.06C233.23,145.58 233.67,146.1 234.12,146.63C234.38,146.94 234.72,147.25 235.1,147.26C235.48,145.54 235.58,144 235.13,142.16Z" style="fill:rgb(230,230,230);fill-rule:nonzero;"/>
                <path d="M226.11,145.78C227.92,145.39 226.81,144.01 226.15,142.92C225.01,141.03 223.7,140.94 221.61,141.43C219.84,141.84 218,142.13 216.2,141.82C215.54,141.71 214.89,141.51 214.22,141.55C213.55,141.59 212.84,141.92 212.61,142.55C213.11,142.96 213.74,143.16 214.35,143.35C216.23,143.92 218.13,144.41 220.06,144.81C221.71,145.14 224.45,146.13 226.11,145.78Z" style="fill:rgb(230,230,230);fill-rule:nonzero;"/>
                <path d="M233.87,151.48C233.6,146.77 228.12,149.46 225.1,148.64C224.35,148.44 223.38,148.15 222.95,148.8C222.65,149.25 222.89,149.86 223.16,150.33C223.65,151.17 224.24,151.94 224.93,152.63C226.32,154.02 228.08,155.06 229.16,156.7C229.53,157.27 229.82,157.9 230.3,158.38C231.09,159.16 231.66,159.14 232.07,158.77C232.48,156.59 232.87,154.87 233.33,153.27C233.53,152.61 233.7,152.03 233.87,151.48Z" style="fill:rgb(230,230,230);fill-rule:nonzero;"/>
                <path d="M208.93,140.83C208.62,140.53 208.22,140.34 207.83,140.16C206.08,139.37 204.31,137.74 203,139.54C202.95,139.6 202.91,139.67 202.86,139.74C202.73,140.96 202.65,142.25 202.61,143.66C204.94,144.27 210.74,142.63 208.93,140.83Z" style="fill:rgb(230,230,230);fill-rule:nonzero;"/>
                <path d="M203.66,178.91C204.77,178.96 205.86,179.15 206.91,179.52C207.73,179.81 208.55,180.19 209.42,180.18C210.33,180.17 211.17,179.73 211.97,179.28C213.47,178.43 214.93,177.53 216.36,176.57C217.06,176.1 217.83,175.5 217.89,174.65C217.91,174.36 217.83,174.04 217.61,173.86C217.31,173.61 216.87,173.68 216.48,173.73C215.22,173.88 213.91,173.64 212.79,173.05C211.89,172.58 211.11,171.91 210.22,171.4C208.54,170.45 205.66,169.83 203.37,170.1C203.39,171.65 203.42,173.01 203.51,175.39C203.55,176.69 203.6,177.86 203.66,178.91Z" style="fill:rgb(230,230,230);fill-rule:nonzero;"/>
                <path d="M231.51,165.98C228.97,168.7 227.46,172.17 223.32,172.74C222.63,172.84 221.81,172.9 221.46,173.5C221.18,173.98 221.36,174.61 221.71,175.03C222.06,175.45 222.56,175.73 223.02,176.03C225.11,177.39 226.71,179.49 227.46,181.87C227.62,182.38 227.75,182.92 228.11,183.31C228.3,183.52 228.58,183.66 228.86,183.7C229.09,182.68 229.27,181.67 229.17,180.68C229.22,180.12 229.27,179.62 229.31,179.16C229.49,177.15 229.47,175.97 229.71,173.71C229.76,173.26 229.81,172.76 229.9,172.24C230.33,170.09 231.11,168.04 231.51,165.98C231.52,165.97 231.52,165.97 231.51,165.98Z" style="fill:rgb(230,230,230);fill-rule:nonzero;"/>
                <path d="M219.92,176.89C219.09,177.1 218.49,177.78 217.81,178.29C217.11,178.82 216.28,179.19 215.42,179.37C215.24,179.41 215.05,179.44 214.93,179.58C214.75,179.8 214.87,180.15 215.11,180.31C215.34,180.47 215.64,180.48 215.92,180.49C216.54,180.51 217.16,180.52 217.78,180.54C218.32,180.56 218.88,180.58 219.35,180.83C219.79,181.07 220.11,181.48 220.37,181.91C220.92,182.78 221.3,183.75 221.51,184.76C221.8,186.19 222.92,186.5 223.42,184.99C223.71,184.12 223.57,182.45 223.61,181.48C223.7,179.51 222.48,176.23 219.92,176.89Z" style="fill:rgb(230,230,230);fill-rule:nonzero;"/>
                <path d="M228.16,194.16C227.91,192.42 227.88,190.88 227.96,189.48C226.2,189.03 223.49,190.13 223.18,191.85C219.91,190.78 216.09,191.6 214.18,194.69C218.07,195.87 221.96,197.05 225.86,198.23C225.9,197.22 225.95,196.2 225.99,195.19C226.77,196.43 227.88,197.44 229.15,198.16C228.77,196.97 228.36,195.49 228.16,194.16Z" style="fill:rgb(230,230,230);fill-rule:nonzero;"/>
                <path d="M211.32,189.6C210.61,189.24 210.22,188.48 209.88,187.76C207.98,189.75 207.24,192.87 204.97,194.32C205.03,195.36 205.08,196.53 205.11,197.92C205.13,198.51 205.14,199.07 205.16,199.63C208.71,196.47 212.26,193.3 215.81,190.14C214.59,189.19 212.69,190.3 211.32,189.6Z" style="fill:rgb(230,230,230);fill-rule:nonzero;"/>
                <path d="M212.56,195.48C212.11,195.53 211.72,195.8 211.35,196.07C210.07,197.04 208.93,198.21 207.63,199.16C206.89,199.71 206,200.1 205.18,200.55C205.19,200.94 205.21,201.32 205.22,201.7C206.71,201.45 208.72,200.09 209.55,199.63C210.8,198.93 214.62,196.05 216.13,196.64C215.37,196.35 214.61,196.05 213.85,195.76C213.44,195.6 213,195.43 212.56,195.48Z" style="fill:rgb(230,230,230);fill-rule:nonzero;"/>
                <path d="M223.28,166.55C224.78,164.39 226.28,162.23 227.79,160.07C227.04,159.12 225.58,158.99 224.46,159.45C223.34,159.91 222.48,160.82 221.65,161.71C220.57,162.87 219.49,164.03 218.41,165.19C217.91,165.73 217.32,166.31 216.58,166.32C215.38,166.33 214.77,164.95 214,164.03C212.81,162.6 210.62,162.12 208.94,162.93C208.68,163.06 208.41,163.21 208.12,163.19C207.85,163.17 207.62,162.99 207.38,162.85C206.12,162.1 204.61,162.39 203.22,163.01C203.25,164.28 203.28,165.33 203.29,166.24C204.05,166.39 204.82,166.45 205.59,166.38C206.95,166.25 208.29,165.76 209.64,165.9C212.29,166.18 211.77,168.97 213.7,169.97C215.9,171.11 219.33,170.57 221.18,169.04C222.03,168.33 222.66,167.43 223.28,166.55Z" style="fill:rgb(230,230,230);fill-rule:nonzero;"/>
                <path d="M211.63,158.7C212.44,160.27 217.22,156.89 218.28,156.39C218.37,156.35 218.46,156.3 218.51,156.22C218.66,155.95 218.23,155.73 217.93,155.71C216.81,155.63 210.45,156.4 211.63,158.7Z" style="fill:rgb(230,230,230);fill-rule:nonzero;"/>
                <path d="M215.72,151.6C215.13,151.58 214.49,151.6 214.04,151.98C213.96,152.05 213.89,152.13 213.88,152.23C213.85,152.47 214.15,152.61 214.39,152.66C215.73,152.92 217.1,152.89 218.45,153.04C220.33,153.25 221.35,154.2 222.88,154.95C222.39,151.85 218.07,151.68 215.72,151.6Z" style="fill:rgb(230,230,230);fill-rule:nonzero;"/>
                <path d="M211.77,145.22C210.32,144.15 208.63,146.45 207.63,147.2C206.16,148.3 204.4,148.46 202.74,149.06C202.76,149.59 202.79,150.17 202.82,150.85C205.12,151.03 207.43,151.22 209.73,151.4C210.37,151.45 211.16,151.42 211.43,150.84C211.6,150.48 211.47,150.04 211.22,149.73C210.81,149.24 209.2,148.87 209.45,148.03C209.73,147.12 211.07,147.85 211.61,147.62C212.5,147.25 212.66,145.88 211.77,145.22Z" style="fill:rgb(230,230,230);fill-rule:nonzero;"/>
                <path d="M366.6,158.22C368.18,158.52 371.99,158.52 369.44,156.17C368.94,155.71 368.3,155.43 367.66,155.21C366.21,154.71 362.34,153.37 360.95,154.33C359.68,155.21 360.84,155.81 361.82,156.32C363.25,157.06 365.04,157.92 366.6,158.22Z" style="fill:rgb(230,230,230);fill-rule:nonzero;"/>
                <path d="M355.67,152.94C356.65,153.29 358.02,153.11 358.75,152.91C361.51,152.14 364.22,151.24 366.9,150.22C368.26,149.7 369.61,149.14 370.94,148.56C371.56,148.29 374.04,146.67 374.61,146.84C371.98,146.06 369.12,146.11 366.52,146.97C364.51,147.64 362.65,148.77 360.57,149.2C359.44,149.43 356.32,149.31 355.08,150.31C355.18,150.77 355.29,151.26 355.41,151.81C355.46,152.04 355.54,152.43 355.67,152.94Z" style="fill:rgb(230,230,230);fill-rule:nonzero;"/>
                <path d="M327.19,144.42C323.87,140.62 319.9,137.46 315.95,134.32C314.28,132.99 312.41,131.59 310.27,131.65C311.31,133.32 312.65,134.8 314.2,136.02C315.01,136.66 315.99,137.45 315.82,138.47C312.16,137.63 308.55,136.51 305.05,135.15C304.72,136.03 305.73,136.77 306.56,137.21C312.58,140.39 317.04,145.83 322.27,150.2C325.82,153.16 330.94,157.65 333.73,151.25C331.12,149.45 329.26,146.8 327.19,144.42Z" style="fill:rgb(230,230,230);fill-rule:nonzero;"/>
            </g>
            <path d="M312.12,17.21C312.12,12.55 303.9,8.77 293.77,8.77C283.64,8.77 275.48,13.02 275.42,17.68C275.3,26.25 284.59,19.2 290.51,20.83C293.48,21.65 294.24,25.1 295,25.1C295.4,25.1 297.73,21.32 300.96,20.32C305.46,18.94 312.12,19.92 312.12,17.21Z" style="fill:rgb(230,230,230);fill-rule:nonzero;"/>
            <path d="M229.95,218.46C229.95,216.62 224,215.39 217.65,215.69C211.29,215.99 206.08,217.73 206.3,219.56C206.46,220.87 211.78,221.54 218.13,221.07C225.39,220.54 229.95,219.36 229.95,218.46Z" style="fill:rgb(230,230,230);fill-rule:nonzero;"/>
            <path d="M386.58,216.56C386.58,217.7 381.86,218.34 375.63,218.34C369.41,218.34 364.38,217.2 364.38,216.06C364.38,211.67 369.06,212.94 375.28,212.94C381.51,212.95 386.58,215.43 386.58,216.56Z" style="fill:rgb(230,230,230);fill-rule:nonzero;"/>
            <path d="M277.87,23.26C279.27,24.29 280.49,25.67 283.48,26.51C287.79,27.73 290.52,27.58 293.53,27.52" style="fill:none;fill-rule:nonzero;stroke:black;stroke-width:1px;"/>
            <path d="M293.88,26.92C296.48,27.01 301.04,27.14 305.18,25.95C308.05,25.13 309.8,23.63 311.14,21.87" style="fill:none;fill-rule:nonzero;stroke:black;stroke-width:1px;"/>
            <path d="M293.19,168.81C290.76,93.16 290.23,37.88 292.14,31.18C293.16,27.6 295,25.1 295,25.1C297.66,21.5 299.76,21.71 304.11,17.95C306.65,15.75 311.45,13.41 312.22,8.34C312.62,5.68 312.5,6.02 312.69,5.99C313.02,5.95 311.53,9.89 316.8,14.9C316.98,15.07 317.37,15.79 318.59,16.33C325.67,19.46 333.92,21.66 345.22,26.7C347.05,27.51 347.29,28.07 349.69,29.38C354.27,31.89 356.37,32.34 358.8,34.74C359.07,35.01 359.41,35.36 359.83,35.88C360.25,36.39 360.74,37.03 361.32,37.66C366.56,42.53 369.81,49.02 371,56.05C371.19,56.97 371.36,57.88 371.56,58.8C371.8,59.72 372,60.66 372.17,61.6C372.51,63.49 372.85,65.22 373.05,67.13C373.05,68.03 373.1,68.91 373.18,69.77C373.26,70.63 373.38,71.46 373.52,72.28C375.25,77.85 377.02,83.82 377.82,89.76C377.96,90.55 378.12,91.28 378.25,92.02C380.78,96.9 380.78,101.77 381.5,107.06C381.75,107.98 382.01,108.92 382.24,109.86C384.34,118.32 384.11,127.04 383.29,135.66C383.44,136.55 383.68,137.59 383.97,138.78C384.26,139.97 384.57,141.31 384.91,142.85C386.39,149.64 388.81,160.74 388.84,172.69C388.88,185.72 386.04,185.18 386.52,198.42C386.87,208.1 386.63,216.1 386.63,216.1C386.63,216.1 384.28,214.06 380.98,213.65C377.76,213.25 373.79,212.83 369.65,213.29C365.91,213.7 364.19,215.22 364.19,215.22L364.19,197.89C364.19,196.1 364.22,194.57 364.27,193.26C364.29,192.02 364.29,191.14 364.18,190.7C362.82,188.99 361.68,187.13 360.79,185.18C360.61,184.79 360.45,184.39 360.29,183.99C357.24,181.31 354,176.03 358.08,172.23C358.53,171.76 358.6,171.66 358.63,171.08C358.86,168.73 358.86,165.89 358.19,163.35C358.1,162.52 358.01,161.75 357.79,160.96C356.42,156.17 355.64,152.76 355.42,151.79C354.55,147.95 354.36,146.47 353.91,144.15C353.87,143.96 353.9,143.83 353.92,143.68C354.4,141.95 353.59,140.33 352.68,138.62C352.59,138.32 352.52,138.03 352.44,137.74C351.13,132.61 350.64,132.15 349.33,126.77C349.09,125.76 348.87,124.87 348.67,124.06C348.47,123.25 348.35,122.6 348.32,122.1C350.33,118.41 352.36,113.94 350.33,109.89C352.36,114.46 350.43,118.23 347.54,121.39C346.96,122.02 346.35,122.63 345.72,123.21C341,126.12 348.3,133.02 346.71,137.76C346.69,139.06 346.54,140.37 346.3,141.66C345.82,144.24 344.95,146.73 344.43,149.08C344.26,150.38 344.27,151.8 344.24,153.22C344.21,154.64 344.11,156.04 343.84,157.41C343.88,158.08 343.93,158.82 343.97,159.6C344.36,167.43 343.71,179.84 341.3,185.39C331.84,207.15 260.04,204.29 252.12,183.25C250.46,178.84 249.18,167.18 249.46,159.15C249.45,158.44 249.37,158.24 249.33,157.94C246.67,155.23 245.14,151.84 244.67,148.25C244.58,147.53 244.53,146.81 244.52,146.07C244.01,141.15 245.23,136.68 246.06,132.41C246.13,131.93 246.07,131.6 245.94,131.11C242.79,127.76 243.61,122.89 241.6,118.66C241.45,118.02 241.33,117.37 241.26,116.72C240.91,113.45 241.57,110.06 242.9,106.93C243.01,106.52 243.31,106.24 243.18,105.53C242.6,102.37 243.02,100.18 242.82,100.17C242.61,100.15 242.33,102.83 241.74,107.06C241.63,107.65 241.46,108.24 241.3,108.88C240.36,111.95 240.36,114.79 239.74,117.92C239.63,118.91 239.59,119.81 239.42,120.65C238.44,125.73 237.67,128.68 236.39,130.55C235.56,131.77 234.12,133.56 233.89,136.27C233.68,138.73 234.62,140.04 235.14,142.17C236.02,145.81 234.79,148.28 233.35,153.25C232.77,155.27 232.31,157.46 231.76,160.53C231.67,161.04 231.67,161.53 231.67,162.06C232.24,165.52 230.61,168.76 229.89,172.24C229.8,172.77 229.74,173.26 229.7,173.71C229.46,175.97 229.48,177.16 229.3,179.16C229.26,179.62 229.21,180.12 229.16,180.68C229.39,182.95 228.17,185.39 228.12,187.65C228.06,188.11 228.01,188.59 227.98,189.09C227.87,190.59 227.88,192.26 228.16,194.16C228.57,196.94 229.95,200.41 229.95,200.41L229.95,218.46C229.72,216.89 225.59,216.42 221.18,216.06C213.55,215.43 206.57,218.31 206.22,219.35C206.22,219.35 205.46,211.4 205.1,197.91C204.84,188.24 204.01,188.86 203.49,175.39C203.28,169.84 203.42,169.84 203.13,160.02C202.77,147.57 202.52,147 202.59,143.76C202.71,138.66 203.45,135.02 204.6,130.9C204.74,130.38 204.88,129.87 205.01,129.37C202.65,125.83 202.78,122.14 204.35,118.96C204.57,118.51 204.65,118.1 204.78,117.67C205.11,116.22 205.68,114.69 206.29,113.16C206.49,112.65 206.7,112.14 206.91,111.64C206.71,110.67 206.66,109.76 206.72,108.92C207.47,105.85 208.28,102.6 208.68,98.95C208.68,96.52 210.71,94.89 210.43,91.95C210.52,91.47 210.63,90.99 210.77,90.52C210.91,90.05 210.88,89.73 210.91,89.35C210.78,86.73 211.69,84.47 212.83,82.28C213.06,81.84 213.3,81.4 213.54,80.97C214.77,75.42 213.96,69.33 216.8,64.15C216.88,63.63 216.96,63.12 217.05,62.6C217.49,60 218.06,57.34 218.87,54.41C221.07,46.45 221.62,48.9 225.84,38.15C226.33,36.9 227.36,34.23 229.95,32.25C231.64,30.96 233.36,30.61 234.06,30.28C241.8,26.73 258.12,21.89 269.09,17.06C271.7,15.91 275.46,12.78 275.52,9.2C275.55,7.58 274.78,5.99 274.81,5.98C274.85,5.97 275.22,10.36 278.03,13.84C280.76,17.23 285.04,18.91 286.97,19.56C288.83,20.19 289.51,20.22 290.79,20.99C293.9,22.87 293.47,23.11 295.01,25.1" style="fill:none;fill-rule:nonzero;stroke:black;stroke-width:1px;stroke-linejoin:round;"/>
            <path d="M296.92,0.62C301.67,0.93 306.74,1.54 311.02,3.6C311.34,3.75 311.67,3.93 311.87,4.23C312.08,4.54 312.1,4.94 312.11,5.31C312.18,7.36 311.69,10.31 311.77,12.36C311.79,12.78 311.75,13.29 311.38,13.48C311.12,13.62 310.79,13.58 310.53,13.44C306.93,11.64 304.14,10.44 300.14,9.77C296.14,9.1 290.62,9.01 286.47,9.81C282.54,10.57 279.46,11.82 275.68,14.45C274.81,11.88 274.21,8.75 274.5,6.01C274.75,3.7 276.96,3.19 278.93,2.57C284.67,0.77 290.96,0.23 296.92,0.62Z" style="fill:white;fill-rule:nonzero;stroke:black;stroke-width:1px;"/>
            <path d="M287.28,19.67C283.38,18.58 279.03,21.8 272.48,29.39C269.44,25.75 266.49,21.87 269.67,15.79L274.7,5.27C275.7,9.84 281.06,14.83 287.28,19.67Z" style="fill:white;fill-rule:nonzero;stroke:black;stroke-width:1px;"/>
            <path d="M302.46,19.28C305.91,16.9 316.31,29.79 316.31,29.79C316.31,29.79 321.35,19.21 318.92,15.11L312.12,4.62C311.82,9.62 307.15,14.05 302.46,19.28Z" style="fill:white;fill-rule:nonzero;stroke:black;stroke-width:1px;"/>
            <path d="M350.32,109.91C349.46,107.27 350.42,103.28 350.16,100.23C349.86,96.76 349.67,95.14 349.97,91.68C350.47,85.89 348.59,86.77 348.42,83.82" style="fill:none;fill-rule:nonzero;stroke:black;stroke-width:1px;"/>
            <path d="M242.79,100.23C243.13,97.73 242.38,95.21 242.43,92.69C242.47,90.85 242.93,89.04 242.9,87.2C242.88,86.13 242.7,85.07 242.52,84.02C242.22,82.31 241.93,80.6 241.63,78.89C241.13,75.97 240.62,73.04 239.69,70.23" style="fill:none;fill-rule:nonzero;stroke:black;stroke-width:1px;"/>
            <circle cx="297.28" cy="140.61" r="1.79" style="fill:none;stroke:black;stroke-width:1px;"/>
            <circle cx="297.68" cy="166.66" r="1.79" style="fill:none;stroke:black;stroke-width:1px;"/>
            <circle cx="296.07" cy="89.88" r="1.79" style="fill:none;stroke:black;stroke-width:1px;"/>
            <circle cx="296.54" cy="116.07" r="1.79" style="fill:none;stroke:black;stroke-width:1px;"/>
            <circle cx="295.71" cy="41.03" r="1.79" style="fill:white;stroke:black;stroke-width:1px;"/>
            <circle cx="295.71" cy="65.53" r="1.79" style="fill:none;stroke:black;stroke-width:1px;"/>
            <path d="M249.34,159.36C249.78,159.81 252.53,161.33 257.1,162.69C266.15,165.37 281.66,168.96 297.36,168.88C309.04,168.82 317.46,168.81 323.68,167.58C331.43,166.05 336.12,164.71 340.57,162.67C344.45,160.88 343.97,158.78 343.97,158.78C345.11,159.52 346.65,162.71 346.47,171.11C346.39,174.97 347.41,175.67 349.33,181.3C350.98,186.13 351.8,189.71 353.44,196.85C355.12,204.15 355.95,207.84 355.58,209.72C354.95,212.96 353.47,215.06 352.9,220.26C352.6,223.02 352.72,225.26 352.72,225.26L239.06,225.62C239.06,225.62 239.33,223.55 239.42,204.89C239.47,194.48 239.52,192.7 240.31,188.63C242.05,179.67 248.27,176.97 247.99,171.65C247.57,163.14 248.87,160.02 249.34,159.36Z" style="fill:rgb(179,179,179);fill-rule:nonzero;stroke:black;stroke-width:1px;"/>
            <path d="M247.72,169.18C247.72,169.18 247.48,171.8 254.59,174.28C261.69,176.76 289.17,181.85 289.17,181.85L289.24,171.2C289.24,171.2 269.98,169.06 256.8,164.03C252.03,162.21 248.85,159.81 248.85,159.81C247.81,162.67 247.49,164.48 247.72,169.18Z" style="fill:rgb(102,102,102);fill-rule:nonzero;stroke:black;stroke-width:1px;"/>
            <path d="M346.5,169.06C346.5,169.06 345.66,172.26 339.49,175.3C334.3,177.86 323.92,180.71 313.93,181.95C301.86,183.44 290.42,183.05 290.42,183.05L290.35,172.4C290.35,172.4 301.57,172.97 313.76,171.48C323.45,170.3 333.69,167.44 339.85,164.67C344.51,162.58 345.19,160.14 345.19,160.14C346.01,161.68 346.74,164.37 346.5,169.06Z" style="fill:rgb(102,102,102);fill-rule:nonzero;stroke:black;stroke-width:1px;"/>
            <path d="M295.36,225.44C295.12,221.85 294.83,216.91 294.82,209.8C294.82,192.84 295.2,194.26 295.36,187.55C295.52,180.82 294.99,174.5 295,169.86C295,169.33 295.67,169.16 295.89,168.97" style="fill:none;fill-rule:nonzero;stroke:black;stroke-width:1px;"/>
            <path d="M290.35,183.12L290.35,172.34C294.74,172.59 299.67,172.55 304.91,172.34L304.91,171.42C304.91,171.18 304.71,170.99 304.47,171C299.3,171.25 294.19,171.27 289.15,171.02C288.75,171 288.42,171.31 288.42,171.71L288.42,183.63C288.42,184.01 288.72,184.32 289.1,184.33C294.49,184.5 299.65,184.35 304.51,184.13C304.73,184.12 304.91,183.94 304.91,183.71L304.91,182.93C299.78,183.14 294.88,183.36 290.35,183.12Z" style="fill:white;fill-rule:nonzero;stroke:black;stroke-width:1px;"/>
            <path d="M270.42,179.54L267.84,179.1C267.55,174.43 268.09,170.2 269.48,165.8L272.19,166.35C272.19,166.35 271.39,168.85 270.81,172C270.08,175.9 270.42,179.54 270.42,179.54Z" style="fill:rgb(179,179,179);fill-rule:nonzero;stroke:black;stroke-width:1px;"/>
            <path d="M337.62,169.05C336.48,168.89 333.28,168.68 325.89,170.07C322.73,170.67 319.55,171.17 316.37,171.68C307.46,173.1 302.53,173.04 300.32,173.03C294.51,173.03 290.35,172.39 290.35,172.39L290.42,183.04C290.42,183.04 292.85,183.59 300.26,183.38C307.36,183.18 310.06,182.54 316.81,181.55C322.44,180.72 324.52,180.14 326.91,179.53C334.08,177.68 336.22,174.81 337.56,173.73C338.9,172.65 338.76,169.21 337.62,169.05Z" style="fill:rgb(102,102,102);fill-rule:nonzero;stroke:black;stroke-width:1px;"/>
            <path d="M310.48,182.79L313.07,182.52C313.36,177.85 313.85,175.57 312.45,171.17L309.94,171.44C309.94,171.44 310.59,174.03 310.71,177.23C310.85,180.91 310.48,182.79 310.48,182.79Z" style="fill:rgb(102,102,102);fill-rule:nonzero;stroke:black;stroke-width:1px;"/>
            <rect x="289.24" y="177.36" width="2.37" height="0.92" style="fill:white;stroke:black;stroke-width:1px;"/>
            <path d="M322.2,181.56L324.78,181.12C325.07,176.45 324.74,172.04 323.34,167.64L320.78,168.04C320.78,168.04 321.39,170.43 321.98,173.58C322.73,177.49 322.2,181.56 322.2,181.56Z" style="fill:rgb(179,179,179);fill-rule:nonzero;stroke:black;stroke-width:1px;"/>
        </g>
    </g>
</svg>
