<?xml version="1.0" encoding="UTF-8" standalone="no"?>
<!DOCTYPE svg PUBLIC "-//W3C//DTD SVG 1.1//EN" "http://www.w3.org/Graphics/SVG/1.1/DTD/svg11.dtd">
<svg width="100%" height="100%" viewBox="0 0 191 236" version="1.1" xmlns="http://www.w3.org/2000/svg" xmlns:xlink="http://www.w3.org/1999/xlink" xml:space="preserve" xmlns:serif="http://www.serif.com/" style="fill-rule:evenodd;clip-rule:evenodd;stroke-miterlimit:10;">
    <g transform="matrix(1,0,0,1,1.10494,4.52472)">
        <g>
            <path d="M91.35,168.81C90.21,85.54 85.1,40.71 93.15,25.1C97.27,19.53 108.39,16.96 110.38,8.35C110.78,5.69 110.66,6.03 110.85,6C110.8,19.48 130.24,19.61 143.37,26.71C147.3,29.43 154.27,32.09 156.95,34.75C166.58,43.41 169.78,54.64 171.2,67.15C171.26,69.18 172.57,71.33 173.48,73.17C175.35,78.83 175.33,84.03 175.96,89.78C178.45,96.45 178.95,102.98 180.38,109.88C182.48,118.33 182.25,127.06 181.43,135.68C183.89,147.3 186.71,156.68 186.98,172.72C187,175.36 186.86,177.21 186.71,179.48C187.76,183.37 185.27,187.43 184.74,191.57C184.45,197.15 185.05,217.26 184.76,216.14C181.64,212.65 166.08,211.9 162.31,215.26C162.2,215.79 162.46,198.12 162.31,190.73C160.68,188.68 159.37,186.43 158.42,184.02C155.37,181.34 152.13,176.06 156.21,172.26C157.58,169.82 156.82,166.28 156.32,163.38C155.72,157.26 152.64,153.09 152.54,147.48C151.83,146.76 152.93,145.44 152.01,145.02C151.84,144.25 151.53,143.78 152.15,142.83C152.37,140.99 150.96,139.49 150.57,137.76C148.72,132.09 148.49,127.99 147.18,122.15C148.47,118.43 150.49,113.96 148.46,109.91C151.89,118.05 143.15,122.54 145.12,130.55C146.69,134.5 144.69,137.43 146.78,141.6C149.06,146.14 150.87,151.22 148.18,155.66C146.57,158.31 143.88,158.19 143.09,158.86C142.78,159.13 142.45,159.38 142.1,159.62C142.49,167.69 141.83,179.81 139.43,185.41C129.97,207.17 58.17,204.31 50.25,183.27C48.59,178.86 47.31,167.2 47.59,159.17C47.58,158.46 46.32,159.45 45.79,159.18C36.95,154.67 41.09,149.7 40.64,145.54C40.2,141.49 35.96,137.42 38.27,134.21C39.85,130.63 37.92,126.89 38.53,123.14C37.94,120.04 44.86,114.75 44.58,111.61C43.69,106.59 42.54,105.44 40.86,100.59C40.87,100.19 40.77,106.33 39.13,108.91C37.73,114.78 37.84,123.61 35.47,128.66C32.47,131.95 35.32,134.12 32.02,136.27C31.77,139.61 34.17,142.57 33.43,145.96C33.85,148.95 32.09,151.29 31.98,154.39C31.55,156.05 31.53,157.83 30.33,159.2C29.91,160.04 29.75,161.08 29.8,162.06C30.47,165.97 28.17,169.75 27.83,173.72C27.47,177.17 27.52,179.69 27.14,183.01C28,188.07 33.26,193.91 28.32,199.17C27.95,199.75 28.09,200.43 28.09,200.43L28.09,218.48C27.86,216.91 23.73,216.44 19.32,216.08C11.69,215.45 4.71,218.33 4.36,219.37C4.36,219.37 3.67,212.07 3.29,199.58C3.31,196.56 1.58,193.76 1.31,190.67C-0.16,184.68 1.52,179.27 1.57,173.56C1.46,170.95 1.25,154.76 0.93,150.28C0.54,146.12 0.06,142.6 1.13,138.55C3.48,132.6 1.73,126.18 2.9,119.76C2.9,117.42 4.65,114.51 4.65,112.17C3.79,109.34 5.24,105.85 6.18,103.16C6.44,101.81 6.67,100.42 6.83,98.96C6.99,96.41 8.74,94.07 8.16,92.32C5.48,83.38 11.72,76.54 13.41,68.19C15.96,55.26 17.81,51.68 23.98,38.16C26.51,24.66 72.27,23.42 73.66,9.21C72.62,1.87 72.37,9.15 76.16,13.86C81.64,20.65 89.54,18.59 93.14,25.12" style="fill:white;fill-rule:nonzero;"/>
            <path d="M184.85,207.3L162.31,207.3L162.31,215.83C162.04,219.36 184.85,219.36 184.85,216.72L184.85,207.3Z" style="fill:white;fill-rule:nonzero;stroke:black;stroke-width:1px;"/>
            <path d="M28.11,212.65L3.92,213.08L4.43,219.52C4.16,223.05 28.11,221.11 28.11,218.47L28.11,212.65Z" style="fill:white;fill-rule:nonzero;stroke:black;stroke-width:1px;"/>
            <path d="M91.35,168.81C90.21,85.54 85.1,40.71 93.15,25.1C97.27,19.53 108.39,16.96 110.38,8.35C110.78,5.69 110.66,6.03 110.85,6C110.8,19.48 130.24,19.61 143.37,26.71C147.3,29.43 154.27,32.09 156.95,34.75C166.58,43.41 169.78,54.64 171.2,67.15C171.26,69.18 172.57,71.33 173.48,73.17C175.35,78.83 175.33,84.03 175.96,89.78C178.45,96.45 178.95,102.98 180.38,109.88C182.48,118.33 182.25,127.06 181.43,135.68C183.89,147.3 186.71,156.68 186.98,172.72C187,175.36 186.86,177.21 186.71,179.48C187.76,183.37 185.27,187.43 184.74,191.57C184.45,197.15 185.05,217.26 184.76,216.14C181.64,212.65 166.08,211.9 162.31,215.26C162.2,215.79 162.46,198.12 162.31,190.73C160.68,188.68 159.37,186.43 158.42,184.02C155.37,181.34 152.13,176.06 156.21,172.26C157.58,169.82 156.82,166.28 156.32,163.38C155.72,157.26 152.64,153.09 152.54,147.48C151.83,146.76 152.93,145.44 152.01,145.02C151.84,144.25 151.53,143.78 152.15,142.83C152.37,140.99 150.96,139.49 150.57,137.76C148.72,132.09 148.49,127.99 147.18,122.15C148.47,118.43 150.49,113.96 148.46,109.91C151.89,118.05 143.15,122.54 145.12,130.55C146.69,134.5 146.64,137.63 146.78,141.6C149.37,147.56 147.61,155.84 142.1,159.61C142.49,167.68 141.83,179.8 139.43,185.4C129.97,207.16 58.17,204.3 50.25,183.26C48.59,178.85 47.31,167.19 47.59,159.16C47.58,158.45 47.32,158.6 47.18,158.48C41.71,156.96 40.67,150.76 40.64,145.53C40.74,141.46 35.96,137.41 38.27,134.2C39.85,130.62 37.92,126.88 38.53,123.13C37.94,120.03 39.43,117.51 39.15,114.37C38.26,109.35 42.53,105.43 40.86,100.58C40.87,100.18 40.77,106.32 39.13,108.9C37.73,114.77 37.84,123.6 35.47,128.65C32.47,131.94 35.32,134.11 32.02,136.26C31.77,139.6 34.17,142.56 33.43,145.95C33.85,148.94 32.09,151.28 31.98,154.38C31.55,156.04 31.53,157.82 30.33,159.19C29.91,160.03 29.75,161.07 29.8,162.05C30.47,165.96 28.17,169.74 27.83,173.71C27.47,177.16 27.52,179.68 27.14,183C28,188.06 33.26,193.9 28.32,199.16C27.95,199.74 28.09,200.42 28.09,200.42L28.09,218.47C27.86,216.9 23.73,216.43 19.32,216.07C11.69,215.44 4.71,218.32 4.36,219.36C4.36,219.36 3.67,212.06 3.29,199.57C3.31,196.55 1.58,193.75 1.31,190.66C-0.16,184.67 1.52,179.26 1.57,173.55C1.46,170.94 1.25,154.75 0.93,150.27C0.54,146.11 0.06,142.59 1.13,138.54C3.48,132.59 1.73,126.17 2.9,119.75C2.9,117.41 4.65,114.5 4.65,112.16C3.79,109.33 5.24,105.84 6.18,103.15C6.44,101.8 6.67,100.41 6.83,98.95C6.99,96.4 8.74,94.06 8.16,92.31C5.48,83.37 11.72,76.53 13.41,68.18C15.96,55.25 17.81,51.67 23.98,38.15C26.51,24.65 72.27,23.41 73.66,9.2C72.62,1.86 72.37,9.14 76.16,13.85C81.64,20.64 89.54,18.58 93.14,25.11" style="fill:white;fill-rule:nonzero;"/>
            <path d="M76.03,23.26C77.43,24.29 78.65,25.67 81.64,26.51C85.95,27.73 88.68,27.58 91.69,27.52" style="fill:white;fill-rule:nonzero;stroke:black;stroke-width:1px;"/>
            <path d="M92.04,26.92C94.64,27.01 99.2,27.14 103.34,25.95C106.21,25.13 107.96,23.63 109.3,21.87" style="fill:white;fill-rule:nonzero;stroke:black;stroke-width:1px;"/>
            <path d="M85.44,19.67C81.54,18.58 77.19,21.8 70.64,29.39C67.6,25.75 64.65,21.87 67.83,15.79L72.86,5.27C73.86,9.84 79.22,14.83 85.44,19.67Z" style="fill:white;fill-rule:nonzero;stroke:black;stroke-width:1px;"/>
            <path d="M100.62,19.28C104.07,16.9 114.47,29.79 114.47,29.79C114.47,29.79 119.51,19.21 117.08,15.11L110.28,4.62C109.98,9.62 105.31,14.05 100.62,19.28Z" style="fill:white;fill-rule:nonzero;stroke:black;stroke-width:1px;"/>
            <g>
                <path d="M100.93,26.74C101.07,26.44 103.47,27.47 103.79,27.56C101.33,30.13 99.64,31.23 97.45,34.14C102.63,32.13 107.96,26.9 114.16,29.91C111.98,27.31 103.87,16.83 100.38,19.58C99.86,19.94 99.43,20.1 99.05,20.18C98.3,20.67 97.57,21.16 96.88,21.66C96.87,21.69 96.86,21.7 96.85,21.73C99.95,21.3 101.16,26.22 100.93,26.74Z" style="fill:rgb(230,230,230);fill-rule:nonzero;"/>
                <path d="M75.61,30.6C77.07,31.01 77.18,29.41 75.95,28.85C75.34,28.53 74.55,28.12 74.63,27.44C75.07,26.71 75.5,24.92 76.62,25.47C78.98,26.27 80.61,28.17 82.44,29.75C89.46,34.14 88.83,27.1 81.39,27.16C80.92,22.73 88.18,19.55 84.29,19.51C79.71,20.07 76.12,23.56 72.9,26.86C68.04,30.4 72.38,30.3 75.61,30.6Z" style="fill:rgb(230,230,230);fill-rule:nonzero;"/>
                <path d="M39.81,98.01C38.75,94.99 59.56,68.89 48.19,72.84C43.66,75.79 43.74,82.67 39.36,86.14C41.97,76.62 44.56,74.85 42.72,63.74C42.24,64.06 41.9,64.57 41.7,65.1C39.66,63.54 39.19,67.23 39.98,68.52C40.55,70.81 40.61,73.56 39.14,75.52C37.08,75.8 36.39,69.39 35.38,67.77C33.28,67.33 38.13,81.58 38.97,85.28C38.27,89.29 38.87,95.33 39.81,98.01Z" style="fill:rgb(230,230,230);fill-rule:nonzero;"/>
                <path d="M28.98,77.37C26.64,73.28 24.27,66.61 22.52,61.94C21.94,63.11 18.95,59.5 18.95,60.69C17.94,71.85 26.31,77 29.41,81.88C32.11,89.39 34.06,111.67 37.22,107.74C40.38,103.81 31.1,66.67 26.86,64.87C26.28,67.21 31.97,79.69 28.98,77.37Z" style="fill:rgb(230,230,230);fill-rule:nonzero;"/>
                <path d="M36.1,127.09C35.62,124.88 34.28,122.37 34.4,120.4C33.07,111.4 31.08,102.4 28.63,93.66C27.22,89.45 27.57,84.45 23.53,83.04C19.87,91.09 32,102.06 29.98,118.47C29.47,123.54 17.44,109.57 14.57,109.74C15.09,112.36 16.2,114.85 17.77,117L17.39,115.87C22.58,119.65 28.2,123.11 31.89,128.59C32.42,129.4 33.28,130.38 34.24,130.63C34.46,130.01 34.83,129.36 35.48,128.65C35.71,128.16 35.91,127.64 36.1,127.09Z" style="fill:rgb(230,230,230);fill-rule:nonzero;"/>
                <path d="M4.79,126.25C5.25,126.57 5.77,126.17 5.84,125.61C8.43,118.32 16.05,126.12 20.76,125.92C26.49,124.58 17.78,120.22 16.34,118.47C13.57,115.87 11.81,112.22 8.63,110.17C8.48,110.32 8.41,110.32 8.33,110.28C6.99,109.81 6.26,111.54 5.96,112.66C5.06,116.93 2.95,122.15 4.79,126.25Z" style="fill:rgb(230,230,230);fill-rule:nonzero;"/>
                <path d="M33.09,135.34C32.71,134.64 32.18,133.97 31.46,133.29C29.06,131.03 25.79,129.72 22.5,129.67C22.98,131 24.66,131.34 25.9,132.03C28.54,133.84 31.01,138.41 30.06,141.63C27.79,144.97 21.95,141.12 19.75,144.29C22.99,145.44 26.24,146.54 29.52,147.57C32.33,148.46 32.99,145.2 33.38,142.76C32.92,140.6 31.87,138.51 32.04,136.25C32.51,135.95 32.84,135.65 33.09,135.34Z" style="fill:rgb(230,230,230);fill-rule:nonzero;"/>
                <path d="M26.33,140.32C28.68,140.1 27.83,136.95 26.12,136.39C20.03,135.71 13.54,135.45 7.41,135.63C-0.15,136.87 11.61,141.48 14.12,140.82C18.15,139.83 22.28,140.78 26.33,140.32Z" style="fill:rgb(230,230,230);fill-rule:nonzero;"/>
                <path d="M8.78,133.45C11.02,133.07 15.52,132.8 15.99,130.18C15.36,128.53 11.51,130.41 10.55,130.72C9.35,131.11 7.03,131.28 6.23,132.44C5.22,133.92 7.67,133.52 8.78,133.45Z" style="fill:rgb(230,230,230);fill-rule:nonzero;"/>
                <path d="M28.35,157.92C20.61,159.7 16.72,162.89 24.99,168.3C25.96,169.49 26.85,170.97 28.14,171.85C28.84,168.55 30.39,165.35 29.82,162.04C29.77,161.06 29.93,160.03 30.35,159.18C31.36,158.03 31.53,156.58 31.82,155.17C31.14,156.45 29.75,157.4 28.35,157.92Z" style="fill:rgb(230,230,230);fill-rule:nonzero;"/>
                <path d="M5.78,160.68C5.7,160.55 5.66,160.39 5.64,160.24L5.03,161.44C5.27,161.19 5.52,160.93 5.78,160.68Z" style="fill:rgb(230,230,230);fill-rule:nonzero;"/>
                <path d="M20.39,168.11C15.98,165.66 11.39,155.72 5.78,160.69C12.65,162.72 16.51,171 23.6,172.31C23.83,170.3 21.84,169.08 20.39,168.11Z" style="fill:rgb(230,230,230);fill-rule:nonzero;"/>
                <path d="M5.64,160.24L6,159.53C5.72,159.64 5.62,159.94 5.64,160.24Z" style="fill:rgb(230,230,230);fill-rule:nonzero;"/>
                <path d="M1.69,154.33C3.09,155.66 6.21,157.92 7.66,155.82C7.86,154.92 6.9,154.38 6.3,153.91C5.06,152.88 4.61,151.19 3.46,150.08C2.35,149.35 1.48,149.16 0.85,149.29C0.88,149.62 0.91,149.94 0.95,150.27C1.01,151.11 1.07,152.37 1.12,153.87C1.3,154.03 1.49,154.18 1.69,154.33Z" style="fill:rgb(230,230,230);fill-rule:nonzero;"/>
                <path d="M16.31,172.95C11.47,170.34 8.48,163.97 3.04,162.8C2.39,163.4 1.87,164.12 1.4,164.88C1.46,167.62 1.5,170.12 1.54,171.79C4.26,171.33 7.4,171.63 9.13,176.18C9.46,177.17 2.91,182.3 0.72,184.94C0.71,185.45 0.72,185.97 0.74,186.49C1.15,186.45 1.74,186.31 2.55,186.04C5.32,185.66 20.85,175.56 16.31,172.95Z" style="fill:rgb(230,230,230);fill-rule:nonzero;"/>
                <path d="M16.37,178.77C14.04,180.6 12.33,183.13 10.65,185.54C16.32,188.29 20.58,181.67 25.47,180C26.04,179.77 26.77,179.52 27.47,179.19C27.54,178.02 27.59,176.85 27.69,175.6C24.04,174.92 19.5,177.24 16.37,178.77Z" style="fill:rgb(230,230,230);fill-rule:nonzero;"/>
                <path d="M27.22,183.25C25.61,184.05 23.83,185.45 23.12,185.89C22.21,186.87 16.89,188.55 18.3,189.99C19.99,189.43 21.69,188.41 23.61,188.63C23.32,190.39 25.74,189.85 26.3,188.68C26.62,188.31 27.46,187.49 28.27,186.57C27.82,185.43 27.43,184.32 27.22,183.25Z" style="fill:rgb(230,230,230);fill-rule:nonzero;"/>
                <path d="M9.51,193.11C11.05,191.62 13.22,190.99 14.91,189.68C15.19,189.43 15.42,189.12 15.59,188.79C12.61,191.69 8.09,187.22 4.59,188.99C3.51,189.35 2.31,190.42 1.48,191.66C1.8,193.4 2.46,195.06 2.9,196.75C5.62,196.86 7.86,195.11 9.51,193.11Z" style="fill:rgb(230,230,230);fill-rule:nonzero;"/>
                <path d="M20.79,192.82C17.42,191.68 12.36,192.84 11.18,196.68C10.95,197.57 10.7,197.59 11.55,197.56C13.32,197.28 15.25,194.94 17.04,194.49C18.04,194.19 23.38,194.9 20.79,192.82Z" style="fill:rgb(230,230,230);fill-rule:nonzero;"/>
                <path d="M161.41,120.88C158.84,120.69 155,117.85 153.19,120.9L153.31,120.92C152.61,123.51 149.55,123.16 148.06,124.84C147.98,125.09 147.92,125.32 147.89,125.56C148.03,126.29 148.16,127.01 148.28,127.71C149.55,130.18 153.34,131.95 154.96,134.01C155.19,134.22 155.44,134.42 155.73,134.51C155.68,136.3 154.91,138.38 155.79,140.03C156.96,139.91 157.7,138.79 158.46,137.9C161.37,134.44 166.33,133.24 169.22,129.77C165.36,131.29 160.66,129.73 157.04,132.3C155.2,129.97 152.48,127.28 157.45,126.7C163.12,126.17 168.8,125.64 174.47,125.11C179.09,125.52 179.65,119.58 176.37,117.49C171.39,115.31 166.43,120.86 161.41,120.88Z" style="fill:rgb(230,230,230);fill-rule:nonzero;"/>
                <path d="M151.68,80.91C152.29,81.26 153.06,81.38 153.49,81.94C153.76,82.29 153.83,82.75 153.89,83.19C154.21,85.45 154.53,87.75 154.18,90.01C153.83,92.27 152.73,94.52 150.78,95.71C150.48,95.05 150.37,94.32 150.45,93.6C150.36,94.2 150.27,94.8 150.18,95.39L150.02,96.79C150.21,98.33 150.34,99.9 150.41,101.5C150.46,102.63 151.05,110.72 148.47,109.65C148.41,109.62 148.35,109.58 148.29,109.54C147.9,112.95 147.57,116.51 147.4,120.19C148.89,117.07 150.19,113.94 148.49,109.9C150.45,113.82 148.64,118.12 147.35,121.75C147.34,122.05 147.33,122.34 147.32,122.64L147.32,122.65C148.2,122.94 148.95,121.97 149.34,121.13C157.44,102.37 151.39,87 164.45,80.51C166.39,78.95 168.22,76.57 166.04,76.16C164.24,78.12 160.93,79.23 157.52,79.02C159.02,76.71 160.15,73.15 158.05,67.1C157.42,68.33 156.83,69.42 156.26,70.41C156.23,70.61 156.21,70.81 156.18,71C155.75,73.86 154.82,77.18 152.1,78.16C152.31,77.57 152.5,76.98 152.69,76.39C151.94,77.7 151.35,78.93 150.95,80.26C151.15,80.52 151.38,80.74 151.68,80.91Z" style="fill:rgb(230,230,230);fill-rule:nonzero;"/>
                <path d="M150.02,96.8C149.99,96.57 149.96,96.33 149.92,96.1C149.85,96.78 149.77,97.47 149.69,98.17C149.74,98.26 149.79,98.34 149.84,98.43L150.02,96.8Z" style="fill:rgb(230,230,230);fill-rule:nonzero;"/>
                <path d="M169.88,99.45C169.17,99.57 169.02,101.64 168.77,102.26C167.49,106.7 162.77,105.2 159.29,105.86C155.91,106.8 153.45,112.08 154.97,115.03C160.26,112.3 165.39,108.13 171.45,108.3C172.28,108.31 173.31,108.28 173.65,107.53C173.97,106.61 171.24,99.16 169.88,99.45Z" style="fill:rgb(230,230,230);fill-rule:nonzero;"/>
                <path d="M176.17,129.44C173.27,131.07 169.93,131.97 167.32,134.15C169.38,135.69 172.04,134.44 174.11,133.51C176.43,132.22 179.23,132.1 181.77,131.46C182.01,127.86 182.1,124.26 181.91,120.68C181.66,120.71 181.42,120.82 181.23,121.03C178.8,123.28 178.82,127.46 176.17,129.44Z" style="fill:rgb(230,230,230);fill-rule:nonzero;"/>
                <path d="M153.87,145.06C157.6,147.61 159.76,141.04 161.31,138.53C159.16,138.38 158.65,141.91 154.83,142.04C154.79,138.54 154.56,132.85 149.62,134.31C149.62,134.33 149.63,134.34 149.63,134.36L151.76,134.73C151.32,135.24 150.93,136.44 150.64,137.89C151.06,139.57 152.4,141.04 152.18,142.83C151.55,143.78 151.86,144.24 152.04,145.02C152.71,145.33 152.3,146.12 152.32,146.8C152.75,146.5 153.26,145.94 153.87,145.06Z" style="fill:rgb(230,230,230);fill-rule:nonzero;"/>
                <path d="M165.03,141.42C162.94,140.94 161.63,141.03 160.49,142.92C155.47,149.15 172.24,143.44 174.02,142.54C172.71,140.33 167.78,142.86 165.03,141.42Z" style="fill:rgb(230,230,230);fill-rule:nonzero;"/>
                <path d="M155.46,158.92C155.72,158.85 156.01,158.67 156.34,158.35C157.71,156.05 159.65,154.33 161.72,152.61C163.27,151.31 165.5,147.4 161.56,148.63C158.76,149.39 153.83,147.13 152.92,150.57C153.48,153.41 154.63,156.01 155.46,158.92Z" style="fill:rgb(230,230,230);fill-rule:nonzero;"/>
                <path d="M183.23,143.8C182.86,142.13 182.48,140.45 182.1,138.74C181.08,138.8 179.95,139.65 178.82,140.17C174.79,141.77 180.16,144.01 183.23,143.8Z" style="fill:rgb(230,230,230);fill-rule:nonzero;"/>
                <path d="M184.95,170.5C178.79,168.05 175.33,173.94 170.17,173.73C169.47,173.55 168.65,173.81 168.76,174.66C169.68,177.02 174.78,179.63 177.23,180.19C179.67,179.82 182,178.49 184.57,178.94C185.47,179.16 186.19,179.15 186.74,178.95C186.87,176.91 186.99,175.14 186.97,172.71C186.97,172.57 186.96,172.43 186.96,172.29C186.42,171.47 185.72,170.81 184.95,170.5Z" style="fill:rgb(230,230,230);fill-rule:nonzero;"/>
                <path d="M158.03,183.64C158.64,183.39 159.07,182.51 159.19,181.87C160.01,178.79 162.49,176.79 164.94,175.03C166.01,173.75 164.7,172.69 163.33,172.74C160.27,172.31 158.65,170.31 156.99,168.2C157.05,169.67 156.89,171.09 156.23,172.25C155.93,172.53 155.69,172.81 155.46,173.1C155.49,173.27 155.5,173.41 155.49,173.5C155.97,176.24 155.67,179.25 156.47,181.89C156.96,182.54 157.49,183.13 158.03,183.64Z" style="fill:rgb(230,230,230);fill-rule:nonzero;"/>
                <path d="M171.24,179.37C169.42,179.18 168.33,177.49 166.74,176.89C162.6,176.33 162.76,182.31 163.23,184.98C165.17,188.55 165.38,181.27 167.31,180.83C168.62,180.2 170.24,180.82 171.56,180.31C172.02,179.98 171.78,179.37 171.24,179.37Z" style="fill:rgb(230,230,230);fill-rule:nonzero;"/>
                <path d="M172.47,194.69C170.55,191.6 166.73,190.78 163.47,191.85C163.32,191.02 162.61,190.34 161.72,189.9C161.92,190.17 162.11,190.45 162.33,190.72C162.37,192.57 162.38,195.06 162.38,197.75C165.73,196.73 169.1,195.71 172.47,194.69Z" style="fill:rgb(230,230,230);fill-rule:nonzero;"/>
                <path d="M182.09,194.58C179.48,193.28 178.79,189.87 176.77,187.75C175.79,191 172.88,189.05 170.83,190.12C175.16,193.98 179.49,197.84 183.83,201.7L182.29,199.99C182.96,198.78 183.82,197.49 183.94,196.1C183.84,195.28 182.84,194.96 182.09,194.58Z" style="fill:rgb(230,230,230);fill-rule:nonzero;"/>
                <path d="M182.78,201.43C180.17,199.86 177.55,198.21 175.3,196.08C173.85,194.71 172.06,196.2 170.52,196.64C174.39,196.13 178.94,202.88 182.78,201.43Z" style="fill:rgb(230,230,230);fill-rule:nonzero;"/>
                <path d="M172.93,169.96C173.79,169.52 174.16,168.73 174.54,167.96C176.22,163.64 181.66,167.81 184.8,165.8C188.26,164.16 180.61,161.12 178.53,163.18C176.59,162.34 174.12,162.17 172.65,164.02C168.31,171.91 164.41,155.05 158.87,160.07C162.31,164.66 165.79,173.1 172.93,169.96Z" style="fill:rgb(230,230,230);fill-rule:nonzero;"/>
                <path d="M168.72,155.71C168.25,155.72 167.82,156.18 168.36,156.39C169.42,156.89 174.2,160.27 175.01,158.7C176.2,156.4 169.84,155.63 168.72,155.71Z" style="fill:rgb(230,230,230);fill-rule:nonzero;"/>
                <path d="M163.77,154.93C165.31,154.18 166.33,153.23 168.2,153.02C180.23,152.4 164.3,149.38 163.77,154.93Z" style="fill:rgb(230,230,230);fill-rule:nonzero;"/>
                <path d="M179.02,147.2C178.02,146.45 176.33,144.15 174.88,145.22C173.99,145.88 174.15,147.25 175.04,147.63C175.58,147.86 176.92,147.13 177.2,148.04C177.46,148.88 175.85,149.24 175.43,149.74C173.8,152.77 181.74,150.87 184.68,150.7C184.58,150.2 184.48,149.7 184.38,149.21C182.87,148.36 180.23,148.46 179.02,147.2Z" style="fill:rgb(230,230,230);fill-rule:nonzero;"/>
                <path d="M25.68,154.33C22.61,152.35 10.12,158.94 20.04,158.22C21.19,157.88 27.99,155.94 25.68,154.33Z" style="fill:rgb(230,230,230);fill-rule:nonzero;"/>
                <path d="M32.09,151.19C31.88,149.23 27.48,149.49 26.09,149.2C21.55,147.73 16.97,145.05 12.05,146.84C14.81,147.58 31.94,157.1 32.09,151.19Z" style="fill:rgb(230,230,230);fill-rule:nonzero;"/>
                <path d="M48.05,90.78C47.41,88.08 46.45,88.42 45.19,90.82C43.56,93.93 41.79,97.66 40.45,100.93C39.83,102.44 39.65,104.3 40.29,105.74C40.8,103.36 40.88,100.82 40.89,100.58C41.4,102.05 41.85,103.17 42.27,104.17C44.33,100.08 48.54,92.86 48.05,90.78Z" style="fill:rgb(230,230,230);fill-rule:nonzero;"/>
                <path d="M55.27,89.79C54.54,89.5 53.75,90.02 53.16,90.54C48.18,95.02 46.65,101.99 43.77,108.1C44.07,109.07 44.34,110.17 44.59,111.59C44.72,113.04 43.32,114.93 41.84,116.86C43.51,115.22 44.86,112.13 45.6,110.88C46.6,109.23 56.3,90.19 55.27,89.79Z" style="fill:rgb(230,230,230);fill-rule:nonzero;"/>
                <path d="M43.89,127.23C45.5,124.27 46.55,121.04 47.59,117.83C48.77,114.18 49.96,110.53 51.14,106.88C48.14,108.65 46.77,112.17 45.17,115.27C43.68,118.15 41.83,120.84 39.67,123.26C39.26,123.72 38.84,124.19 38.43,124.67C38.41,127.52 39.37,130.35 38.66,133.1C40.45,132.6 42.76,129.31 43.89,127.23Z" style="fill:rgb(230,230,230);fill-rule:nonzero;"/>
                <path d="M69.97,90.82C69.46,91.66 68.95,92.49 68.45,93.33C68.19,94.11 67.93,94.89 67.67,95.67L69.97,90.82Z" style="fill:rgb(230,230,230);fill-rule:nonzero;"/>
                <path d="M43.11,149.77C44.28,149.06 45.08,147.89 45.81,146.73C55.81,130.89 58.25,111.31 67.46,95.01C67.78,94.45 68.11,93.89 68.44,93.33C68.96,91.76 69.49,90.19 70.01,88.63C70.43,87.37 70.29,85.34 68.97,85.48C68.57,85.52 68.23,85.8 67.94,86.07C63.73,89.95 61.44,95.42 59.26,100.71C54.98,111.11 50.7,121.52 46.43,131.92C45.5,134.19 44.51,136.54 42.7,138.2C41.6,139.2 40.23,139.93 38.99,140.77C39.71,142.32 40.48,143.93 40.66,145.53C40.83,147.07 40.36,148.72 40.16,150.42C41.19,150.52 42.23,150.31 43.11,149.77Z" style="fill:rgb(230,230,230);fill-rule:nonzero;"/>
                <path d="M62.45,124.32C59.48,132.35 57.83,141.2 52.87,148.34C51.7,150.03 50.7,150.84 48.98,151.83C47.93,152.44 46.6,152.33 46.46,153.84C46.06,158.02 53.84,156.74 55.71,155.32C58.05,153.54 59.07,150.57 59.98,147.77C65.29,131.39 70.6,115.01 75.9,98.63C78.68,90.05 81.49,81.35 82.05,72.34C75.53,82.96 73.9,95.79 69.52,107.46C67.37,113.17 64.56,118.61 62.45,124.32Z" style="fill:rgb(230,230,230);fill-rule:nonzero;"/>
                <path d="M113.26,95.48C112.64,92.36 111.22,85.22 108.3,83.33C104.13,80.63 106.52,94.89 106.86,97C109.77,114.84 115.75,132.17 124.47,148.01C126.5,151.69 128.8,155.43 132.36,157.66C134.61,159.07 138.21,159.43 139.38,157.04C140.21,155.34 139.23,153.34 138.27,151.71C131.22,139.83 123.56,128.17 118.47,115.27C115.9,108.78 114.61,102.28 113.26,95.48Z" style="fill:rgb(230,230,230);fill-rule:nonzero;"/>
                <path d="M145.74,116.51C142.28,107.95 137.88,99.77 132.65,92.16C131.46,90.43 130.17,88.69 129.35,86.74C128.7,85.2 128.69,83.14 127,82.3C121.73,79.69 125.34,89.6 125.88,91.34C129.22,102.07 132.56,112.81 135.91,123.54C137.91,129.96 140.42,137 146.25,140.24C145.12,136.76 146.54,134.05 145.14,130.54C144.34,127.26 145.32,124.58 146.53,121.99C146.65,121.42 146.73,120.85 146.72,120.27C146.71,118.98 146.23,117.72 145.74,116.51Z" style="fill:rgb(230,230,230);fill-rule:nonzero;"/>
                <path d="M142.28,75.97C141.16,76.06 140.52,74.76 140.19,73.69C139.6,71.79 139.01,69.89 138.43,67.99C136.76,73.05 139.31,79.16 144.09,81.52C144.67,81.81 145.28,82.05 145.75,82.48C146.31,82.99 146.61,83.71 146.89,84.41C148.43,88.3 149.39,92.12 149.92,96.09C149.95,96.32 149.99,96.56 150.02,96.79L150.18,95.39C150.27,94.79 150.36,94.19 150.45,93.6C150.37,94.31 150.48,95.05 150.78,95.71C152.73,94.52 153.83,92.27 154.18,90.01C154.53,87.75 154.21,85.45 153.89,83.19C153.83,82.75 153.76,82.29 153.49,81.94C153.07,81.38 152.29,81.26 151.68,80.91C151.38,80.74 151.15,80.51 150.95,80.27C149.88,78.97 150.08,76.75 150.69,75.03C151.42,72.99 152.45,70.73 151.52,68.78C151.31,69.67 151.08,70.58 150.52,71.31C149.96,72.03 148.97,72.51 148.12,72.19C146.94,71.75 146.69,70.21 146.64,68.95C146.57,67.32 146.49,65.68 146.42,64.05C144.05,66.22 143.92,69.85 143.88,73.06C143.85,74.28 143.49,75.88 142.28,75.97Z" style="fill:rgb(230,230,230);fill-rule:nonzero;"/>
                <path d="M150.4,101.51C150.33,99.91 150.2,98.34 150.01,96.8L149.83,98.44C149.79,98.35 149.73,98.26 149.68,98.18C149.51,97.86 149.31,97.57 149.04,97.33C148.63,96.97 148.11,96.75 147.62,96.5C145.82,95.58 144.29,94.13 143.26,92.39C142.74,91.5 142.06,90.36 141.04,90.51C140.08,90.64 139.68,91.91 139.99,92.83C140.31,93.75 141.08,94.42 141.69,95.17C142.76,96.49 143.39,98.1 144.02,99.68C144.74,101.5 146.35,108.39 148.28,109.58C148.34,109.62 148.4,109.67 148.46,109.69C151.04,110.73 150.45,102.64 150.4,101.51Z" style="fill:rgb(230,230,230);fill-rule:nonzero;"/>
                <path d="M136.81,39.89C137.8,40.74 138.97,41.66 140.27,41.47C140.57,41.43 140.88,41.31 141.05,41.05C141.49,40.4 140.72,39.63 140.05,39.2C137.11,37.33 134.44,35.04 132.14,32.42C131.15,31.29 128.75,26.91 126.66,27.42C124.12,28.05 135.21,38.51 136.81,39.89Z" style="fill:rgb(230,230,230);fill-rule:nonzero;"/>
                <path d="M151.65,55.24C151.66,52.99 150.18,51.06 148.99,49.14C147.45,46.66 146.33,43.93 145.66,41.09C145.21,39.18 145.66,34.83 144.13,33.7C142.19,39.53 147.17,48.47 149.57,53.62C149.98,54.49 150.73,55.54 151.65,55.24Z" style="fill:rgb(230,230,230);fill-rule:nonzero;"/>
                <path d="M156.18,71.01C156.21,70.81 156.23,70.61 156.26,70.42C157.53,61.64 157.66,52.71 156.67,43.89C156,37.89 154.35,39.7 154.53,44.69C154.7,49.43 155.35,54.14 155.39,58.88C155.43,64.81 154.51,70.75 152.69,76.4C152.5,76.99 152.31,77.59 152.1,78.17C154.81,77.19 155.75,73.87 156.18,71.01Z" style="fill:rgb(230,230,230);fill-rule:nonzero;"/>
                <path d="M12.39,90.33C13.62,89.59 15.29,90.19 16.24,91.26C17.19,92.33 17.62,93.76 18.11,95.11C19.21,98.16 20.72,101.05 22.59,103.69C23.12,104.43 23.98,105.24 24.81,104.87C23.25,98.71 20.69,92.86 18.15,87.04C17.46,85.47 16.76,83.88 15.71,82.52L15.94,81.97C15.85,82.14 15.77,82.3 15.68,82.47C15.57,82.33 15.42,82.17 15.24,82.18C15.05,82.19 14.91,82.37 14.81,82.53C14.12,83.67 13.73,84.99 13.65,86.32C13.59,86.43 13.54,86.54 13.48,86.64C12.87,87.8 12.25,89.04 12.39,90.33Z" style="fill:rgb(230,230,230);fill-rule:nonzero;"/>
                <path d="M148.21,154.69C148.11,154.44 147.95,154.18 147.69,154.12C147.14,153.97 146.82,154.71 146.41,155.1C145.79,155.67 144.83,155.49 143.99,155.56C141.66,155.75 140.13,157.97 138.46,159.6C134.61,163.36 128.36,164.41 123.49,162.13C122.49,163.74 120.66,164.8 118.77,164.86C117.77,164.89 116.78,164.67 115.78,164.67C113.26,164.67 110.57,166.06 108.34,164.87C107.69,164.52 107.14,163.97 106.45,163.72C105.64,163.42 104.73,163.57 103.88,163.72C99.88,164.42 95.88,165.13 91.87,165.83C90.37,166.09 88.79,166.35 87.34,165.87C85.89,165.39 84.65,163.9 85.01,162.41C83.41,163.73 81.61,165.11 79.53,165.07C77.62,165.03 75.97,163.78 74.13,163.26C72.03,162.67 69.8,163.06 67.62,163.01C65.14,162.95 62.71,162.3 60.32,161.66C54.43,160.08 48.43,158.01 42.44,156.89C43.27,157.66 44.37,158.42 45.84,159.16C46.37,159.43 47.64,158.45 47.64,159.15C47.56,161.4 47.61,163.93 47.75,166.51C47.9,166.62 48.05,166.73 48.2,166.82C50.27,168.17 52.34,169.53 54.41,170.88C56.65,172.34 58.9,173.81 61.33,174.93C63.53,175.94 65.85,176.64 68.17,177.34C72.59,178.68 77.04,180.03 81.61,180.72C89.65,181.94 97.85,181.12 105.9,179.98C113.12,178.96 120.3,177.69 127.42,176.17C131.07,175.39 134.82,174.49 137.8,172.25C139.55,170.93 140.94,169.2 142.2,167.39C142.28,164.63 142.26,161.95 142.15,159.61C142.49,159.37 142.82,159.12 143.14,158.85C143.92,158.18 146.62,158.3 148.23,155.65C148.3,155.54 148.35,155.43 148.41,155.33C148.34,155.12 148.29,154.9 148.21,154.69Z" style="fill:rgb(230,230,230);fill-rule:nonzero;"/>
            </g>
            <path d="M110.28,17.21C110.28,12.55 102.06,8.77 91.93,8.77C81.8,8.77 73.64,13.02 73.58,17.68C73.46,26.25 82.75,19.2 88.67,20.83C91.64,21.65 92.4,25.1 93.16,25.1C93.56,25.1 95.89,21.32 99.12,20.32C103.62,18.94 110.28,19.92 110.28,17.21Z" style="fill:rgb(230,230,230);fill-rule:nonzero;"/>
            <path d="M28.11,218.46C28.11,216.62 22.16,215.39 15.81,215.69C9.46,215.99 4.24,217.73 4.46,219.56C4.62,220.87 9.94,221.54 16.29,221.07C23.55,220.54 28.11,219.36 28.11,218.46Z" style="fill:rgb(230,230,230);fill-rule:nonzero;"/>
            <path d="M184.74,216.56C184.74,217.7 180.02,218.34 173.79,218.34C167.56,218.34 162.54,217.2 162.54,216.06C162.54,211.67 167.22,212.94 173.44,212.94C179.66,212.94 184.74,215.43 184.74,216.56Z" style="fill:rgb(230,230,230);fill-rule:nonzero;"/>
            <path d="M91.35,168.81C90.21,85.54 85.1,40.71 93.15,25.1C97.27,19.53 108.39,16.96 110.38,8.35C110.78,5.69 110.66,6.03 110.85,6C110.8,19.48 130.24,19.61 143.37,26.71C147.3,29.43 154.27,32.09 156.95,34.75C166.58,43.41 169.78,54.64 171.2,67.15C171.26,69.18 172.57,71.33 173.48,73.17C175.35,78.83 175.33,84.03 175.96,89.78C178.45,96.45 178.95,102.98 180.38,109.88C182.48,118.33 182.25,127.06 181.43,135.68C183.89,147.3 186.71,156.68 186.98,172.72C187,175.36 186.86,177.21 186.71,179.48C187.76,183.37 185.27,187.43 184.74,191.57C184.45,197.15 185.05,217.26 184.76,216.14C181.64,212.65 166.08,211.9 162.31,215.26C162.2,215.79 162.46,198.12 162.31,190.73C160.68,188.68 159.37,186.43 158.42,184.02C155.37,181.34 152.13,176.06 156.21,172.26C157.58,169.82 156.82,166.28 156.32,163.38C155.72,157.26 152.64,153.09 152.54,147.48C151.83,146.76 152.93,145.44 152.01,145.02C151.84,144.25 151.53,143.78 152.15,142.83C152.37,140.99 150.96,139.49 150.57,137.76C148.72,132.09 148.49,127.99 147.18,122.15C148.47,118.43 150.49,113.96 148.46,109.91C151.89,118.05 143.15,122.54 145.12,130.55C146.69,134.5 144.69,137.43 146.78,141.6C149.06,146.14 150.87,151.22 148.18,155.66C146.57,158.31 143.88,158.19 143.09,158.86C142.78,159.13 142.45,159.38 142.1,159.62C142.49,167.69 141.83,179.81 139.43,185.41C129.97,207.17 58.17,204.31 50.25,183.27C48.59,178.86 47.31,167.2 47.59,159.17C47.58,158.46 46.32,159.45 45.79,159.18C36.95,154.67 41.09,149.7 40.64,145.54C40.2,141.49 35.96,137.42 38.27,134.21C39.85,130.63 37.92,126.89 38.53,123.14C37.94,120.04 44.86,114.75 44.58,111.61C43.69,106.59 42.54,105.44 40.86,100.59C40.87,100.19 40.77,106.33 39.13,108.91C37.73,114.78 37.84,123.61 35.47,128.66C32.47,131.95 35.32,134.12 32.02,136.27C31.77,139.61 34.17,142.57 33.43,145.96C33.85,148.95 32.09,151.29 31.98,154.39C31.55,156.05 31.53,157.83 30.33,159.2C29.91,160.04 29.75,161.08 29.8,162.06C30.47,165.97 28.17,169.75 27.83,173.72C27.47,177.17 27.52,179.69 27.14,183.01C28,188.07 33.26,193.91 28.32,199.17C27.95,199.75 28.09,200.43 28.09,200.43L28.09,218.48C27.86,216.91 23.73,216.44 19.32,216.08C11.69,215.45 4.71,218.33 4.36,219.37C4.36,219.37 3.67,212.07 3.29,199.58C3.31,196.56 1.58,193.76 1.31,190.67C-0.16,184.68 1.52,179.27 1.57,173.56C1.46,170.95 1.25,154.76 0.93,150.28C0.54,146.12 0.06,142.6 1.13,138.55C3.48,132.6 1.73,126.18 2.9,119.76C2.9,117.42 4.65,114.51 4.65,112.17C3.79,109.34 5.24,105.85 6.18,103.16C6.44,101.81 6.67,100.42 6.83,98.96C6.99,96.41 8.74,94.07 8.16,92.32C5.48,83.38 11.72,76.54 13.41,68.19C15.96,55.26 17.81,51.68 23.98,38.16C26.51,24.66 72.27,23.42 73.66,9.21C72.62,1.87 72.37,9.15 76.16,13.86C81.64,20.65 89.54,18.59 93.14,25.12" style="fill:none;fill-rule:nonzero;stroke:black;stroke-width:1px;stroke-linejoin:round;"/>
            <path d="M76.03,23.26C77.43,24.29 78.65,25.67 81.64,26.51C85.95,27.73 88.68,27.58 91.69,27.52" style="fill:none;fill-rule:nonzero;stroke:black;stroke-width:1px;"/>
            <path d="M92.04,26.92C94.64,27.01 99.2,27.14 103.34,25.95C106.21,25.13 107.96,23.63 109.3,21.87" style="fill:none;fill-rule:nonzero;stroke:black;stroke-width:1px;"/>
            <path d="M95.08,0.62C99.83,0.93 104.9,1.54 109.18,3.6C109.5,3.75 109.83,3.93 110.03,4.23C110.24,4.54 110.26,4.94 110.27,5.31C110.34,7.36 109.85,10.31 109.93,12.36C109.95,12.78 109.91,13.29 109.54,13.48C109.28,13.62 108.95,13.58 108.69,13.44C105.09,11.64 102.3,10.44 98.3,9.77C94.3,9.1 88.78,9.01 84.63,9.81C80.7,10.57 77.62,11.82 73.84,14.45C72.97,11.88 72.37,8.75 72.66,6.01C72.91,3.7 75.12,3.19 77.09,2.57C82.83,0.77 89.12,0.23 95.08,0.62Z" style="fill:white;fill-rule:nonzero;stroke:black;stroke-width:1px;"/>
            <path d="M85.44,19.67C81.54,18.58 77.19,21.8 70.64,29.39C67.6,25.75 64.65,21.87 67.83,15.79L72.86,5.27C73.86,9.84 79.22,14.83 85.44,19.67Z" style="fill:white;fill-rule:nonzero;stroke:black;stroke-width:1px;"/>
            <path d="M100.62,19.28C104.07,16.9 114.47,29.79 114.47,29.79C114.47,29.79 119.51,19.21 117.08,15.11L110.28,4.62C109.98,9.62 105.31,14.05 100.62,19.28Z" style="fill:white;fill-rule:nonzero;stroke:black;stroke-width:1px;"/>
            <path d="M148.48,109.91C147.62,107.27 148.58,103.28 148.85,100.38C150.13,97.52 150.66,96.21 151.33,92.84C151.03,84.59 149.62,84.68 154.15,80" style="fill:none;fill-rule:nonzero;stroke:black;stroke-width:1px;"/>
            <path d="M40.89,100.64C39.94,98.15 38.52,95.54 38.54,93.02C38.54,91.23 39,89.55 39.2,87.89C39.21,87.01 39.13,86.14 38.96,85.27C38.72,83.81 38.31,82.21 37.86,80.61C36.56,78.34 35.02,76.79 33.7,75.5" style="fill:none;fill-rule:nonzero;stroke:black;stroke-width:1px;"/>
            <circle cx="95.43" cy="140.61" r="1.79" style="fill:none;stroke:black;stroke-width:1px;"/>
            <circle cx="95.84" cy="166.66" r="1.79" style="fill:none;stroke:black;stroke-width:1px;"/>
            <circle cx="94.23" cy="89.88" r="1.79" style="fill:none;stroke:black;stroke-width:1px;"/>
            <circle cx="94.7" cy="116.07" r="1.79" style="fill:none;stroke:black;stroke-width:1px;"/>
            <circle cx="93.87" cy="41.03" r="1.79" style="fill:white;stroke:black;stroke-width:1px;"/>
            <circle cx="93.87" cy="65.53" r="1.79" style="fill:none;stroke:black;stroke-width:1px;"/>
            <path d="M47.5,159.36C47.94,159.81 50.69,161.33 55.26,162.69C64.31,165.37 79.82,168.96 95.52,168.88C107.2,168.82 115.62,168.81 121.84,167.58C129.59,166.05 134.28,164.71 138.73,162.67C140.67,161.78 141.52,160.81 141.88,160.06C142,159.81 142.07,159.59 142.11,159.4C142.19,159.03 142.22,158.89 142.22,158.89C142.36,158.94 142.6,159.18 142.84,159.55C143.81,161.01 144.77,164.4 144.63,171.12C144.55,174.98 145.57,175.68 147.49,181.31C149.14,186.14 149.96,189.72 151.6,196.86C153.28,204.16 154.11,207.85 153.74,209.73C153.11,212.97 151.63,215.07 151.06,220.27C150.76,223.03 150.88,225.27 150.88,225.27L37.22,225.63C37.22,225.63 37.49,223.56 37.58,204.9C37.63,194.49 37.68,192.71 38.47,188.64C40.21,179.68 46.43,176.98 46.15,171.66C45.72,163.14 47.03,160.02 47.5,159.36Z" style="fill:rgb(179,179,179);fill-rule:nonzero;stroke:black;stroke-width:1px;"/>
            <path d="M45.88,169.18C45.88,169.18 45.64,171.8 52.75,174.28C59.86,176.76 87.33,181.85 87.33,181.85L87.4,171.2C87.4,171.2 68.14,169.06 54.96,164.03C50.19,162.21 47.01,159.81 47.01,159.81C45.97,162.67 45.65,164.48 45.88,169.18Z" style="fill:rgb(102,102,102);fill-rule:nonzero;stroke:black;stroke-width:1px;"/>
            <path d="M144.66,169.06C144.66,169.06 143.82,172.26 137.65,175.3C132.46,177.86 122.08,180.71 112.09,181.95C100.02,183.44 88.58,183.05 88.58,183.05L88.51,172.4C88.51,172.4 99.73,172.97 111.92,171.48C121.61,170.3 131.85,167.44 138.01,164.67C142.67,162.58 143.35,160.14 143.35,160.14C144.17,161.68 144.9,164.37 144.66,169.06Z" style="fill:rgb(102,102,102);fill-rule:nonzero;stroke:black;stroke-width:1px;"/>
            <path d="M93.52,225.44C93.28,221.85 92.99,216.91 92.98,209.8C92.98,192.84 93.36,194.26 93.52,187.55C93.68,180.82 93.15,174.5 93.16,169.86C93.16,169.33 93.83,169.16 94.05,168.97" style="fill:none;fill-rule:nonzero;stroke:black;stroke-width:1px;"/>
            <path d="M88.51,183.12L88.51,172.34C92.9,172.59 97.83,172.55 103.07,172.34L103.07,171.42C103.07,171.18 102.87,170.99 102.63,171C97.46,171.25 92.35,171.27 87.31,171.02C86.91,171 86.58,171.31 86.58,171.71L86.58,183.63C86.58,184.01 86.88,184.32 87.26,184.33C92.65,184.5 97.81,184.35 102.67,184.13C102.89,184.12 103.07,183.94 103.07,183.71L103.07,182.93C97.94,183.14 93.04,183.36 88.51,183.12Z" style="fill:white;fill-rule:nonzero;stroke:black;stroke-width:1px;"/>
            <path d="M68.58,179.54L66,179.1C65.71,174.43 66.25,170.2 67.64,165.8L70.35,166.35C70.35,166.35 69.55,168.85 68.97,172C68.24,175.9 68.58,179.54 68.58,179.54Z" style="fill:rgb(179,179,179);fill-rule:nonzero;stroke:black;stroke-width:1px;"/>
            <path d="M135.78,169.05C134.64,168.89 131.44,168.68 124.05,170.07C120.89,170.67 117.71,171.17 114.53,171.68C105.62,173.1 100.69,173.04 98.48,173.03C92.67,173.03 88.51,172.39 88.51,172.39L88.58,183.04C88.58,183.04 91.01,183.59 98.42,183.38C105.52,183.18 108.22,182.54 114.97,181.55C120.6,180.72 122.68,180.14 125.07,179.53C132.24,177.68 134.38,174.81 135.72,173.73C137.06,172.65 136.92,169.21 135.78,169.05Z" style="fill:rgb(102,102,102);fill-rule:nonzero;stroke:black;stroke-width:1px;"/>
            <path d="M108.64,182.79L111.23,182.52C111.52,177.85 112.01,175.57 110.61,171.17L108.1,171.44C108.1,171.44 108.75,174.03 108.87,177.23C109.01,180.91 108.64,182.79 108.64,182.79Z" style="fill:rgb(102,102,102);fill-rule:nonzero;stroke:black;stroke-width:1px;"/>
            <rect x="87.4" y="177.36" width="2.37" height="0.92" style="fill:white;stroke:black;stroke-width:1px;"/>
            <path d="M120.36,181.56L122.94,181.12C123.23,176.45 122.9,172.04 121.5,167.64L118.94,168.04C118.94,168.04 119.55,170.43 120.14,173.58C120.89,177.49 120.36,181.56 120.36,181.56Z" style="fill:rgb(179,179,179);fill-rule:nonzero;stroke:black;stroke-width:1px;"/>
        </g>
    </g>
</svg>
