<?xml version="1.0" encoding="UTF-8" standalone="no"?>
<!DOCTYPE svg PUBLIC "-//W3C//DTD SVG 1.1//EN" "http://www.w3.org/Graphics/SVG/1.1/DTD/svg11.dtd">
<svg width="100%" height="100%" viewBox="0 0 191 236" version="1.1" xmlns="http://www.w3.org/2000/svg" xmlns:xlink="http://www.w3.org/1999/xlink" xml:space="preserve" xmlns:serif="http://www.serif.com/" style="fill-rule:evenodd;clip-rule:evenodd;stroke-miterlimit:10;">
    <g transform="matrix(1,0,0,1,-598.685,4.52472)">
        <g>
            <path d="M784.28,207.3L761.74,207.3L761.74,215.83C761.47,219.36 784.28,219.36 784.28,216.72L784.28,207.3Z" style="fill:white;fill-rule:nonzero;stroke:black;stroke-width:1px;"/>
            <path d="M627.53,212.65C627.53,212.65 619.3,212.8 612.44,212.92C611.46,212.94 610.51,212.95 609.62,212.97C607.88,213 606.41,213.02 605.37,213.04C604.33,213.06 603.71,213.07 603.71,213.07C603.71,213.07 603.73,214.68 603.77,216.29C603.81,217.9 603.89,219.51 603.89,219.51C603.83,220.1 604.45,220.54 605.52,220.85C606.6,221.16 608.12,221.33 609.88,221.4C616.9,221.68 627.54,220.23 627.54,218.47L627.54,212.65L627.53,212.65Z" style="fill:white;fill-rule:nonzero;stroke:black;stroke-width:1px;"/>
            <path d="M690.78,168.81C689.64,85.54 684.52,40.71 692.58,25.1C696.7,19.53 707.82,16.96 709.81,8.35C710.21,5.69 710.09,6.03 710.28,6C710.24,19.48 729.66,19.61 742.8,26.71C746.74,29.43 753.7,32.09 756.38,34.75C765.2,44.02 764.41,58.02 769.07,69.18C770.97,77.48 769.44,86.42 772.89,94.48C774.43,98.76 774.38,103.38 775.12,107.83C776.14,112.17 778.65,115.96 779.64,120.34C779.58,127.2 779.83,133.78 781.98,140.71C783.01,152.12 784.29,163.96 785.09,175.39C785.4,183.89 783.86,189.37 784.08,198.45C784.43,208.13 784.19,216.13 784.19,216.13C781.07,212.64 765.51,211.89 761.74,215.25C761.85,217.02 761.37,192.87 762.28,187.64C763.88,178.13 757.45,169.96 756.52,160.73C755.95,158.25 755.35,155.78 754.7,153.31C753.44,147.97 753.93,142.32 752.29,137.24C752.21,136.09 751.62,134.34 752.22,133.32C752.33,132.53 752.16,131.77 751.23,131.4C750.89,130.36 751.78,129.41 752.3,128.49C752.25,128.32 752.2,128.06 752.04,127.97C749.87,127.92 751.62,126.17 751.28,124.79C750.45,119.35 748.17,113.12 746.24,107.57C744.62,105.15 745.21,101.64 742.87,99.31C740.89,101.53 744.59,104.06 741.85,105.83C741.86,106 741.87,106.17 741.89,106.33C742.87,107.48 743.46,108.65 742.2,110.38C741.2,118.01 741.56,125.48 740.77,132.96C740.47,135.14 740.48,137.42 742.11,139.14C741.68,143.13 739.09,148.27 742.33,151.5C740.73,161.29 742.67,177.1 738.89,185.4C729.43,207.16 657.63,204.3 649.72,183.26C647.77,178.07 646.57,164.32 647.2,155.91C647.18,155.2 647.25,154.47 646.84,153.8C645.4,149.53 647.73,144.86 644.67,140.65C643.06,136.98 645.28,132.98 644.36,129.17C643.65,127.93 641.9,126.76 643.69,124.86C645.27,119.94 643.5,114.61 643.39,109.54C642.13,109.01 643.56,107.17 642.81,106.34C640.73,105.55 642.75,103.56 641.87,102.04C640.72,101.07 640.72,99.9 641.05,98.89C640.67,97.28 640.31,95.66 640.14,94.06C641.16,104.73 635.79,114.89 633.81,125.24C633.45,127.25 631.73,129.52 632.87,131.31C633.04,132.53 631.88,133.19 631.2,134C631.96,134.35 630.79,134.93 630.65,135.74C631.34,136.85 629.78,137.54 630.65,139.52C632.78,152.86 626.74,165.42 627.47,178.69C627.77,184.45 625.6,190.41 626.36,196.27C628.09,199.4 627.48,214.93 627.55,218.46C624.46,214.66 607.85,215.34 603.84,218.89C603.2,206.4 605.33,192.71 603.85,180.04C602.32,170.13 601.59,159.3 601.15,149.37C599.97,140.26 601.8,132.15 604.25,123.52C603.35,122.08 603.94,120.92 604.9,120.21C605.12,119.35 605.06,118.36 604.91,117.63C604.04,116.16 605.25,114.83 605.94,113.15C606.61,109.39 607.8,105.82 608.71,102.18C610.91,92.56 611.22,82.64 613.27,73.01C614.84,66.07 615.06,58.65 617.24,51.87C618.88,46.86 619.76,47.56 623.45,38.15C625.99,24.65 671.73,23.42 673.13,9.2C672.09,1.86 671.84,9.15 675.63,13.85C681.11,20.65 689.01,18.58 692.61,25.11" style="fill:white;fill-rule:nonzero;"/>
            <path d="M675.45,23.26C676.85,24.29 678.07,25.67 681.06,26.51C685.37,27.73 688.1,27.58 691.11,27.52" style="fill:white;fill-rule:nonzero;stroke:black;stroke-width:1px;"/>
            <path d="M691.47,26.92C694.07,27.01 698.63,27.14 702.77,25.95C705.64,25.13 707.39,23.63 708.73,21.87" style="fill:white;fill-rule:nonzero;stroke:black;stroke-width:1px;"/>
            <path d="M684.86,19.67C680.96,18.58 676.61,21.8 670.06,29.39C667.02,25.75 664.07,21.87 667.25,15.79L672.28,5.27C673.28,9.84 678.64,14.83 684.86,19.67Z" style="fill:white;fill-rule:nonzero;stroke:black;stroke-width:1px;"/>
            <path d="M700.04,19.28C703.49,16.9 713.89,29.79 713.89,29.79C713.89,29.79 718.93,19.21 716.5,15.11L709.7,4.62C709.4,9.62 704.74,14.05 700.04,19.28Z" style="fill:white;fill-rule:nonzero;stroke:black;stroke-width:1px;"/>
            <g>
                <path d="M696.28,21.73C699.38,21.3 700.59,26.23 700.36,26.74C700.5,26.44 702.9,27.47 703.22,27.56C700.76,30.13 699.07,31.23 696.88,34.14C702.06,32.13 707.39,26.9 713.59,29.91C711.41,27.31 703.3,16.83 699.81,19.58C699.29,19.94 698.86,20.1 698.48,20.18C697.73,20.67 697,21.16 696.31,21.66C696.29,21.68 696.28,21.7 696.28,21.73Z" style="fill:rgb(230,230,230);fill-rule:nonzero;"/>
                <path d="M675.03,30.6C676.49,31.01 676.6,29.41 675.37,28.85C674.76,28.53 673.97,28.12 674.05,27.44C674.49,26.71 674.92,24.92 676.04,25.47C678.4,26.27 680.03,28.17 681.85,29.75C688.87,34.14 688.24,27.1 680.8,27.16C680.33,22.73 687.59,19.55 683.7,19.51C679.12,20.07 675.53,23.56 672.31,26.86C667.46,30.4 671.81,30.3 675.03,30.6Z" style="fill:rgb(230,230,230);fill-rule:nonzero;"/>
                <path d="M686.4,37.87C685.78,36.49 683.56,36.5 682.34,36.28C674.87,35.19 667.38,32.72 659.79,33.18C659.92,33.75 660.56,34.02 661.11,34.2C663.16,35.07 688.38,41.72 686.4,37.87Z" style="fill:rgb(230,230,230);fill-rule:nonzero;"/>
                <path d="M696.52,39.79C699.71,38.09 703.67,37.34 706.38,34.94C702.91,35.09 694.79,37.04 693.34,40.73C694.37,40.84 695.55,40.22 696.52,39.79Z" style="fill:rgb(230,230,230);fill-rule:nonzero;"/>
                <path d="M615.39,179.39C610.21,177.76 605.92,174.32 602.57,170.1C602.87,173.05 603.23,175.96 603.65,178.81C607.64,180.9 613.29,181.55 617,181.84C617.02,180.82 616.27,179.92 615.39,179.39Z" style="fill:rgb(230,230,230);fill-rule:nonzero;"/>
                <path d="M627.45,178.69C627.36,177.11 627.38,175.54 627.46,173.98C624.33,176.72 621.96,181.04 619.34,184.13C615.52,188.76 623.93,186.74 626.27,185.47C626.54,185.24 626.85,184.81 627.16,184.27C627.39,182.39 627.55,180.53 627.45,178.69Z" style="fill:rgb(230,230,230);fill-rule:nonzero;"/>
                <path d="M611.88,188.77C608.91,186.99 606.56,184.62 604.06,182.41C604.16,183.67 604.23,184.93 604.28,186.21C606.97,188.63 609.72,191.39 613.67,191.02C613.76,190.01 612.75,189.29 611.88,188.77Z" style="fill:rgb(230,230,230);fill-rule:nonzero;"/>
                <path d="M626.34,196.27C626.09,194.38 626.15,192.48 626.34,190.59C623.87,191.04 622.75,198.32 622.88,199.75C624.18,200.66 625.62,199.08 626.64,197C626.55,196.72 626.45,196.47 626.34,196.27Z" style="fill:rgb(230,230,230);fill-rule:nonzero;"/>
                <path d="M605.34,116.84C613.48,116.5 614.43,118.5 620.84,123.06C624.35,125.6 626.24,131.18 630.83,131.83C631.39,131.67 631.49,131.02 631.02,130.7C626.5,127.08 623.89,121.66 619.58,117.9C617.99,115.75 604.04,112.34 605.34,116.84Z" style="fill:rgb(230,230,230);fill-rule:nonzero;"/>
                <path d="M617.07,133.07C627.21,134.89 605.55,123.93 604.44,122.39C604.38,122.4 604.31,122.41 604.25,122.43C604.17,122.38 604.09,122.33 604.02,122.28L604.23,122.43C604.08,122.44 603.95,122.48 603.82,122.51C603.88,122.83 604.01,123.17 604.23,123.52C604.07,124.08 603.92,124.63 603.76,125.18C608.81,126.69 612.7,130.29 617.07,133.07Z" style="fill:rgb(230,230,230);fill-rule:nonzero;"/>
                <path d="M621.71,137.59C621.14,138.19 621.49,138.98 622.33,138.79C629.15,137.66 628.21,133.99 624.14,129.84C620.21,125.33 615.22,121.15 608.99,121C607.96,119.73 606.19,120.87 605.79,122.17C606.11,122.27 606.43,122.38 606.76,122.48C607.07,122.91 607.62,123 608.12,123L608.16,122.92C614.27,124.87 630.79,129.27 621.71,137.59Z" style="fill:rgb(230,230,230);fill-rule:nonzero;"/>
                <path d="M630.66,117.83C627.85,111.75 625.56,105.44 622.96,99.27C623.55,107.71 627.72,115.62 630.32,123.59C630.59,124.69 631.06,128.39 632.54,129.21C632.7,128.36 633.08,127.48 633.39,126.61C632.94,123.53 632.47,120.46 630.66,117.83Z" style="fill:rgb(230,230,230);fill-rule:nonzero;"/>
                <path d="M630.69,140.06C629.09,141.54 627.07,142.5 625.48,144.05C625.62,144.49 628.04,147.54 628.18,146.09C628.13,144.85 629.66,143.57 630.95,142.43C630.9,141.64 630.81,140.85 630.69,140.06Z" style="fill:rgb(230,230,230);fill-rule:nonzero;"/>
                <path d="M613.57,141.19L613.9,141.57C613.85,141.4 613.74,141.26 613.57,141.19Z" style="fill:rgb(230,230,230);fill-rule:nonzero;"/>
                <path d="M613.9,141.57C613.91,141.59 613.91,141.61 613.92,141.63C614.05,141.76 614.18,141.9 614.31,142.03L613.9,141.57Z" style="fill:rgb(230,230,230);fill-rule:nonzero;"/>
                <path d="M605.08,138.64C598.68,136.28 603.15,142.31 606.35,142.88C608.17,142.99 613.72,144.17 613.92,141.63C610.43,136.97 609.65,139.42 605.08,138.64Z" style="fill:rgb(230,230,230);fill-rule:nonzero;"/>
                <path d="M627.5,150.01C624.42,147.54 621.8,143.51 617.3,144.18C615.24,144.65 610.71,143.85 610.1,146.34C612.39,146.72 614.62,145.31 616.94,145.31C620.59,145.67 624.53,147.49 626.34,150.8C627.88,153.04 629.56,153.8 630.43,153.69C630.5,153.2 630.57,152.71 630.63,152.22C630.14,151.59 629.16,150.82 627.5,150.01Z" style="fill:rgb(230,230,230);fill-rule:nonzero;"/>
                <path d="M640.11,94.06C640.28,95.66 640.65,97.28 641.02,98.89C640.69,99.89 640.69,101.06 641.84,102.04C642.72,103.56 640.71,105.55 642.78,106.34C643.52,107.17 642.1,109.01 643.36,109.54C643.42,112.1 643.89,114.72 644.15,117.32C644.9,116.92 645.5,115.65 645.83,114.69C646.14,112.99 645.15,110.97 645.93,109.33C647.96,106.84 650.01,104.44 651.94,101.81C653.54,99.32 657.04,97.56 657.72,94.15C658.8,91.58 660.85,89.79 661.88,87.18C656.88,88.89 656.19,94.59 652.32,97.71C649.67,100.05 647.94,103.3 645.4,105.68C641.24,107.9 645.03,102.14 645.69,100.77C645.59,100.67 645.48,100.59 645.34,100.51C647.34,99.19 647.16,96.85 648.1,94.97C648.73,94.46 656.47,85.54 653.19,86.65C650.31,88.84 648.15,91.91 645.52,94.31C644.29,94.87 642.84,93.45 643.82,92.31C644.49,90 651.15,85.31 646.8,83.82C640.85,86.64 644.72,80.61 645.46,78.04C645.44,77.37 644.77,77.73 644.28,77.92C637.22,81.76 642.11,74.27 636.08,69.44C634.73,71.57 636.8,74.12 635.27,76.6C635.01,80.6 637.98,84.46 636.71,88.56C634.26,87.56 634.96,83.74 632.85,82.46C632.7,82.65 632.49,82.79 632.26,82.87C633.66,91.04 638.98,99.39 636.85,107.91C636.27,106.58 636.35,97.7 634.61,98.8C633.62,101.94 634.71,105.37 634.66,108.6C634.93,111.96 634.14,115.81 635.3,119C637.66,110.79 640.92,102.58 640.11,94.06Z" style="fill:rgb(230,230,230);fill-rule:nonzero;"/>
                <path d="M643.85,126.71L643.31,127.74C643.36,127.81 643.4,127.88 643.45,127.95C643.62,127.54 643.77,127.13 643.85,126.71Z" style="fill:rgb(230,230,230);fill-rule:nonzero;"/>
                <path d="M651.19,123.23C648.79,124.88 646.96,128.31 643.81,128.42C644,128.67 644.18,128.92 644.33,129.16C644.6,130.28 644.6,131.41 644.5,132.54C647.29,130.31 654.71,123.13 651.19,123.23Z" style="fill:rgb(230,230,230);fill-rule:nonzero;"/>
                <path d="M652.18,133.07C652.09,132.48 652,131.9 651.9,131.31C647.99,132.3 646.7,136.67 644.2,139.28C644.29,139.74 644.43,140.2 644.63,140.65C644.78,140.85 644.9,141.05 645.02,141.26C647.4,140.75 650.58,136.37 651.71,134.84C651.82,134.28 651.34,133.19 652.18,133.07Z" style="fill:rgb(230,230,230);fill-rule:nonzero;"/>
                <path d="M761.39,122.91C761.9,122.62 762.45,122.28 762.59,121.72C758.52,121.88 755.62,125.39 752.22,127.25C752.08,127.34 751.68,127.55 751.23,127.8C751.4,127.9 751.66,127.97 752.04,127.98C752.21,128.07 752.25,128.33 752.3,128.5C752.28,128.54 752.25,128.58 752.23,128.62C755.5,127.21 758.22,124.49 761.39,122.91Z" style="fill:rgb(230,230,230);fill-rule:nonzero;"/>
                <path d="M767.33,126.08C762.42,126.36 756.95,127.91 753.06,130.98C752.73,131.31 752.33,131.68 751.89,131.85C752.1,132.09 752.2,132.37 752.24,132.68C755.41,131.83 762.32,128.24 764.22,128.36C765.49,128.11 767.18,127.59 767.33,126.08Z" style="fill:rgb(230,230,230);fill-rule:nonzero;"/>
                <path d="M625.32,168.4C624.51,169.77 617.73,173.65 619.39,174.72C621.18,174.16 625.13,173.54 627.58,172.18C627.77,169.94 628.08,167.7 628.44,165.48C627.31,166.22 626.39,167.6 625.32,168.4Z" style="fill:rgb(230,230,230);fill-rule:nonzero;"/>
                <path d="M607.65,171.48C607.69,169.33 605.32,167.31 604.44,165.3C603.31,164.07 602.71,161.96 601.74,160.45C601.89,162.61 602.07,164.78 602.26,166.95C602.82,167.98 603.46,168.97 604.2,169.89C605,170.86 606.4,172.22 607.65,171.48Z" style="fill:rgb(230,230,230);fill-rule:nonzero;"/>
                <path d="M601.05,148.73C604.73,149.19 612.67,151.95 613.22,150.67C610.92,147.71 606.45,147.5 603.46,145.35C602.72,144.83 601.74,144.41 600.75,144.24C600.78,145.71 600.88,147.21 601.05,148.73Z" style="fill:rgb(230,230,230);fill-rule:nonzero;"/>
                <path d="M607.8,154.4C606.79,152.03 603.62,151.65 601.2,150.89C601.24,151.72 601.28,152.55 601.32,153.39C603.49,153.96 605.66,154.85 607.8,154.4Z" style="fill:rgb(230,230,230);fill-rule:nonzero;"/>
                <path d="M617.08,74.06C616.63,71.41 616.18,68.54 614.4,66.45C614.07,68.66 613.72,70.86 613.24,73.01C613.15,73.44 613.08,73.88 612.99,74.32C616.26,77.92 616.28,82.77 619,86.51C620.59,84.09 617.05,77.41 617.08,74.06Z" style="fill:rgb(230,230,230);fill-rule:nonzero;"/>
                <path d="M616.14,67.44C615.72,67 615.17,65.85 614.53,65.63C614.5,65.84 614.47,66.06 614.44,66.27L616.14,67.44Z" style="fill:rgb(230,230,230);fill-rule:nonzero;"/>
                <path d="M624.56,79.68C626.52,78.75 625.96,77.53 626.46,76.01C628.3,77.4 628.16,80.51 630.09,81.75C631.19,76.46 623.96,64.93 623.67,76.7C623.73,77.21 623.74,79.82 624.56,79.68Z" style="fill:rgb(230,230,230);fill-rule:nonzero;"/>
                <path d="M629.23,63.71C629.02,68.55 631.1,73.36 633.25,77.67C635.72,78.23 631.06,66.84 631.02,64.96C630.95,63.68 629.78,61.01 629.23,63.71Z" style="fill:rgb(230,230,230);fill-rule:nonzero;"/>
                <path d="M606.34,164.28L608.36,167.9C607.73,166.67 607.24,165.35 606.34,164.28Z" style="fill:rgb(230,230,230);fill-rule:nonzero;"/>
                <path d="M616.39,177.06C619.62,176.22 614.52,172.91 614.02,171.31C611.72,168.72 610.94,164.7 607.83,162.92C606.15,162.56 606.41,164.37 607.09,165.29C610.61,168.48 611.3,176.62 616.39,177.06Z" style="fill:rgb(230,230,230);fill-rule:nonzero;"/>
                <path d="M719.9,135.37C718.95,140.64 728.7,148.23 732.55,151.43C733.79,152.53 739.33,155.92 741.86,155.52C741.93,154.56 742.03,153.64 742.15,152.75C739.18,150.77 737.8,152.39 733.15,146.8C728.89,142.76 723.08,140.29 719.9,135.37Z" style="fill:rgb(230,230,230);fill-rule:nonzero;"/>
                <path d="M648.59,155.36C652.8,150.54 657.02,145.71 661.23,140.89C661.86,140.17 662.53,139.21 662.13,138.33C656.9,140.96 654,147.24 647.96,148.84C647.29,149.04 646.74,149.26 646.27,149.5C646.25,150.95 646.32,152.4 646.79,153.79C647.21,154.46 647.14,155.19 647.15,155.9C647.12,156.3 647.1,156.71 647.08,157.13C647.64,156.54 648.15,155.88 648.59,155.36Z" style="fill:rgb(230,230,230);fill-rule:nonzero;"/>
                <path d="M681.74,43.52C680.32,43.81 673.14,42.69 673.57,44.58C676.37,45.36 679.5,44.52 682.39,45C684.37,45.18 687.3,46.37 688.57,44.27C687.33,43.12 683.47,43.56 681.74,43.52Z" style="fill:rgb(230,230,230);fill-rule:nonzero;"/>
                <path d="M679.48,96.3C682.75,95.46 682.83,94.74 685.97,93.55C687.81,92.73 688.17,93.47 688.55,91.05C687.96,90.81 686.84,91.36 685.95,91.67C683.77,92.82 678.82,93.97 679.48,96.3Z" style="fill:rgb(230,230,230);fill-rule:nonzero;"/>
                <path d="M766,84.03C763.82,90.02 758.35,94.38 756.21,100.39C756.64,99.19 758.58,97.73 759.4,96.69C762.03,93.61 771.37,78.62 769.22,75.43C767.44,75.08 766.49,82.67 766,84.03Z" style="fill:rgb(230,230,230);fill-rule:nonzero;"/>
                <path d="M764.48,132.4C765.5,133.84 773.25,132.2 774.9,132.07C775.71,132.08 776.43,131.7 776.66,130.89C777.14,129.86 778.22,126.22 775.95,127.79C773.64,131.01 762.14,128.71 764.48,132.4Z" style="fill:rgb(230,230,230);fill-rule:nonzero;"/>
                <path d="M755.03,138.29C757.78,137.6 762.48,139.38 764.45,137.11C764.52,135.82 762.88,135.77 761.94,135.93C758.95,136.08 754.79,134.28 752.09,135.83C752.17,136.34 752.27,136.83 752.3,137.24C752.62,138.23 752.84,139.24 753.03,140.26C753.7,139.62 754.14,138.62 755.03,138.29Z" style="fill:rgb(230,230,230);fill-rule:nonzero;"/>
                <path d="M758.32,53.12C759.44,49.59 761.6,49.93 764.2,50.95C764.04,50.29 763.87,49.64 763.69,48.99C762.17,47.87 760.2,47 759.59,47.83C758.09,49.89 756.98,52.24 756.34,54.71C757.22,54.58 757.88,53.87 758.32,53.12Z" style="fill:rgb(230,230,230);fill-rule:nonzero;"/>
                <path d="M745.35,105.59C745.35,105.54 745.34,105.49 745.34,105.45C746.73,106.59 748.23,108.16 750.11,108.15C750.88,103.15 745.36,104.64 745.68,102.25C746.64,100.92 749.34,102.64 750.17,101.02C749.54,100.01 747.75,100.61 746.97,99.72C746.22,97.71 746.92,95.09 745.15,93.34C746.97,92.25 747.58,90.1 748.59,88.35C751.13,83.96 756.55,81.21 757.47,76.22C753.84,77.55 749.47,87.26 746.03,86.1C745.67,74.51 754.61,70.71 754.63,63.71C754.76,64.49 750.8,68.63 750.22,69.51C748.83,71.62 747.8,73.92 746.49,76.06C746.35,72.47 750.13,69.04 748.95,65.53C745.62,67.53 745.8,71.56 744.97,74.84C744.45,76.06 742.15,70.16 741.81,76.53C741.47,82.9 739.35,88.11 742.95,93.84C743.01,93.85 743.06,93.85 743.12,93.85C743.71,95.31 742.35,96.67 741.08,95.54C740.22,94.86 740.19,93.4 739.16,92.92C738.71,92.75 738.07,93.1 738.17,93.58C739.59,95.29 742.09,97.9 739.12,99.55C737.01,98.2 737.18,95.3 735.97,93.37C734.13,90.52 732.4,87.69 731.18,84.55C725.36,80.61 735.52,96.74 735.64,98.41C736.22,101.5 744.55,112.46 738.01,113.03C735.5,111.36 734.59,107.68 733.06,105.18C731.78,98.74 728.28,93.48 725.94,87.64C725.36,89.39 727.69,91.73 725.05,93.18C726.42,97.7 730.58,100.73 731.74,105.27C732.77,107.1 733.95,109.08 735,110.93C734.91,110.95 734.82,110.98 734.72,111.04C737.07,116.02 738.95,120.76 738.78,126.32C736.53,121.06 734.89,114.65 730.01,111.21C728.71,110.54 726.58,111.15 727.39,113.08C731.89,120.04 736.23,127.14 740.63,134.19C740.66,133.78 740.7,133.37 740.75,132.96C741.54,125.48 741.18,118.01 742.18,110.38C743.44,108.65 742.85,107.48 741.87,106.33C741.86,106.16 741.84,105.99 741.83,105.83C744.57,104.06 740.87,101.53 742.85,99.31C744.61,101.07 744.72,103.47 745.35,105.59Z" style="fill:rgb(230,230,230);fill-rule:nonzero;"/>
                <path d="M738.36,140.21C735.51,138.43 733.47,135.45 730.75,133.49C728.28,133.51 729.93,136.39 731.15,137.16C732.62,139.07 737.77,147.16 740.73,146.7C740.84,144.66 741.5,142.49 741.89,140.49C740.86,140.11 739.51,140.65 738.36,140.21Z" style="fill:rgb(230,230,230);fill-rule:nonzero;"/>
                <path d="M727.73,167.09C728.74,166.86 729.7,166.39 730.48,165.69C730.5,165.68 730.51,165.66 730.52,165.65C730.2,165.79 729.84,165.95 729.45,166.1C728.88,166.42 728.3,166.74 727.73,167.09Z" style="fill:rgb(230,230,230);fill-rule:nonzero;"/>
                <path d="M732.03,164.64C734.41,163.55 739.02,162.38 741.59,161.07C741.62,160.03 741.65,159 741.7,157.99C740,157.89 737.72,159.15 737.02,160.04C735.84,162.21 733.33,162.67 731.64,164.31C731.95,164.39 732.07,164.5 732.03,164.64Z" style="fill:rgb(230,230,230);fill-rule:nonzero;"/>
                <path d="M732.03,164.64C732.06,164.5 731.95,164.39 731.65,164.31C731.14,164.17 730.07,164.14 728.28,164.25C730.07,164.14 724.62,164.35 723.15,163.32C721.5,162.16 719.92,160.08 718,160.7C724.8,173.77 711.12,163.44 706.26,161.25C706,162.73 706.24,164.29 706.92,165.62C704.42,167.48 700.73,168.24 699,165.13C698.54,164.94 698.07,165.36 697.72,165.71C694.8,168.46 688.88,168.56 685.51,166.25C684.83,163.68 689.46,163.64 690.32,161.66C692.89,152.61 673.95,167.78 670.03,164.23C669.98,162.75 672.21,159.34 670.19,158.82C665.91,158.15 663.12,164.28 658.79,164.25C656.44,156.67 657.6,159.04 651.22,155.98C635.09,172.19 679.57,168.82 687.09,168.88C697.63,167.72 708.5,171.73 718.77,169.6C720.58,169.02 726.13,167.4 729.45,166.08C729.84,165.92 730.2,165.77 730.52,165.63C731.39,165.25 731.97,164.9 732.03,164.64Z" style="fill:rgb(230,230,230);fill-rule:nonzero;"/>
                <path d="M764.72,177.35C763.19,174.26 760.39,171.36 760.96,167.97C761.41,165.27 763.99,162.75 762.96,160.22C761.38,160.27 760.83,162.27 760.15,163.7C757.06,167.01 758.84,157.33 760.14,156.41C761.33,155.15 762.3,151.86 759.74,151.85C758.58,152.1 758.43,153.87 757.35,154.35C751.71,154.45 756.76,143.62 758.52,141.22C756.24,141.88 754.62,142.84 753.53,144.04C753.83,147.13 753.98,150.27 754.7,153.32C755.35,155.78 755.95,158.25 756.52,160.74C757.16,167 760.31,172.77 761.78,178.8C762.01,179.18 762.25,179.56 762.5,179.93C764.39,181.16 765.92,179.07 764.72,177.35Z" style="fill:rgb(230,230,230);fill-rule:nonzero;"/>
                <path d="M771.63,178.54C773.49,179.91 776,180.14 778.22,180.52C779.93,180.78 783.09,182.07 783.34,180.11C783.1,173.33 774.78,175.32 771.63,178.54Z" style="fill:rgb(230,230,230);fill-rule:nonzero;"/>
                <path d="M779.14,184.81C776.56,184.36 770.79,186.73 776.93,187.55C779.23,187.47 782.25,191.01 784.24,191.41C784.28,190.74 784.33,190.09 784.38,189.44C782.9,187.59 781.57,185.44 779.14,184.81Z" style="fill:rgb(230,230,230);fill-rule:nonzero;"/>
                <path d="M774.86,193.15C770.17,194.33 766.33,189.44 762.07,189.52C761.97,190.69 761.9,192.15 761.85,193.79C763.06,194.88 778.59,194.79 774.86,193.15Z" style="fill:rgb(230,230,230);fill-rule:nonzero;"/>
                <path d="M766.36,187.9C766.04,186.36 764.26,183.92 762.48,183.29C762.54,184.22 762.54,185.16 762.46,186.12C763.6,187.01 764.94,187.64 766.36,187.9Z" style="fill:rgb(230,230,230);fill-rule:nonzero;"/>
                <path d="M698.45,143.52C699.08,144.34 700.34,144.77 701.32,145.18C704.75,146.32 708.03,148.68 711.63,148.99C709.13,146.58 702.12,142.04 698.45,143.52Z" style="fill:rgb(230,230,230);fill-rule:nonzero;"/>
                <path d="M713.78,98.04C711.13,96.22 703.72,92.44 700.92,92.47C700.18,92.48 699.96,93.49 700.64,93.8C701.13,94.03 701.65,94.22 702.11,94.4C704.58,95.17 707.63,96.69 710.12,97.51C710.89,97.77 714.45,98.5 713.78,98.04Z" style="fill:rgb(230,230,230);fill-rule:nonzero;"/>
            </g>
            <path d="M627.17,218.48C627.17,216.64 621.31,215.41 615.05,215.7C613.49,215.77 611.99,215.94 610.63,216.17C609.27,216.4 608.05,216.7 607.04,217.05C605.04,217.75 603.82,218.64 603.9,219.55C603.96,220.21 605.29,220.71 607.41,220.98C608.47,221.12 609.71,221.2 611.08,221.22C612.45,221.24 613.95,221.19 615.51,221.08C622.68,220.56 627.17,219.37 627.17,218.48Z" style="fill:rgb(230,230,230);fill-rule:nonzero;"/>
            <path d="M784.16,216.56C784.16,217.7 779.44,218.34 773.21,218.34C766.98,218.34 761.96,217.2 761.96,216.06C761.96,211.67 766.64,212.94 772.86,212.94C779.08,212.94 784.16,215.43 784.16,216.56Z" style="fill:rgb(230,230,230);fill-rule:nonzero;"/>
            <path d="M709.7,17.21C709.7,12.55 701.48,8.77 691.35,8.77C681.22,8.77 673.06,13.02 673,17.68C672.88,26.25 682.31,19.51 688.09,20.83C691.09,21.51 691.82,25.1 692.58,25.1C692.98,25.1 695.31,21.32 698.54,20.32C703.04,18.94 709.7,19.92 709.7,17.21Z" style="fill:rgb(230,230,230);fill-rule:nonzero;"/>
            <path d="M690.78,168.81C689.64,85.54 684.52,40.71 692.58,25.1C696.7,19.53 707.82,16.96 709.81,8.35C710.21,5.69 710.09,6.03 710.28,6C710.24,19.48 729.66,19.61 742.8,26.71C746.74,29.43 753.7,32.09 756.38,34.75C765.2,44.02 764.41,58.02 769.07,69.18C770.97,77.48 769.44,86.42 772.89,94.48C774.43,98.76 774.38,103.38 775.12,107.83C776.14,112.17 778.65,115.96 779.64,120.34C779.58,127.2 779.83,133.78 781.98,140.71C783.01,152.12 784.29,163.96 785.09,175.39C785.4,183.89 783.86,189.37 784.08,198.45C784.43,208.13 784.19,216.13 784.19,216.13C781.07,212.64 765.51,211.89 761.74,215.25C761.85,217.02 761.37,192.87 762.28,187.64C763.88,178.13 757.45,169.96 756.52,160.73C755.95,158.25 755.35,155.78 754.7,153.31C753.44,147.97 753.93,142.32 752.29,137.24C752.21,136.09 751.62,134.34 752.22,133.32C752.33,132.53 752.16,131.77 751.23,131.4C750.89,130.36 751.78,129.41 752.3,128.49C752.25,128.32 752.2,128.06 752.04,127.97C749.87,127.92 751.62,126.17 751.28,124.79C750.45,119.35 748.17,113.12 746.24,107.57C744.62,105.15 745.21,101.64 742.87,99.31C740.89,101.53 744.59,104.06 741.85,105.83C741.86,106 741.87,106.17 741.89,106.33C742.87,107.48 743.46,108.65 742.2,110.38C741.2,118.01 741.56,125.48 740.77,132.96C740.47,135.14 740.48,137.42 742.11,139.14C741.68,143.13 739.09,148.27 742.33,151.5C740.73,161.29 742.67,177.1 738.89,185.4C729.43,207.16 657.63,204.3 649.72,183.26C647.77,178.07 646.57,164.32 647.2,155.91C647.18,155.2 647.25,154.47 646.84,153.8C645.4,149.53 647.73,144.86 644.67,140.65C643.06,136.98 645.28,132.98 644.36,129.17C643.65,127.93 641.9,126.76 643.69,124.86C645.27,119.94 643.5,114.61 643.39,109.54C642.13,109.01 643.56,107.17 642.81,106.34C640.73,105.55 642.75,103.56 641.87,102.04C640.72,101.07 640.72,99.9 641.05,98.89C640.67,97.28 640.31,95.66 640.14,94.06C641.16,104.73 635.79,114.89 633.81,125.24C633.45,127.25 631.73,129.52 632.87,131.31C633.04,132.53 631.88,133.19 631.2,134C631.96,134.35 630.79,134.93 630.65,135.74C631.34,136.85 629.78,137.54 630.65,139.52C632.78,152.86 626.74,165.42 627.47,178.69C627.77,184.45 625.6,190.41 626.36,196.27C628.09,199.4 627.48,214.93 627.55,218.46C624.46,214.66 607.85,215.34 603.84,218.89C603.2,206.4 605.33,192.71 603.85,180.04C602.32,170.13 601.59,159.3 601.15,149.37C599.97,140.26 601.8,132.15 604.25,123.52C603.35,122.08 603.94,120.92 604.9,120.21C605.12,119.35 605.06,118.36 604.91,117.63C604.04,116.16 605.25,114.83 605.94,113.15C606.61,109.39 607.8,105.82 608.71,102.18C610.91,92.56 611.22,82.64 613.27,73.01C614.84,66.07 615.06,58.65 617.24,51.87C618.88,46.86 619.76,47.56 623.45,38.15C625.99,24.65 671.73,23.42 673.13,9.2C672.09,1.86 671.84,9.15 675.63,13.85C681.11,20.65 689.01,18.58 692.61,25.11" style="fill:none;fill-rule:nonzero;stroke:black;stroke-width:1px;stroke-linejoin:round;"/>
            <path d="M675.45,23.26C676.85,24.29 678.07,25.67 681.06,26.51C685.37,27.73 688.1,27.58 691.11,27.52" style="fill:none;fill-rule:nonzero;stroke:black;stroke-width:1px;"/>
            <path d="M691.47,26.92C694.07,27.01 698.63,27.14 702.77,25.95C705.64,25.13 707.39,23.63 708.73,21.87" style="fill:none;fill-rule:nonzero;stroke:black;stroke-width:1px;"/>
            <path d="M694.5,0.62C699.25,0.93 704.32,1.54 708.6,3.6C708.92,3.75 709.25,3.93 709.45,4.23C709.66,4.54 709.68,4.94 709.69,5.31C709.76,7.36 709.27,10.31 709.35,12.36C709.37,12.78 709.33,13.29 708.96,13.48C708.7,13.62 708.37,13.58 708.11,13.44C704.51,11.64 701.72,10.44 697.72,9.77C693.72,9.1 688.2,9.01 684.05,9.81C680.12,10.57 677.04,11.82 673.26,14.45C672.39,11.88 671.79,8.75 672.08,6.01C672.33,3.7 674.54,3.19 676.51,2.57C682.26,0.77 688.55,0.23 694.5,0.62Z" style="fill:white;fill-rule:nonzero;stroke:black;stroke-width:1px;"/>
            <path d="M684.86,19.67C680.96,18.58 676.61,21.8 670.06,29.39C667.02,25.75 664.07,21.87 667.25,15.79L672.28,5.27C673.28,9.84 678.64,14.83 684.86,19.67Z" style="fill:white;fill-rule:nonzero;stroke:black;stroke-width:1px;"/>
            <path d="M700.04,19.28C703.49,16.9 713.89,29.79 713.89,29.79C713.89,29.79 718.93,19.21 716.5,15.11L709.7,4.62C709.4,9.62 704.74,14.05 700.04,19.28Z" style="fill:white;fill-rule:nonzero;stroke:black;stroke-width:1px;"/>
            <path d="M743.49,99.66C743.45,99.45 743.41,99.24 743.37,99.04C743.35,98.94 743.33,98.83 743.31,98.73C745.79,96.99 743.45,95.24 743.16,93.57C743.2,93.42 743.24,93.28 743.28,93.14C743.33,93 743.38,92.86 743.43,92.73C743.45,92.65 743.48,92.57 743.5,92.5C743.58,92.26 743.66,92.03 743.76,91.79C743.77,91.53 743.74,91.29 743.69,91.06C743.64,90.84 743.58,90.63 743.5,90.44C743.42,90.25 743.34,90.06 743.27,89.88C743.19,89.7 743.13,89.52 743.08,89.33C743.04,89.14 743.01,88.95 742.99,88.76C742.98,88.56 742.99,88.36 742.99,88.16C743,87.96 743.01,87.77 743.02,87.58C743.52,81.79 745.42,72.12 748.52,67.21" style="fill:none;fill-rule:nonzero;stroke:black;stroke-width:1px;"/>
            <path d="M640.01,94.11C640.05,92.27 640.51,90.46 640.48,88.62C640.46,87.55 640.28,86.49 640.1,85.44C639.81,83.73 639.51,82.02 639.21,80.31C638.71,77.39 638.2,74.46 637.27,71.65" style="fill:none;fill-rule:nonzero;stroke:black;stroke-width:1px;"/>
            <circle cx="694.86" cy="140.61" r="1.79" style="fill:none;stroke:black;stroke-width:1px;"/>
            <circle cx="695.26" cy="166.66" r="1.79" style="fill:none;stroke:black;stroke-width:1px;"/>
            <circle cx="693.65" cy="89.88" r="1.79" style="fill:none;stroke:black;stroke-width:1px;"/>
            <circle cx="694.12" cy="116.07" r="1.79" style="fill:none;stroke:black;stroke-width:1px;"/>
            <circle cx="693.29" cy="41.03" r="1.79" style="fill:white;stroke:black;stroke-width:1px;"/>
            <circle cx="693.29" cy="65.53" r="1.79" style="fill:none;stroke:black;stroke-width:1px;"/>
            <path d="M646.92,159.36C647.36,159.81 650.11,161.33 654.68,162.69C663.73,165.37 679.24,168.96 694.94,168.88C706.62,168.82 715.04,168.81 721.26,167.58C729.01,166.05 733.7,164.71 738.15,162.67C739.44,162.07 740.25,161.44 740.75,160.87C741,160.58 741.18,160.31 741.3,160.06C742.28,161.21 741.11,158.29 742.14,159.37C742.34,159.64 742.54,159.99 742.73,160.44C743.51,162.23 744.16,165.51 744.04,171.11C743.96,174.97 744.98,175.67 746.9,181.3C748.55,186.13 749.37,189.71 751.01,196.85C752.69,204.15 753.52,207.84 753.15,209.72C752.52,212.96 751.04,215.06 750.47,220.26C750.17,223.02 750.29,225.26 750.29,225.26L636.63,225.62C636.63,225.62 636.9,223.55 636.99,204.89C637.04,194.48 637.09,192.7 637.88,188.63C639.62,179.67 645.84,176.97 645.56,171.65C645.15,163.14 646.45,160.02 646.92,159.36Z" style="fill:rgb(179,179,179);fill-rule:nonzero;stroke:black;stroke-width:1px;"/>
            <path d="M645.31,169.18C645.31,169.18 645.07,171.8 652.18,174.28C659.29,176.76 686.76,181.85 686.76,181.85L686.83,171.2C686.83,171.2 667.57,169.06 654.39,164.03C649.62,162.21 646.44,159.81 646.44,159.81C645.4,162.67 645.07,164.48 645.31,169.18Z" style="fill:rgb(102,102,102);fill-rule:nonzero;stroke:black;stroke-width:1px;"/>
            <path d="M744.09,169.06C744.09,169.06 743.25,172.26 737.08,175.3C731.89,177.86 721.51,180.71 711.52,181.95C699.45,183.44 688.01,183.05 688.01,183.05L687.94,172.4C687.94,172.4 699.16,172.97 711.35,171.48C721.04,170.3 731.28,167.44 737.44,164.67C742.1,162.58 742.78,160.14 742.78,160.14C743.59,161.68 744.32,164.37 744.09,169.06Z" style="fill:rgb(102,102,102);fill-rule:nonzero;stroke:black;stroke-width:1px;"/>
            <path d="M692.94,225.44C692.7,221.85 692.41,216.91 692.4,209.8C692.4,192.84 692.78,194.26 692.94,187.55C693.1,180.82 692.57,174.5 692.58,169.86C692.58,169.33 693.25,169.16 693.47,168.97" style="fill:none;fill-rule:nonzero;stroke:black;stroke-width:1px;"/>
            <path d="M687.94,183.12L687.94,172.34C692.33,172.59 697.26,172.55 702.5,172.34L702.5,171.42C702.5,171.18 702.3,170.99 702.06,171C696.89,171.25 691.78,171.27 686.74,171.02C686.34,171 686.01,171.31 686.01,171.71L686.01,183.63C686.01,184.01 686.31,184.32 686.69,184.33C692.08,184.5 697.24,184.35 702.1,184.13C702.32,184.12 702.5,183.94 702.5,183.71L702.5,182.93C697.36,183.14 692.46,183.36 687.94,183.12Z" style="fill:white;fill-rule:nonzero;stroke:black;stroke-width:1px;"/>
            <path d="M668,179.54L665.42,179.1C665.13,174.43 665.67,170.2 667.06,165.8L669.77,166.35C669.77,166.35 668.98,168.85 668.39,172C667.66,175.9 668,179.54 668,179.54Z" style="fill:rgb(179,179,179);fill-rule:nonzero;stroke:black;stroke-width:1px;"/>
            <path d="M735.2,169.05C734.06,168.89 730.86,168.68 723.47,170.07C720.31,170.67 717.13,171.17 713.95,171.68C705.04,173.1 700.11,173.04 697.9,173.03C692.09,173.03 687.93,172.39 687.93,172.39L688,183.04C688,183.04 690.43,183.59 697.84,183.38C704.94,183.18 707.64,182.54 714.39,181.55C720.02,180.72 722.1,180.14 724.49,179.53C731.66,177.68 733.8,174.81 735.14,173.73C736.48,172.67 736.34,169.21 735.2,169.05Z" style="fill:rgb(102,102,102);fill-rule:nonzero;stroke:black;stroke-width:1px;"/>
            <path d="M708.06,182.79L710.65,182.52C710.94,177.85 711.43,175.57 710.03,171.17L707.52,171.44C707.52,171.44 708.17,174.03 708.29,177.23C708.44,180.91 708.06,182.79 708.06,182.79Z" style="fill:rgb(102,102,102);fill-rule:nonzero;stroke:black;stroke-width:1px;"/>
            <rect x="686.82" y="177.36" width="2.37" height="0.92" style="fill:white;stroke:black;stroke-width:1px;"/>
            <path d="M719.79,181.56L722.37,181.12C722.66,176.45 722.33,172.04 720.93,167.64L718.37,168.04C718.37,168.04 718.98,170.43 719.57,173.58C720.31,177.49 719.79,181.56 719.79,181.56Z" style="fill:rgb(179,179,179);fill-rule:nonzero;stroke:black;stroke-width:1px;"/>
        </g>
    </g>
</svg>
