<?xml version="1.0" encoding="UTF-8" standalone="no"?>
<!DOCTYPE svg PUBLIC "-//W3C//DTD SVG 1.1//EN" "http://www.w3.org/Graphics/SVG/1.1/DTD/svg11.dtd">
<svg width="100%" height="100%" viewBox="0 0 191 236" version="1.1" xmlns="http://www.w3.org/2000/svg" xmlns:xlink="http://www.w3.org/1999/xlink" xml:space="preserve" xmlns:serif="http://www.serif.com/" style="fill-rule:evenodd;clip-rule:evenodd;stroke-miterlimit:10;">
    <g transform="matrix(1,0,0,1,-398.365,4.52472)">
        <g>
            <path d="M584.33,207.3L561.79,207.3L561.79,215.83C561.52,219.36 584.33,219.36 584.33,216.72L584.33,207.3Z" style="fill:white;fill-rule:nonzero;stroke:black;stroke-width:1px;"/>
            <path d="M427.58,212.65L403.39,213.08L403.9,219.52C403.63,223.05 427.58,221.11 427.58,218.47L427.58,212.65Z" style="fill:white;fill-rule:nonzero;stroke:black;stroke-width:1px;"/>
            <path d="M490.83,168.81C488.4,93.16 487.87,37.88 489.78,31.18C490.8,27.6 492.64,25.1 492.64,25.1C495.3,21.5 497.4,21.71 501.75,17.95C504.29,15.75 509.09,13.41 509.86,8.34C510.26,5.68 510.14,6.02 510.33,5.99C510.66,5.95 509.17,9.89 514.44,14.9C514.62,15.07 515.01,15.79 516.23,16.33C523.31,19.46 531.56,21.66 542.86,26.7C544.69,27.51 544.93,28.07 547.33,29.38C551.91,31.89 554.01,32.34 556.44,34.74C556.98,35.27 557.81,36.17 558.94,37.96C563.85,45.71 565.37,54.58 565.37,54.58C569.06,65.18 569.4,77.61 571.45,89.61C572.82,97.65 573.79,101.88 575.38,108.91C575.86,111.03 578.08,112.9 579.13,116.59C580.34,120.83 579.87,123.78 579.84,127.31C579.8,132.91 580.91,135.44 582.52,142.86C584,149.65 586.42,160.75 586.45,172.7C586.49,185.73 583.65,185.19 584.13,198.43C584.48,208.11 584.24,216.11 584.24,216.11C584.24,216.11 581.89,214.07 578.59,213.66C575.37,213.26 571.4,212.84 567.26,213.3C563.52,213.71 561.8,215.23 561.8,215.23L561.8,197.9C561.8,187.13 562.95,185.98 562.69,183.78C562.17,179.38 561.25,179.08 558.04,169.48C555.01,160.41 553.37,153.27 553.04,151.79C551.73,146.03 551.97,145.58 550.54,139.64C548.86,132.66 548.41,132.75 546.97,126.77C545.02,118.71 544.65,117.88 544.65,111.72C544.65,110.06 544.52,110.93 543.59,114.25C543.28,115.36 542.29,116.69 540.89,119.61C539.71,122.08 539.14,123.43 539.28,125.15C539.38,126.42 539.75,126.32 540.17,128.19C540.74,130.67 540.27,131.58 540.53,134.44C540.76,137 541.19,136.88 541.42,139.09C541.74,142.15 541.05,143.71 540.71,146.42C540.19,150.43 540.91,153.16 541.25,155.53C542.18,162.17 541.82,178.71 538.93,185.37C529.47,207.13 457.67,204.27 449.75,183.23C447.91,178.33 446.53,164.48 447.25,156.6C447.39,155.11 447.91,150.34 446.36,144.45C445.7,141.95 445.44,142.2 444.75,139.8C444.07,137.46 443.51,134.41 444.04,120.86C444.21,116.42 444.3,115.95 444.04,114.61C443.29,110.79 441.61,109.74 440.82,105.5C440.24,102.34 440.66,100.15 440.46,100.14C440.13,100.11 439.67,106.34 438.14,114.79C436.54,123.61 435.74,128.02 434.03,130.52C433.2,131.74 431.76,133.53 431.53,136.24C431.32,138.7 432.26,140.01 432.78,142.14C433.66,145.78 432.43,148.25 430.99,153.22C430.02,156.59 429.39,160.41 428.13,168.05C426.54,177.71 427.65,175.85 426.16,185.03C425.77,187.47 425.25,190.33 425.8,194.14C426.21,196.92 427.59,200.39 427.59,200.39L427.59,218.44C427.36,216.87 423.23,216.4 418.82,216.04C411.19,215.41 404.21,218.29 403.86,219.33C403.86,219.33 403.1,211.38 402.74,197.89C402.48,188.22 401.65,188.84 401.13,175.37C400.92,169.82 401.06,169.82 400.77,160C400.41,147.55 400.16,146.98 400.23,143.74C400.44,134.81 402.54,130.37 405.41,119.97C409.73,104.3 411.35,91.3 412.2,84.41C413.75,71.88 413.61,64.81 416.49,54.39C418.69,46.43 419.24,48.88 423.46,38.13C423.95,36.88 424.98,34.21 427.57,32.23C429.26,30.94 430.98,30.59 431.68,30.26C439.42,26.71 455.74,21.87 466.71,17.04C469.32,15.89 473.08,12.76 473.14,9.18C473.17,7.56 472.4,5.97 472.43,5.96C472.47,5.95 472.84,10.34 475.65,13.82C478.38,17.21 482.66,18.89 484.59,19.54C486.45,20.17 487.13,20.2 488.41,20.97C491.52,22.85 491.09,23.09 492.63,25.08" style="fill:white;fill-rule:nonzero;"/>
            <path d="M475.5,23.26C476.9,24.29 478.11,25.67 481.11,26.51C485.42,27.73 488.15,27.58 491.16,27.52" style="fill:white;fill-rule:nonzero;stroke:black;stroke-width:1px;"/>
            <path d="M491.51,26.92C494.11,27.01 498.67,27.14 502.81,25.95C505.68,25.13 507.43,23.63 508.77,21.87" style="fill:white;fill-rule:nonzero;stroke:black;stroke-width:1px;"/>
            <path d="M484.91,19.67C481.01,18.58 476.66,21.8 470.11,29.39C467.07,25.75 464.12,21.87 467.3,15.79L472.33,5.27C473.33,9.84 478.69,14.83 484.91,19.67Z" style="fill:white;fill-rule:nonzero;stroke:black;stroke-width:1px;"/>
            <path d="M500.09,19.28C503.54,16.9 513.94,29.79 513.94,29.79C513.94,29.79 518.98,19.21 516.55,15.11L509.75,4.62C509.45,9.62 504.78,14.05 500.09,19.28Z" style="fill:white;fill-rule:nonzero;stroke:black;stroke-width:1px;"/>
            <g>
                <path d="M550.35,120.95C550.41,120.7 550.47,120.45 550.53,120.19C550.47,120.22 550.4,120.24 550.34,120.26C550.34,120.49 550.34,120.72 550.35,120.95Z" style="fill:none;fill-rule:nonzero;"/>
                <path d="M538.53,123.06C538.43,123.04 538.34,123 538.24,122.96L538.31,123.16C538.47,123.38 538.78,123.49 539.08,123.46C539.07,123.35 539.06,123.23 539.05,123.12C538.89,123.11 538.72,123.1 538.53,123.06Z" style="fill:none;fill-rule:nonzero;"/>
                <path d="M576.25,135C576.26,135 575.9,135.18 575.9,135.18C576.05,135.23 576.22,135.14 576.25,135Z" style="fill:none;fill-rule:nonzero;"/>
                <path d="M546.31,98.46C546.31,98.46 546.3,98.46 546.31,98.46C546.3,98.47 546.3,98.48 546.3,98.49L546.31,98.46Z" style="fill:none;fill-rule:nonzero;"/>
                <path d="M546.25,99.89C546.26,99.64 546.28,99.39 546.28,99.14C546.29,98.96 546.29,98.78 546.29,98.6C546.31,98.56 546.32,98.51 546.34,98.47C546.47,98.49 546.6,98.5 546.74,98.5C546.79,98.03 546.84,97.56 546.9,97.09C552.11,84.37 560.1,72.4 560.94,58.73C559.87,58.6 559.01,59.56 558.38,60.43C551.31,70.2 546.61,81.63 544.51,93.5C544.51,93.51 544.51,93.53 544.5,93.54C543.48,90.65 544.08,87.32 544.71,84.25C545.82,78.87 546.98,73.35 549.91,68.7C551.14,66.75 552.72,64.74 552.49,62.45L551.91,63.69C552.36,62.37 552.55,60.97 552.44,59.58C549.11,62.77 547.56,67.36 546.32,71.81C545.14,76.04 544.13,80.32 543.3,84.64C542.62,88.18 542.06,91.85 542.7,95.37C542.8,97.68 543.1,100.02 542.6,102.28C542.47,102.89 542.27,103.48 542.05,104.05C540.89,99.62 537.39,96.22 535.11,92.24C533.56,89.54 532.54,86.51 530.6,84.07C528.66,81.63 525.34,79.87 522.43,80.98C524.2,85.97 527.24,90.52 531.17,94.06C533.53,96.19 536.23,97.99 538.17,100.5C539.56,102.29 540.47,104.41 540.91,106.63C540.59,107.32 540.28,108 540.01,108.71C538.98,111.4 538.66,114.26 538.67,117.15C536.4,111.93 537.75,105.34 534.34,100.78C533.29,99.38 531.54,98.23 529.87,98.75C529.06,99 534.47,114.39 535.01,115.83C535.53,117.2 536.57,122.07 538.2,122.93C538.22,123 538.24,123.07 538.29,123.13L538.22,122.93C538.31,122.98 538.41,123.01 538.51,123.03C538.7,123.07 538.87,123.08 539.02,123.08C539.03,123.19 539.04,123.31 539.05,123.42C539.14,123.41 539.23,123.39 539.31,123.36C539.33,123.35 539.35,123.33 539.37,123.32C539.6,122.28 540.1,121.17 540.85,119.62C542.25,116.7 543.24,115.36 543.55,114.26C544.47,110.93 544.61,110.06 544.61,111.73L544.61,112.51C545.01,111.36 545.36,110.2 545.64,109.01C546.38,106.05 546.65,102.91 546.25,99.89ZM546.31,98.46L546.3,98.49C546.3,98.48 546.3,98.47 546.31,98.46C546.3,98.46 546.31,98.46 546.31,98.46Z" style="fill:rgb(230,230,230);fill-rule:nonzero;"/>
                <path d="M501.17,82.54C500.59,82.93 500.02,83.4 499.81,84.06C499.37,85.45 500.8,86.79 502.23,87.09C503.66,87.39 505.16,87.08 506.59,87.36C507.86,87.61 509,88.31 510.07,89.05C514.72,92.27 518.66,96.51 521.54,101.38C522.56,103.1 523.45,104.92 524.73,106.46C526.01,108 527.75,109.28 529.74,109.49C527.84,100.86 524.24,92.62 519.2,85.36C518.72,84.67 518.18,83.95 517.39,83.65C517.28,83.61 517.17,83.58 517.06,83.57L517.54,83.31C513.01,79.6 506.03,79.27 501.17,82.54Z" style="fill:rgb(230,230,230);fill-rule:nonzero;"/>
                <path d="M535.25,80.85C529.99,78.96 536.81,88.52 537.44,90.02C537.99,91.34 538.31,92.77 539.01,94.02C539.34,94.61 539.86,95.21 540.54,95.22C541.52,95.23 542.04,94.07 542.14,93.1C542.57,88.78 539.61,82.41 535.25,80.85Z" style="fill:rgb(230,230,230);fill-rule:nonzero;"/>
                <path d="M542.5,81.28C542.46,79.87 541.36,75.01 539.31,75.08C537.04,75.16 539.94,80.49 540.62,81.44C540.83,81.73 541.06,82.02 541.38,82.17C541.7,82.32 542.14,82.29 542.35,82C542.5,81.81 542.51,81.53 542.5,81.28Z" style="fill:rgb(230,230,230);fill-rule:nonzero;"/>
                <path d="M542.07,75.38C542.11,77.13 542.64,78.93 543.83,80.22C543.27,79.62 546.35,73.29 545.67,71.52C545.33,70.62 543.88,69.33 542.97,69.96C542.09,70.57 542.04,74.4 542.07,75.38Z" style="fill:rgb(230,230,230);fill-rule:nonzero;"/>
                <path d="M546.23,54.37C540.29,51.36 544.1,65.79 545.26,67.77C545.4,68.01 545.56,68.26 545.82,68.36C546.16,68.49 546.55,68.31 546.77,68.02C546.99,67.73 547.08,67.37 547.14,67.01C547.65,64.28 547.38,61.49 547.51,58.73C547.58,57.11 547.93,55.24 546.23,54.37Z" style="fill:rgb(230,230,230);fill-rule:nonzero;"/>
                <path d="M537.44,125.45C535.31,122.88 533.01,120.19 529.83,119.17C527.61,118.46 525.21,118.65 522.88,118.85C521.41,118.98 519.94,119.11 518.47,119.23C517.87,119.28 517.25,119.35 516.76,119.7C516.28,120.05 516.03,120.8 516.41,121.26C518.56,121.31 520.95,120.41 523.1,120.55C526.24,120.76 529.01,122.73 531.19,125C533.37,127.27 535.17,129.91 537.47,132.06C537.71,132.29 537.97,132.51 538.28,132.61C538.9,132.8 539.59,132.4 539.9,131.83C540.21,131.26 540.2,130.56 540.06,129.93C539.71,128.21 538.55,126.79 537.44,125.45Z" style="fill:rgb(230,230,230);fill-rule:nonzero;"/>
                <path d="M527.11,135.85C523.89,136.46 520.7,137.23 517.56,138.17C515.01,138.94 512.01,139.75 509.86,138.16C508.78,137.37 508.13,136.08 507,135.35C505.38,134.31 505.06,133.34 504.12,134.91C503.4,134.45 502.35,134.53 501.83,135.21C501.28,135.94 501.45,137.1 502.19,137.64C502.97,138.21 504.03,138.03 504.99,138.05C508.82,138.13 512.19,141.6 515.96,140.93C516.91,140.76 517.79,140.33 518.69,139.95C521.52,138.76 524.58,138.12 527.65,138.07C528.48,138.06 529.56,137.9 529.72,137.08C529.83,136.52 529.36,135.98 528.82,135.8C528.28,135.62 527.67,135.75 527.11,135.85Z" style="fill:rgb(230,230,230);fill-rule:nonzero;"/>
                <path d="M534.43,164.84C534.33,164.46 533.97,164.21 533.63,164C533.52,163.93 533.4,163.87 533.28,163.8C533.71,164.3 534.07,164.85 534.35,165.42C534.45,165.25 534.49,165.06 534.43,164.84Z" style="fill:rgb(230,230,230);fill-rule:nonzero;"/>
                <path d="M529.34,161.74C524.35,159.5 518.89,158.34 513.42,158.32C509.91,158.31 506.51,158.84 503.11,159.67C502.16,159.91 500.75,159.99 500.13,160.86C499.63,161.56 500.31,165.34 500.5,165.23C504.85,162.62 509.79,160.4 514.84,160.98C518.01,161.34 520.96,162.77 523.93,164.05C524.11,163.98 524.28,163.91 524.46,163.83C526.07,163.06 527.59,161.82 529.34,161.74Z" style="fill:rgb(230,230,230);fill-rule:nonzero;"/>
                <path d="M537.45,161.26C537.62,161.1 537.69,160.87 537.75,160.64C537.92,159.97 537.99,159.18 537.56,158.64C536.86,157.74 535.45,158.11 534.33,157.88C532.75,157.55 531.79,155.98 530.45,155.1C529.61,154.54 528.61,154.26 527.64,153.99C527.35,153.91 527.05,153.83 526.75,153.88C526.71,153.89 526.68,153.91 526.64,153.92C526.38,153.86 526.11,153.8 525.85,153.74C524.32,153.39 522.43,153.16 521.44,154.38C522.37,155.69 523.76,156.67 525.3,157.1C527.39,157.69 529.74,157.33 531.64,158.39C533.41,159.37 534.69,161.52 536.71,161.5C536.97,161.5 537.25,161.44 537.45,161.26Z" style="fill:rgb(230,230,230);fill-rule:nonzero;"/>
                <path d="M540.51,158.24C540.64,156.89 540.23,155.56 539.82,154.27C539.6,153.58 539.35,152.84 538.8,152.37C537.7,151.42 532.96,151.91 533.73,153.71C534.35,155.17 537.94,154.96 539.03,156.85C539.39,157.47 539.79,158.3 540.51,158.24Z" style="fill:rgb(230,230,230);fill-rule:nonzero;"/>
                <path d="M538.7,147.55C538.43,148.23 538.28,149.03 538.61,149.69C538.94,150.34 539.94,150.66 540.43,150.12C540.48,150.07 540.51,150.01 540.54,149.95C540.5,148.89 540.53,147.74 540.7,146.45C540.78,145.79 540.89,145.2 541,144.64C540.97,144.6 540.95,144.55 540.92,144.51C539.94,145.31 539.16,146.36 538.7,147.55Z" style="fill:rgb(230,230,230);fill-rule:nonzero;"/>
                <path d="M541.05,144.37L540.9,144.46C540.91,144.47 540.92,144.48 540.92,144.49C540.96,144.46 541,144.42 541.04,144.39C541.04,144.39 541.05,144.38 541.05,144.37Z" style="fill:rgb(230,230,230);fill-rule:nonzero;"/>
                <path d="M540.29,128.86L539.4,126.31C539.56,127.29 539.82,128.24 540.33,129.08C540.32,129.01 540.3,128.93 540.29,128.86Z" style="fill:rgb(230,230,230);fill-rule:nonzero;"/>
                <path d="M539.4,126.31C539.32,125.8 539.26,125.29 539.21,124.78C539.16,124.34 539.12,123.9 539.07,123.45C538.78,123.48 538.46,123.37 538.3,123.15L539.4,126.31Z" style="fill:rgb(230,230,230);fill-rule:nonzero;"/>
                <path d="M554.67,53.31C551.62,52.76 553.96,60.62 554.23,62.33C554.25,62.44 554.28,62.57 554.39,62.61C554.45,62.63 554.52,62.61 554.58,62.58C555.89,62 556.06,57.65 556.17,56.41C556.29,55.16 556.34,53.62 554.67,53.31Z" style="fill:rgb(230,230,230);fill-rule:nonzero;"/>
                <path d="M556.08,44.22C556.31,44.21 556.53,44.28 556.72,44.41C557.01,44.24 557.32,44.11 557.66,44.08L556.08,44.22Z" style="fill:rgb(230,230,230);fill-rule:nonzero;"/>
                <path d="M555.37,46.1C555,47.11 555.01,48.21 555.03,49.29C555.04,49.72 555.06,50.19 555.37,50.49C555.79,50.9 556.55,50.71 556.92,50.26C557.29,49.81 557.38,49.19 557.43,48.6C557.49,47.87 557.51,47.14 557.49,46.41C557.48,45.92 557.44,45.42 557.22,44.98C557.11,44.75 556.93,44.55 556.71,44.4C556.1,44.78 555.62,45.41 555.37,46.1Z" style="fill:rgb(230,230,230);fill-rule:nonzero;"/>
                <path d="M555.89,102.48C555.91,102.46 555.92,102.44 555.94,102.42C555.92,102.39 555.87,102.4 555.89,102.48Z" style="fill:rgb(230,230,230);fill-rule:nonzero;"/>
                <path d="M552.2,133.47C555.58,130.66 558.27,127.04 559.98,122.99C559,123.19 557.96,123.39 557.01,123.07C556.06,122.76 555.26,121.73 555.57,120.78C555.72,120.31 556.09,119.96 556.45,119.63C559.27,117.05 562.6,114.17 562.53,110.35C560.18,111.08 557.91,112.04 555.75,113.22C555.46,110.56 557.75,108.44 559.44,106.35C561.73,103.52 563.14,99.99 563.43,96.36C561.78,95.8 559.99,96.85 558.88,98.19C557.79,99.51 557.09,101.13 555.95,102.42C555.97,102.44 555.97,102.47 555.91,102.5C553.06,103.91 551.67,106.97 550.26,109.82C549.84,110.67 549.49,111.56 549.23,112.47C549.2,112.37 549.18,112.27 549.16,112.17C548.78,110.2 549.89,108.25 551.17,106.7C551.69,106.07 552.26,105.45 552.63,104.72C553.23,103.55 553.28,102.18 553.46,100.88C553.9,97.7 555.16,94.73 556.45,91.81C557.1,90.35 559.82,86.7 556.9,86.39C554.39,86.12 553.73,90.25 553.12,91.97C552.08,94.91 551.13,97.91 549.64,100.66C548.6,102.58 547.3,104.38 546.54,106.42C545.86,108.24 545.63,110.19 545.41,112.12C545.21,113.82 545.02,115.55 544.89,117.28C545.18,119.65 545.78,121.88 546.97,126.77C548.25,132.06 548.75,132.6 550.02,137.51C550.18,137.27 550.31,137 550.4,136.74C550.8,135.65 551.02,134.54 551.14,133.41C551.76,133.76 552.66,134.02 552.2,133.47ZM550.35,120.95C550.34,120.72 550.34,120.49 550.34,120.26C550.4,120.25 550.47,120.23 550.53,120.19C550.47,120.45 550.41,120.7 550.35,120.95Z" style="fill:rgb(230,230,230);fill-rule:nonzero;"/>
                <path d="M569.62,108.86C569.26,108.46 565.44,115.38 565.18,115.98C564.79,116.84 561.22,122.88 561.46,123.35C562.36,125.08 565.97,121.13 566.51,120.6C568.75,118.41 571.27,116.31 574.39,115.59C575.61,115.31 577.11,115.08 577.56,113.91C574.52,112.98 571.75,111.22 569.62,108.86Z" style="fill:rgb(230,230,230);fill-rule:nonzero;"/>
                <path d="M578.62,117.36C575.86,119.21 573.33,121 571.24,123.59C570.74,124.21 570.81,124.07 570.94,124.87C572.78,123.13 574.7,121.49 576.7,119.94C576.87,120.89 577.05,121.84 577.22,122.8C577.25,122.98 577.3,123.18 577.45,123.29C577.74,123.49 578.12,123.19 578.32,122.89C579.1,121.76 579.55,120.42 579.65,119.05C579.57,118.54 579.46,118 579.32,117.45C579.13,117.28 578.84,117.22 578.62,117.36Z" style="fill:rgb(230,230,230);fill-rule:nonzero;"/>
                <path d="M568.96,128.42C571.14,129.06 573.44,129.27 575.7,129.05C575.9,128.78 575.52,128.45 575.2,128.33C574.22,127.96 573.24,127.58 572.26,127.21C571.52,126.93 570.74,126.64 569.96,126.76C569.18,126.87 568.41,127.53 568.49,128.32C568.5,128.46 568.54,128.59 568.59,128.72L568.95,128.02C568.91,128.15 568.91,128.29 568.96,128.42Z" style="fill:rgb(230,230,230);fill-rule:nonzero;"/>
                <path d="M555.31,132.87C554.35,133.88 553.51,135.05 553.14,136.39C552.77,137.73 552.93,139.27 553.81,140.35C554.14,140.76 554.59,141.1 555.11,141.18C555.6,141.25 556.08,141.08 556.53,140.88C558.92,139.77 560.62,137.55 562.89,136.2C565.75,134.49 569.25,134.31 572.44,133.34C572.09,132.38 570.83,132.21 569.82,132.06C567.53,131.71 565.42,130.6 563.14,130.23C561.19,129.91 558.9,130.33 557.67,131.77L558.72,130.14C557.47,130.88 556.32,131.81 555.31,132.87Z" style="fill:rgb(230,230,230);fill-rule:nonzero;"/>
                <path d="M580,134.66C580.02,134.52 579.94,134.4 579.86,134.29C579.5,133.8 579.13,133.3 578.77,132.81C578.35,133.08 577.7,133.45 577.17,133.88C575.41,134.4 573.75,135.27 572.32,136.44C571.74,136.91 571.16,137.71 571.57,138.34C574.26,137.23 576.94,136.11 579.63,135C579.79,134.93 579.98,134.84 580,134.66ZM576.25,135C576.21,135.14 576.04,135.23 575.9,135.18C575.9,135.18 576.26,135 576.25,135Z" style="fill:rgb(230,230,230);fill-rule:nonzero;"/>
                <path d="M562,80.21C564.01,77.6 564.63,74.21 565.19,70.96C565.57,68.77 566.58,65.72 566.21,63.51C565.73,60.63 564.84,63.39 564.75,64.96C564.45,70.13 563.52,75.26 562,80.21Z" style="fill:rgb(230,230,230);fill-rule:nonzero;"/>
                <path d="M556.71,156.62C555.93,155.27 554.89,154.02 554.58,152.5C554.53,152.24 554.5,151.97 554.49,151.7C555.58,153.46 557.71,154.82 558.68,156.75C559.14,157.65 559.33,158.67 559.43,159.68C559.76,162.91 559.33,166.51 561.3,169.09C562.9,171.18 571.77,174.36 569.18,169.35C566.89,164.92 563.75,160.75 561.33,156.32C560.49,154.78 559.61,153.24 558.39,151.98C557.33,150.89 555.98,150.02 554.5,149.74C554.54,147.86 554.56,145.11 553.56,143.62C552.12,144.64 552.26,147.41 552.58,149.75C552.71,150.36 552.86,151.04 553.03,151.82C553.33,153.14 554.68,159.02 557.14,166.75C557.3,166.78 557.46,166.75 557.61,166.64C557.8,166.49 557.89,166.24 557.95,166C558.77,162.86 558.32,159.42 556.71,156.62Z" style="fill:rgb(230,230,230);fill-rule:nonzero;"/>
                <path d="M576,174.53C575.65,173.87 574.75,173.4 573.48,173.51C571.05,173.73 567.37,175.05 566.19,177.36C565.97,177.79 565.9,178.37 566.1,178.76C566.06,178.89 566.04,179.03 566.1,179.16C566.25,179.49 566.72,179.45 567.07,179.35C567.59,179.2 568.11,179.04 568.63,178.86C570.61,178.44 572.55,177.85 574.42,177.1C575.73,176.57 576.25,175.73 576.15,175C576.32,174.87 576.5,174.75 576.66,174.61C576.43,174.61 576.21,174.58 576,174.53Z" style="fill:rgb(230,230,230);fill-rule:nonzero;"/>
                <path d="M568.83,182.78C567.84,183.03 566.82,183.14 565.81,183.11C565.61,183.1 565.4,183.09 565.24,182.98C564.99,182.81 564.91,182.48 564.85,182.19C564.85,180.79 564.41,177.94 563.8,176.66C563.2,175.4 562.06,175.11 561.32,173.91C562.07,178.15 563.45,182.42 564.52,186.61C564.95,188.28 565.42,190.04 566.62,191.28C566.8,188.38 571.26,187.2 571.41,184.3C571.44,183.67 571.19,182.97 570.62,182.69C570.08,182.43 569.43,182.63 568.83,182.78Z" style="fill:rgb(230,230,230);fill-rule:nonzero;"/>
                <path d="M500.4,26.74C500.54,26.44 502.94,27.47 503.26,27.56C500.8,30.13 499.11,31.23 496.92,34.14C497.31,34.35 497.77,34.1 498.14,33.86C500.46,32.31 502.82,30.74 505.46,29.83C508.1,28.92 511.1,28.72 513.63,29.91C510.76,26.01 507.27,22.58 503.32,19.77C502.66,19.3 501.9,18.83 501.1,18.96C500.64,19.04 500.24,19.31 499.85,19.58C499.57,19.77 499.31,19.91 499.08,20.01C498.04,20.71 497.15,21.22 496.33,21.74C499.42,21.31 500.63,26.23 500.4,26.74Z" style="fill:rgb(230,230,230);fill-rule:nonzero;"/>
                <path d="M470.31,29.74C470.98,30.46 474.13,30.44 475.08,30.6C475.44,30.66 475.86,30.7 476.13,30.45C476.63,29.98 476.03,29.16 475.42,28.84C474.81,28.52 474.02,28.11 474.1,27.43C474.15,27.07 474.44,26.8 474.62,26.48C474.86,26.06 474.99,25.46 475.47,25.36C475.67,25.32 475.89,25.39 476.08,25.46C477.14,25.86 478.13,26.43 479.01,27.14C480.02,27.95 480.88,28.93 481.89,29.74C482.9,30.55 484.12,31.2 485.42,31.16C486.06,31.14 486.8,30.83 486.88,30.2C486.92,29.82 486.71,29.47 486.46,29.18C485.12,27.64 482.88,27.34 480.84,27.14C480.95,24.76 482.2,22.46 484.15,21.09C484.57,20.79 485.09,20.34 484.88,19.87C484.71,19.48 484.17,19.44 483.74,19.49C479.16,20.05 475.57,23.54 472.35,26.84C471.63,27.59 469.49,28.86 470.31,29.74Z" style="fill:rgb(230,230,230);fill-rule:nonzero;"/>
                <path d="M445.23,130.49C446.94,123.37 452.31,117.24 459.15,114.62C459.64,113.94 459.2,112.91 458.47,112.51C457.74,112.11 456.84,112.17 456.01,112.29C454,112.59 452.04,113.19 450.21,114.06C449.91,109.57 452,105.27 454.32,101.42C456.03,98.58 457.9,95.84 459.91,93.22C461.71,90.88 465.06,88.32 466.24,85.65C466.92,84.1 467,81.47 464.89,81.18C462.49,80.85 459.47,85.71 458.49,87.34C452.47,97.4 448.44,108.49 444.44,119.5C444.3,119.88 444.16,120.27 444.03,120.65C444.03,120.73 444.02,120.8 444.02,120.89C443.82,126.05 443.78,129.69 443.84,132.35C444.66,132.31 445.04,131.3 445.23,130.49Z" style="fill:rgb(230,230,230);fill-rule:nonzero;"/>
                <path d="M473.36,86.15C468.22,83.18 458.58,104.23 456.71,108.13C456.52,108.53 456.33,109.01 456.54,109.4C460.8,104.93 465.04,100.43 469.24,95.91C471.11,93.89 477.95,88.81 473.36,86.15Z" style="fill:rgb(230,230,230);fill-rule:nonzero;"/>
                <path d="M431.72,138.78C431.27,139.73 430.86,140.74 430.31,141.2C429.56,141.82 428.5,141.85 427.53,141.84C427.14,141.84 426.75,141.84 426.38,141.71C425.95,141.55 425.61,141.23 425.24,140.96C423.78,139.87 421.81,139.51 420.06,140.02C419.58,140.16 419.03,140.59 419.26,141.03C419.39,141.28 419.72,141.35 420,141.4C421.46,141.65 422.88,142.17 424.16,142.93C424.84,143.33 425.5,143.81 426.24,144.08C427.71,144.62 429.36,144.33 430.91,144.55C431.56,144.64 432.2,144.82 432.85,144.76C432.92,144.75 432.99,144.73 433.07,144.71C433.08,143.9 432.99,143.07 432.78,142.17C432.45,140.88 431.99,139.89 431.72,138.78Z" style="fill:rgb(230,230,230);fill-rule:nonzero;"/>
                <path d="M440.8,105.52C441.43,108.9 442.62,110.26 443.46,112.6C443.73,112.37 443.85,111.99 443.94,111.63C445.25,106.11 447.22,100.75 449.78,95.68C451.33,92.62 453.2,89.28 453.25,85.72C454.72,84.1 456.22,82.5 457.77,80.95C456.24,80.36 454.53,80.28 452.95,80.72C452.57,80.83 452.19,80.97 451.91,81.24C451.57,81.57 451.43,82.04 451.31,82.49C450.51,83.07 449.6,84.37 448.81,85.58C445.69,90.34 443.37,95.65 441.97,101.16C441.88,101.52 441.79,101.89 441.71,102.26C441.88,99.44 441.98,96.62 441.96,93.79L441.96,93.51C443.68,90.39 449.9,79.61 445.24,80.08C444.14,80.19 442.73,82.33 441.53,84.98C441.48,84.46 441.42,83.93 441.36,83.41C442.17,81.59 442.59,79.6 442.55,77.62L441.69,78.68C442.98,76.92 443.76,74.79 443.89,72.61C443.44,72.31 442.79,72.47 442.39,72.84C441.99,73.21 441.78,73.74 441.6,74.25C441.17,75.44 440.82,76.66 440.54,77.9C440.2,76.07 439.8,74.26 439.33,72.47L439.39,72.47C440.51,70.1 441.62,67.73 442.74,65.36C442.76,65.31 442.78,65.27 442.8,65.22L442.98,65.52C443.48,64.52 443.95,63.2 443.17,62.39C442.62,61.81 441.64,61.84 440.97,62.27C440.3,62.7 439.88,63.43 439.59,64.17C438.81,66.13 438.69,68.26 438.74,70.39C438.26,68.79 437.72,67.2 437.12,65.64C436.36,65.74 436.23,66.79 436.32,67.55C436.65,70.31 437.12,73.06 437.74,75.77C437.72,75.78 437.69,75.78 437.67,75.79C437.84,79.42 438.44,83.03 439.45,86.53C439.53,86.43 439.6,86.34 439.68,86.24C439.57,88.49 439.04,90.72 438.46,92.95C438.43,92.52 438.38,92.11 438.32,91.75C437.92,89.51 437.42,87.28 436.95,85.05C436.38,82.36 435.88,76.79 433.56,75.21C432.57,76.87 432.91,79.1 433.23,80.93C434.13,86.07 435.65,91.09 437.71,95.88C437.62,96.25 437.54,96.62 437.46,96.99C437.19,96.1 436.91,95.21 436.62,94.33C435.98,92.46 435.25,90.62 434.43,88.82C433.83,87.5 432.89,84.4 431.7,83.56C431.24,83.23 430.53,83.54 430.27,84.05C430.01,84.56 430.07,85.17 430.17,85.73C430.6,88.06 431.69,90.22 432.68,92.37C434.2,95.66 435.59,99.04 436.73,102.49C436.48,105.95 436.44,109.45 435.51,112.78C435,114.63 434.22,116.41 433.94,118.3C433.65,120.21 433.73,125.3 435.27,127.25C432.99,128.84 430.74,130.42 428.03,130.7C427.05,130.8 425.76,130.95 425.58,131.91C425.46,132.56 425.99,133.15 426.49,133.58C428.03,134.91 429.75,136.01 431.51,137.04C431.51,136.78 431.51,136.52 431.54,136.23C431.77,133.52 433.21,131.73 434.04,130.51C435.75,128.01 436.55,123.6 438.15,114.78C439.69,106.33 440.15,100.1 440.47,100.13C440.64,100.17 440.22,102.36 440.8,105.52Z" style="fill:rgb(230,230,230);fill-rule:nonzero;"/>
                <path d="M419.17,95.1C421.03,94.23 423.23,94.26 425.19,94.89C427.05,95.49 428.55,96.7 430.18,97.63C431.62,95.22 426.87,90.88 425.05,89.65C423.3,88.47 420.98,87.91 419.05,88.76C417.35,89.51 416.25,91.17 415.33,92.79C414.31,94.58 413.39,96.42 412.55,98.31C415.04,98.53 416.91,96.16 419.17,95.1Z" style="fill:rgb(230,230,230);fill-rule:nonzero;"/>
                <path d="M406.32,120.32C406.76,120.03 407.04,119.56 407.33,119.12C409.06,116.5 413.36,114.36 414.6,111.82C416,108.98 411.59,106.51 408.93,106.76C408.82,106.77 408.71,106.79 408.61,106.81C407.75,110.91 406.71,115.33 405.42,119.99C405.37,120.17 405.32,120.34 405.27,120.52C405.62,120.61 406.01,120.52 406.32,120.32Z" style="fill:rgb(230,230,230);fill-rule:nonzero;"/>
                <path d="M428.77,117.18C425.11,114.7 420.34,114.07 416.1,115.22C414.34,115.7 411.71,116.53 414.05,118.29C416.03,119.78 419.16,118.94 421.43,119.08C424.67,119.29 427.72,121 430.96,120.85C431.26,119.38 430.02,118.03 428.77,117.18Z" style="fill:rgb(230,230,230);fill-rule:nonzero;"/>
                <path d="M423.76,128.12C424.02,128.41 424.47,128.42 424.87,128.4C426.97,128.29 430.82,128.26 432.46,126.88C430.4,124.5 425.85,127.2 423.76,128.12Z" style="fill:rgb(230,230,230);fill-rule:nonzero;"/>
                <path d="M446.44,142.91C446.87,142.23 447,141.41 447.09,140.62C447.39,138.16 447.5,135.68 447.42,133.2C447.37,131.67 446.38,128.99 445.25,131.78C444.56,133.49 444.26,135.29 444.16,137.13C444.32,138.3 444.52,139.1 444.73,139.83C445.3,141.81 445.57,141.98 446.02,143.39C446.19,143.25 446.33,143.09 446.44,142.91Z" style="fill:rgb(230,230,230);fill-rule:nonzero;"/>
                <path d="M447.32,155.73C447.91,155.73 448.52,155.65 449.1,155.56C451.08,155.24 460.03,154.85 456.44,151.24C455.18,149.98 453.28,150.36 452.15,148.9C451.18,147.65 451.25,145.84 450.3,144.56C450.19,144.41 450.06,144.26 449.88,144.19C449.27,143.94 448.76,144.71 448.55,145.34C448.08,146.76 447.66,148.2 447.27,149.65C447.53,152.3 447.42,154.43 447.32,155.73Z" style="fill:rgb(230,230,230);fill-rule:nonzero;"/>
                <path d="M456.11,161.47C456.04,161.24 455.95,161.01 455.88,160.77C455.82,160.55 455.77,160.29 455.89,160.1C456.05,159.85 456.39,159.83 456.68,159.83C459.23,159.84 461.78,159.86 464.32,159.87C467.11,159.89 470.62,159.85 472.42,157.3C473.55,155.71 473.31,154.66 471.43,154.29C466.73,153.38 461.09,157.32 456.45,157.85C455.59,157.95 454.7,158.01 453.92,158.38C453.69,158.49 453.48,158.63 453.28,158.79C453.52,158.95 453.74,159.12 453.94,159.31C454.66,159.99 455.36,160.79 456.11,161.47Z" style="fill:rgb(230,230,230);fill-rule:nonzero;"/>
                <path d="M473.82,166.68C476.02,165.84 478,164.42 480.3,163.88C481.7,163.55 483.16,163.56 484.54,163.16C485.87,162.78 490.02,158.49 486.97,158.98C485.48,159.22 484.01,159.6 482.59,160.12C478.69,161.54 475.08,164.01 471.18,165.22C471.99,165.9 472.84,166.45 473.8,166.68L473.82,166.68Z" style="fill:rgb(230,230,230);fill-rule:nonzero;"/>
                <path d="M488.71,161.95C488.1,163.18 485.16,164.79 484.77,165.91C484.83,165.95 484.89,166 484.94,166.04C486.15,165.61 491.88,163.33 488.71,161.95Z" style="fill:rgb(230,230,230);fill-rule:nonzero;"/>
                <path d="M461.18,131.07C459.22,132.41 457.27,133.75 455.31,135.09C454.07,135.94 452.67,137.28 453.23,138.67C457.7,137.3 460.8,133.11 465.16,131.41C467.43,130.52 469.98,130.39 472.34,130.97C474.32,131.46 477.15,134.43 478.92,134.38C480.4,134.34 481.15,132.51 480.49,131.26C479.55,129.49 475.82,129.11 474.17,128.21C472.96,127.55 471.91,126.61 470.68,125.98C468.08,124.65 465,124.83 462.08,125.05C461.85,123.78 463.17,122.83 464.29,122.19C465.41,121.55 466.68,120.47 466.29,119.24C463.72,118.39 461.26,120.58 459.29,122.43C456.37,125.15 453.11,127.5 449.59,129.39C449.84,130.13 450.67,130.55 451.46,130.57C452.24,130.6 453,130.32 453.75,130.09C456.54,129.22 459.5,128.9 462.41,129.14C462.6,129.94 461.85,130.61 461.18,131.07Z" style="fill:rgb(230,230,230);fill-rule:nonzero;"/>
                <path d="M429.15,138.76C429.29,138.72 429.43,138.68 429.55,138.58C429.92,138.26 429.67,137.66 429.36,137.29C428.84,136.68 428.18,136.18 427.45,135.85C426.77,135.54 426.02,135.37 425.37,135C423.93,134.18 423.17,132.54 421.92,131.46C419.71,129.25 415.46,129.67 412.69,130.2C412.06,130.32 409.31,130.81 409.45,131.97C409.55,132.81 413.36,132.46 414.11,132.48C414.79,132.5 415.48,132.52 416.1,132.78C417.25,133.26 417.92,134.42 418.71,135.38C421.16,138.38 425.42,139.76 429.15,138.76Z" style="fill:rgb(230,230,230);fill-rule:nonzero;"/>
                <path d="M410.19,119.57C408.77,116.91 405.85,122.03 405.54,123.2C405.82,122.12 411.58,122.19 410.19,119.57Z" style="fill:rgb(230,230,230);fill-rule:nonzero;"/>
                <path d="M432.6,147.79C432.47,147.76 432.35,147.74 432.2,147.73C429.44,147.57 427.72,151.3 424.41,150.5C424.32,150.9 424.61,151.32 424.97,151.51C425.33,151.71 425.76,151.74 426.18,151.76C427.78,151.86 429.38,151.97 430.98,152.07C431.1,152.08 431.22,152.07 431.33,152.05C431.83,150.41 432.28,149.04 432.6,147.79Z" style="fill:rgb(230,230,230);fill-rule:nonzero;"/>
                <path d="M421.73,162.15C421.57,162.26 421.4,162.38 421.34,162.56C421.2,162.95 421.58,163.33 421.97,163.48C423.4,164.01 425.51,163.05 426.98,162.88C427.52,162.82 428.37,162.78 429.03,162.54C429.17,161.71 429.31,160.94 429.43,160.22C427.78,158.93 422.82,161.43 421.73,162.15Z" style="fill:rgb(230,230,230);fill-rule:nonzero;"/>
                <path d="M408.08,177.87C407.79,178.13 407.48,178.47 407.58,178.84C407.58,178.82 416.39,178.8 415.69,175.83C414.56,171.11 409.48,176.61 408.08,177.87Z" style="fill:rgb(230,230,230);fill-rule:nonzero;"/>
                <path d="M424.41,174.1C423.4,175.36 422.37,176.65 421.04,177.57C420.12,178.2 419,178.74 418.64,179.8C419.28,180.38 420.29,179.88 420.99,179.36C421.93,178.66 425.38,175.88 427.37,173.32C427.47,172.38 427.62,171.25 427.84,169.82C426.59,171.12 425.52,172.71 424.41,174.1Z" style="fill:rgb(230,230,230);fill-rule:nonzero;"/>
                <path d="M406.95,181.4C405.63,180.86 404.41,180.65 403.07,181.41C401.92,182.07 401.7,182.08 402.43,182.76C403.14,183.42 406.58,184.29 407.6,184.35C410.78,184.53 408.36,181.98 406.95,181.4Z" style="fill:rgb(230,230,230);fill-rule:nonzero;"/>
                <path d="M585.36,181.94C585.33,181.89 585.31,181.84 585.28,181.8L585.32,181.9C585.29,181.86 585.26,181.81 585.22,181.77C584.76,181.22 584.14,180.82 583.51,180.49C580.59,178.98 576.99,178.84 573.97,180.13C573.81,180.2 573.64,180.28 573.52,180.41C573.13,180.87 573.66,181.61 574.25,181.71C574.84,181.81 575.43,181.56 576.03,181.49C577.34,181.34 578.57,182.09 579.68,182.8C580.87,183.57 582.08,184.35 583.03,185.4C583.32,185.72 583.59,186.07 583.99,186.24C584.32,186.38 584.66,186.35 584.98,186.21C585.22,185 585.48,183.83 585.71,182.52C585.61,182.31 585.5,182.12 585.36,181.94Z" style="fill:rgb(230,230,230);fill-rule:nonzero;"/>
                <path d="M576.17,189.92C576.44,189.85 576.74,189.77 576.92,189.55C577.25,189.15 577,188.5 576.57,188.2C576.14,187.9 575.61,187.81 575.12,187.62C574.78,187.48 574.45,187.29 574.09,187.21C573.18,187.02 572.31,187.6 571.61,188.21C570.75,188.95 569.97,189.78 569.27,190.67C570.18,190.92 571.14,190.95 572.06,190.77L571.81,191C573.27,190.64 574.72,190.28 576.17,189.92Z" style="fill:rgb(230,230,230);fill-rule:nonzero;"/>
                <path d="M570.2,193.98L570.03,194.5C570.07,194.51 570.11,194.51 570.16,194.51C570.18,194.34 570.19,194.16 570.2,193.98Z" style="fill:rgb(230,230,230);fill-rule:nonzero;"/>
                <path d="M568.61,191.75C568.5,191.63 568.37,191.51 568.21,191.5C568.02,191.48 567.86,191.62 567.72,191.74C566.54,192.83 565.55,194.11 564.78,195.52C566.52,196.03 568.25,194.3 570.03,194.51C569.82,193.48 569.32,192.51 568.61,191.75Z" style="fill:rgb(230,230,230);fill-rule:nonzero;"/>
                <path d="M570.04,194.5L570.03,194.5L570.04,194.51L570.04,194.5Z" style="fill:rgb(230,230,230);fill-rule:nonzero;"/>
                <path d="M578.56,192.35C578.39,192.12 578.17,191.88 577.89,191.87C577.72,191.87 577.57,191.95 577.42,192.03C576.65,192.44 575.89,192.85 575.12,193.26L575.67,193.15C575.24,193.4 574.86,193.74 574.59,194.15C576.43,194.74 578.35,195.05 580.28,195.06C579.78,194.11 579.2,193.2 578.56,192.35Z" style="fill:rgb(230,230,230);fill-rule:nonzero;"/>
                <path d="M459.84,33.18C459.97,33.75 460.61,34.02 461.16,34.2C468.7,36.67 476.57,38.33 484.48,38.98C485.75,39.08 487.18,39.5 486.44,37.86C485.82,36.48 483.6,36.49 482.38,36.27C478.53,35.56 474.68,34.85 470.83,34.14C467.2,33.48 463.51,32.81 459.84,33.18Z" style="fill:rgb(230,230,230);fill-rule:nonzero;"/>
                <path d="M496.57,39.79C499.14,38.66 501.7,37.54 504.27,36.41C505.08,36.05 505.93,35.67 506.43,34.94C502.96,35.09 494.84,37.04 493.39,40.73C494.42,40.84 495.6,40.22 496.57,39.79Z" style="fill:rgb(230,230,230);fill-rule:nonzero;"/>
                <path d="M420.89,46.98C418.41,47.35 418.34,52.65 418.2,54.49C417.93,58 417.66,61.52 417.39,65.03C417.36,65.46 417.33,65.91 417.53,66.28C417.73,66.66 418.24,66.9 418.6,66.67C420.2,62.51 418.04,57.47 420.09,53.51C420.46,57.38 420.96,61.23 421.58,65.06C422.11,68.33 422.74,71.62 424.1,74.64C424.36,75.21 424.86,75.87 425.46,75.68C424.64,68.25 424.06,60.79 423.73,53.32C423.63,51.65 424.01,46.51 420.89,46.98Z" style="fill:rgb(230,230,230);fill-rule:nonzero;"/>
                <path d="M432.09,73.58C433.96,68.1 434.63,62.22 434.05,56.46C434.04,52.1 432.69,47.74 430.23,44.14C429.5,46.11 429.29,48.23 429.12,50.32C428.69,55.63 428.46,60.97 428.44,66.3C428.43,69.32 428.54,72.52 430.16,75.07C430.97,75.54 431.79,74.47 432.09,73.58Z" style="fill:rgb(230,230,230);fill-rule:nonzero;"/>
                <path d="M415.51,160.29C416.03,159.74 415.68,158.77 415.04,158.35C414.41,157.93 413.61,157.88 412.87,157.73C412.13,157.57 411.41,157.3 410.75,156.92C410.3,156.66 409.78,156.34 409.29,156.51C409.05,156.59 408.87,156.78 408.7,156.96C407.9,157.77 406.61,159.06 406.99,160.25C409.96,159.44 412.39,159.88 415.51,160.29Z" style="fill:rgb(230,230,230);fill-rule:nonzero;"/>
                <path d="M409.71,152.34L409.59,153.26C409.65,153.26 409.71,153.27 409.78,153.27C409.99,153 409.95,152.57 409.71,152.34Z" style="fill:rgb(230,230,230);fill-rule:nonzero;"/>
                <path d="M409.53,153.25C408.95,151.35 407.94,149.59 406.58,148.15C406.5,148.07 406.42,147.98 406.31,147.94C405.87,147.77 405.55,148.38 405.53,148.85C405.43,151.05 407.35,153.11 409.53,153.25Z" style="fill:rgb(230,230,230);fill-rule:nonzero;"/>
                <path d="M409.59,153.26L409.52,153.26C409.53,153.31 409.55,153.36 409.57,153.41L409.59,153.26Z" style="fill:rgb(230,230,230);fill-rule:nonzero;"/>
                <path d="M420.86,170.31C421.38,169.25 416.51,164.27 415.91,163.51C415.59,163.81 412.42,167.58 412.61,167.79C413.5,168.78 420.14,171.76 420.86,170.31Z" style="fill:rgb(230,230,230);fill-rule:nonzero;"/>
                <path d="M418.41,184.55C417.89,183.47 416.51,182.47 415.41,182.08C414.32,181.7 412.32,181.92 413.48,183.57C414.24,184.65 420.01,187.88 418.41,184.55Z" style="fill:rgb(230,230,230);fill-rule:nonzero;"/>
                <path d="M421.02,195.41C421.17,195.46 421.3,195.55 421.42,195.65C422.37,196.38 423.32,197.11 424.27,197.83C424.56,197.26 424.09,196.61 423.69,196.11C422.96,195.21 422.35,194.21 421.87,193.15C421.73,192.84 421.6,192.51 421.6,192.17C421.6,191.78 421.76,191.42 421.91,191.06C423.15,188.14 424.95,182.7 423.35,179.65C422.22,181.48 422.2,184.33 421.66,186.44C421.11,188.59 420.22,190.74 418.57,192.23C418.06,192.69 417.48,193.09 417.15,193.69C416.82,194.29 416.86,195.17 417.44,195.51C417.8,195.72 418.25,195.68 418.67,195.62C419.27,195.54 419.87,195.47 420.46,195.39C420.65,195.38 420.84,195.36 421.02,195.41Z" style="fill:rgb(230,230,230);fill-rule:nonzero;"/>
                <path d="M412.87,195.17C410.42,194.03 409.11,193.9 407.38,191.42C406.39,192.66 405.67,194.11 405.3,195.65C406.96,196.27 408.71,196.67 410.48,196.85C412.15,197.02 415.46,196.37 412.87,195.17Z" style="fill:rgb(230,230,230);fill-rule:nonzero;"/>
                <path d="M401.59,174.59C401.99,175.77 408.02,173.54 408.57,172.81C409.85,171.11 406.78,168.12 405.34,166.91C404.25,166 402.96,165.32 402.06,164.23C401.67,163.76 401.32,163.19 400.86,162.81C401.01,168.49 400.98,169.96 401.06,172.88C401.22,173.45 401.4,174.02 401.59,174.59Z" style="fill:rgb(230,230,230);fill-rule:nonzero;"/>
                <path d="M533.29,163.8C532.3,162.65 531,161.81 529.76,161.73C529.62,161.72 529.48,161.74 529.34,161.74C527.59,161.82 526.07,163.06 524.45,163.82C524.28,163.9 524.1,163.97 523.92,164.04C520.26,165.5 516.05,164.65 512.07,164.69C504.87,164.78 498.06,167.93 490.93,168.98C489.96,169.12 488.92,169.22 488.03,168.79C487.18,168.38 486.62,167.55 485.97,166.88C485.66,166.56 485.31,166.28 484.94,166.03C484.88,165.99 484.83,165.94 484.77,165.9C483.45,165.05 481.84,164.66 480.32,164.97C478.34,165.37 476.6,166.87 474.57,166.79C474.31,166.78 474.05,166.74 473.8,166.68C472.84,166.45 471.99,165.9 471.18,165.22C469.14,163.51 467.36,161.02 464.78,161.15C462.77,161.25 461.06,163 459.05,162.91C457.91,162.86 456.97,162.24 456.1,161.46C455.35,160.78 454.66,159.98 453.93,159.3C453.73,159.11 453.51,158.94 453.27,158.78C451.65,157.69 449.28,157.32 448.41,158.97C448.02,161.91 447.91,165.08 449.43,167.62C451.72,171.45 456.74,172.44 461.17,172.92C474.1,174.34 487.11,174.67 500.11,174.99C505.66,175.13 511.22,175.27 516.77,175.41C518.82,175.46 520.91,175.51 522.85,174.87C524.96,174.18 526.76,172.74 528.85,172C530.4,171.46 532.11,171.3 533.46,170.37C535.2,169.18 535.18,167.18 534.32,165.4C534.08,164.84 533.71,164.29 533.29,163.8Z" style="fill:rgb(230,230,230);fill-rule:nonzero;"/>
            </g>
            <path d="M427.58,218.46C427.58,216.62 421.63,215.39 415.28,215.69C408.92,215.99 403.71,217.73 403.93,219.56C404.09,220.87 409.41,221.54 415.76,221.07C423.02,220.54 427.58,219.36 427.58,218.46Z" style="fill:rgb(230,230,230);fill-rule:nonzero;"/>
            <path d="M584.21,216.56C584.21,217.7 579.49,218.34 573.26,218.34C567.03,218.34 562.01,217.2 562.01,216.06C562.01,211.67 566.69,212.94 572.91,212.94C579.13,212.94 584.21,215.43 584.21,216.56Z" style="fill:rgb(230,230,230);fill-rule:nonzero;"/>
            <path d="M509.75,17.21C509.75,12.55 501.53,8.77 491.4,8.77C481.27,8.77 473.11,13.02 473.05,17.68C472.93,26.25 482.36,19.51 488.14,20.83C491.14,21.51 491.87,25.1 492.63,25.1C493.03,25.1 495.36,21.32 498.59,20.32C503.09,18.94 509.75,19.92 509.75,17.21Z" style="fill:rgb(230,230,230);fill-rule:nonzero;"/>
            <path d="M490.83,168.81C488.4,93.16 487.87,37.88 489.78,31.18C490.8,27.6 492.64,25.1 492.64,25.1C495.3,21.5 497.4,21.71 501.75,17.95C504.29,15.75 509.09,13.41 509.86,8.34C510.26,5.68 510.14,6.02 510.33,5.99C510.66,5.95 509.17,9.89 514.44,14.9C514.62,15.07 515.01,15.79 516.23,16.33C523.31,19.46 531.56,21.66 542.86,26.7C544.69,27.51 544.93,28.07 547.33,29.38C551.91,31.89 554.01,32.34 556.44,34.74C556.98,35.27 557.81,36.17 558.94,37.96C563.85,45.71 565.37,54.58 565.37,54.58C569.06,65.18 569.4,77.61 571.45,89.61C572.82,97.65 573.79,101.88 575.38,108.91C575.86,111.03 578.08,112.9 579.13,116.59C580.34,120.83 579.87,123.78 579.84,127.31C579.8,132.91 580.91,135.44 582.52,142.86C584,149.65 586.42,160.75 586.45,172.7C586.49,185.73 583.65,185.19 584.13,198.43C584.48,208.11 584.24,216.11 584.24,216.11C584.24,216.11 581.89,214.07 578.59,213.66C575.37,213.26 571.4,212.84 567.26,213.3C563.52,213.71 561.8,215.23 561.8,215.23L561.8,197.9C561.8,187.13 562.95,185.98 562.69,183.78C562.17,179.38 561.25,179.08 558.04,169.48C555.01,160.41 553.37,153.27 553.04,151.79C551.73,146.03 551.97,145.58 550.54,139.64C548.86,132.66 548.41,132.75 546.97,126.77C545.02,118.71 544.65,117.88 544.65,111.72C544.65,110.06 544.52,110.93 543.59,114.25C543.28,115.36 542.29,116.69 540.89,119.61C539.71,122.08 539.14,123.43 539.28,125.15C539.38,126.42 539.75,126.32 540.17,128.19C540.74,130.67 540.27,131.58 540.53,134.44C540.76,137 541.19,136.88 541.42,139.09C541.74,142.15 541.05,143.71 540.71,146.42C540.19,150.43 540.91,153.16 541.25,155.53C542.18,162.17 541.82,178.71 538.93,185.37C529.47,207.13 457.67,204.27 449.75,183.23C447.91,178.33 446.53,164.48 447.25,156.6C447.39,155.11 447.91,150.34 446.36,144.45C445.7,141.95 445.44,142.2 444.75,139.8C444.07,137.46 443.51,134.41 444.04,120.86C444.21,116.42 444.3,115.95 444.04,114.61C443.29,110.79 441.61,109.74 440.82,105.5C440.24,102.34 440.66,100.15 440.46,100.14C440.13,100.11 439.67,106.34 438.14,114.79C436.54,123.61 435.74,128.02 434.03,130.52C433.2,131.74 431.76,133.53 431.53,136.24C431.32,138.7 432.26,140.01 432.78,142.14C433.66,145.78 432.43,148.25 430.99,153.22C430.02,156.59 429.39,160.41 428.13,168.05C426.54,177.71 427.65,175.85 426.16,185.03C425.77,187.47 425.25,190.33 425.8,194.14C426.21,196.92 427.59,200.39 427.59,200.39L427.59,218.44C427.36,216.87 423.23,216.4 418.82,216.04C411.19,215.41 404.21,218.29 403.86,219.33C403.86,219.33 403.1,211.38 402.74,197.89C402.48,188.22 401.65,188.84 401.13,175.37C400.92,169.82 401.06,169.82 400.77,160C400.41,147.55 400.16,146.98 400.23,143.74C400.44,134.81 402.54,130.37 405.41,119.97C409.73,104.3 411.35,91.3 412.2,84.41C413.75,71.88 413.61,64.81 416.49,54.39C418.69,46.43 419.24,48.88 423.46,38.13C423.95,36.88 424.98,34.21 427.57,32.23C429.26,30.94 430.98,30.59 431.68,30.26C439.42,26.71 455.74,21.87 466.71,17.04C469.32,15.89 473.08,12.76 473.14,9.18C473.17,7.56 472.4,5.97 472.43,5.96C472.47,5.95 472.84,10.34 475.65,13.82C478.38,17.21 482.66,18.89 484.59,19.54C486.45,20.17 487.13,20.2 488.41,20.97C491.52,22.85 491.09,23.09 492.63,25.08" style="fill:none;fill-rule:nonzero;stroke:black;stroke-width:1px;stroke-linejoin:round;"/>
            <path d="M475.5,23.26C476.9,24.29 478.11,25.67 481.11,26.51C485.42,27.73 488.15,27.58 491.16,27.52" style="fill:none;fill-rule:nonzero;stroke:black;stroke-width:1px;"/>
            <path d="M491.51,26.92C494.11,27.01 498.67,27.14 502.81,25.95C505.68,25.13 507.43,23.63 508.77,21.87" style="fill:none;fill-rule:nonzero;stroke:black;stroke-width:1px;"/>
            <path d="M494.55,0.62C499.3,0.93 504.37,1.54 508.65,3.6C508.97,3.75 509.3,3.93 509.5,4.23C509.71,4.54 509.73,4.94 509.74,5.31C509.81,7.36 509.32,10.31 509.4,12.36C509.42,12.78 509.38,13.29 509.01,13.48C508.75,13.62 508.42,13.58 508.16,13.44C504.56,11.64 501.77,10.44 497.77,9.77C493.77,9.1 488.25,9.01 484.1,9.81C480.17,10.57 477.09,11.82 473.31,14.45C472.44,11.88 471.84,8.75 472.13,6.01C472.38,3.7 474.59,3.19 476.56,2.57C482.31,0.77 488.59,0.23 494.55,0.62Z" style="fill:white;fill-rule:nonzero;stroke:black;stroke-width:1px;"/>
            <path d="M484.91,19.67C481.01,18.58 476.66,21.8 470.11,29.39C467.07,25.75 464.12,21.87 467.3,15.79L472.33,5.27C473.33,9.84 478.69,14.83 484.91,19.67Z" style="fill:white;fill-rule:nonzero;stroke:black;stroke-width:1px;"/>
            <path d="M500.09,19.28C503.54,16.9 513.94,29.79 513.94,29.79C513.94,29.79 518.98,19.21 516.55,15.11L509.75,4.62C509.45,9.62 504.78,14.05 500.09,19.28Z" style="fill:white;fill-rule:nonzero;stroke:black;stroke-width:1px;"/>
            <path d="M544.57,110.95C544.92,107.91 544.97,104.83 544.7,101.77C544.4,98.3 543.06,92.49 543.36,89.03C543.86,83.24 545.76,73.57 548.86,68.66" style="fill:none;fill-rule:nonzero;stroke:black;stroke-width:1px;"/>
            <path d="M440.42,100.23C440.76,97.73 440.01,95.21 440.06,92.69C440.1,90.85 440.56,89.04 440.53,87.2C440.51,86.13 440.33,85.07 440.15,84.02C439.85,82.31 439.56,80.6 439.26,78.89C438.76,75.97 438.25,73.04 437.32,70.23" style="fill:none;fill-rule:nonzero;stroke:black;stroke-width:1px;"/>
            <circle cx="494.91" cy="140.61" r="1.79" style="fill:none;stroke:black;stroke-width:1px;"/>
            <circle cx="495.31" cy="166.66" r="1.79" style="fill:none;stroke:black;stroke-width:1px;"/>
            <circle cx="493.7" cy="89.88" r="1.79" style="fill:none;stroke:black;stroke-width:1px;"/>
            <circle cx="494.17" cy="116.07" r="1.79" style="fill:none;stroke:black;stroke-width:1px;"/>
            <circle cx="493.34" cy="41.03" r="1.79" style="fill:white;stroke:black;stroke-width:1px;"/>
            <circle cx="493.34" cy="65.53" r="1.79" style="fill:none;stroke:black;stroke-width:1px;"/>
            <path d="M446.97,159.36C447.41,159.81 450.16,161.33 454.73,162.69C463.78,165.37 479.29,168.96 494.99,168.88C506.67,168.82 515.09,168.81 521.31,167.58C529.06,166.05 533.75,164.71 538.2,162.67C542.08,160.88 541.6,158.78 541.6,158.78C542.74,159.52 544.28,162.71 544.1,171.11C544.02,174.97 545.04,175.67 546.96,181.3C548.61,186.13 549.43,189.71 551.07,196.85C552.75,204.15 553.58,207.84 553.21,209.72C552.58,212.96 551.1,215.06 550.53,220.26C550.23,223.02 550.35,225.26 550.35,225.26L436.69,225.62C436.69,225.62 436.96,223.55 437.05,204.89C437.1,194.48 437.15,192.7 437.94,188.63C439.68,179.67 445.9,176.97 445.62,171.65C445.2,163.14 446.5,160.02 446.97,159.36Z" style="fill:rgb(179,179,179);fill-rule:nonzero;stroke:black;stroke-width:1px;"/>
            <path d="M445.35,169.18C445.35,169.18 445.11,171.8 452.22,174.28C459.33,176.76 486.8,181.85 486.8,181.85L486.87,171.2C486.87,171.2 467.61,169.06 454.43,164.03C449.66,162.21 446.48,159.81 446.48,159.81C445.45,162.67 445.12,164.48 445.35,169.18Z" style="fill:rgb(102,102,102);fill-rule:nonzero;stroke:black;stroke-width:1px;"/>
            <path d="M544.13,169.06C544.13,169.06 543.29,172.26 537.12,175.3C531.93,177.86 521.55,180.71 511.56,181.95C499.49,183.44 488.05,183.05 488.05,183.05L487.98,172.4C487.98,172.4 499.2,172.97 511.39,171.48C521.08,170.3 531.32,167.44 537.48,164.67C542.14,162.58 542.82,160.14 542.82,160.14C543.64,161.68 544.37,164.37 544.13,169.06Z" style="fill:rgb(102,102,102);fill-rule:nonzero;stroke:black;stroke-width:1px;"/>
            <path d="M492.99,225.44C492.75,221.85 492.46,216.91 492.45,209.8C492.45,192.84 492.83,194.26 492.99,187.55C493.15,180.82 492.62,174.5 492.63,169.86C492.63,169.33 493.3,169.16 493.52,168.97" style="fill:none;fill-rule:nonzero;stroke:black;stroke-width:1px;"/>
            <path d="M487.98,183.12L487.98,172.34C492.37,172.59 497.3,172.55 502.54,172.34L502.54,171.42C502.54,171.18 502.34,170.99 502.1,171C496.93,171.25 491.82,171.27 486.78,171.02C486.38,171 486.05,171.31 486.05,171.71L486.05,183.63C486.05,184.01 486.35,184.32 486.73,184.33C492.12,184.5 497.28,184.35 502.14,184.13C502.36,184.12 502.54,183.94 502.54,183.71L502.54,182.93C497.41,183.14 492.51,183.36 487.98,183.12Z" style="fill:white;fill-rule:nonzero;stroke:black;stroke-width:1px;"/>
            <path d="M468.05,179.54L465.47,179.1C465.18,174.43 465.72,170.2 467.11,165.8L469.82,166.35C469.82,166.35 469.02,168.85 468.44,172C467.71,175.9 468.05,179.54 468.05,179.54Z" style="fill:rgb(179,179,179);fill-rule:nonzero;stroke:black;stroke-width:1px;"/>
            <path d="M535.25,169.05C534.11,168.89 530.91,168.68 523.52,170.07C520.36,170.67 517.18,171.17 514,171.68C505.09,173.1 500.16,173.04 497.95,173.03C492.14,173.03 487.98,172.39 487.98,172.39L488.05,183.04C488.05,183.04 490.48,183.59 497.89,183.38C504.99,183.18 507.69,182.54 514.44,181.55C520.07,180.72 522.15,180.14 524.54,179.53C531.71,177.68 533.85,174.81 535.19,173.73C536.53,172.65 536.39,169.21 535.25,169.05Z" style="fill:rgb(102,102,102);fill-rule:nonzero;stroke:black;stroke-width:1px;"/>
            <path d="M508.11,182.79L510.7,182.52C510.99,177.85 511.48,175.57 510.08,171.17L507.57,171.44C507.57,171.44 508.22,174.03 508.34,177.23C508.49,180.91 508.11,182.79 508.11,182.79Z" style="fill:rgb(102,102,102);fill-rule:nonzero;stroke:black;stroke-width:1px;"/>
            <rect x="486.87" y="177.36" width="2.37" height="0.92" style="fill:white;stroke:black;stroke-width:1px;"/>
            <path d="M519.83,181.56L522.41,181.12C522.7,176.45 522.37,172.04 520.97,167.64L518.41,168.04C518.41,168.04 519.02,170.43 519.61,173.58C520.36,177.49 519.83,181.56 519.83,181.56Z" style="fill:rgb(179,179,179);fill-rule:nonzero;stroke:black;stroke-width:1px;"/>
        </g>
    </g>
</svg>
