<?xml version="1.0" encoding="iso-8859-1"?>
<!-- Generator: Adobe Illustrator 19.1.1, SVG Export Plug-In . SVG Version: 6.00 Build 0)  -->
<svg version="1.1" id="Lager_1" xmlns="http://www.w3.org/2000/svg" xmlns:xlink="http://www.w3.org/1999/xlink" x="0px" y="0px"
	 viewBox="0 0 80 80" style="enable-background:new 0 0 80 80;" xml:space="preserve">
<path style="opacity:0.35;" d="M75.833,60.227c0.04,0.037,0.081,0.07,0.117,0.108c-0.048-0.055-0.102-0.116-0.152-0.171
	c-0.095-0.175-0.231-0.328-0.407-0.454c-4.943-5.517-15.846-17.575-15.846-17.575s-0.637-0.899-1.82-1.853
	c-0.714-1.036-2.903-4.04-6.702-7.768c-4.726-4.639-9.778-9.844-9.778-9.844L3.35,20.87v2.253c0,0,6.88,10.486,10.612,14.375
	c3.544,3.692,7.656,11.638,8.88,14.702c0.043,0.252,0.148,0.456,0.229,0.586c0.098,0.228,0.218,0.409,0.358,0.547l14.979,23.735
	c0,0,0.524,0.423,3.572-0.503c10.47-2.809,29.709-12.014,32.324-13.694C75.809,61.903,76.154,60.914,75.833,60.227z"/>
<path style="fill:#FFFFFF;stroke:#000000;stroke-width:0.6239;stroke-miterlimit:10;" d="M3.606,20.694
	c0,0,7.066,10.771,10.799,14.66c3.733,3.889,8.098,12.497,9.052,15.152c0.955,2.653,4.663-0.405,4.663-0.405L47.6,41.044
	l10.832-2.514c0,0-2.238-3.523-6.965-8.161c-1.564-1.534-3.354-5.896-5.92-9.675c-5.19-7.646-11.542-16.076-11.542-16.076"/>
<polygon style="fill:#9D9D9C;" points="45.541,37.968 38.475,40.11 10.359,4.617 18.505,4.617 "/>
<path style="fill:none;stroke:#000000;stroke-width:0.6239;stroke-miterlimit:10;" d="M38.831,40c0,0-11.281-13.728-14.815-17.945
	C20.385,17.722,10.359,4.617,10.359,4.617"/>
<path style="fill:none;stroke:#000000;stroke-width:0.6239;stroke-miterlimit:10;" d="M45.541,37.968
	c0,0-10.857-13.388-13.994-17.275c-3.352-4.152-13.25-16.076-13.25-16.076"/>
<line style="fill:none;stroke:#9D9D9C;stroke-width:0.6239;stroke-miterlimit:10;" x1="50.091" y1="37.175" x2="40" y2="22.67"/>
<linearGradient id="SVGID_1_" gradientUnits="userSpaceOnUse" x1="45.2784" y1="60.7463" x2="79.4052" y2="60.7463" gradientTransform="matrix(0.9648 0.2628 -0.2628 0.9648 12.5708 -9.089)">
	<stop  offset="0" style="stop-color:#DEDEDE"/>
	<stop  offset="0.1822" style="stop-color:#FFFFFF"/>
	<stop  offset="0.8283" style="stop-color:#F4F4F4"/>
	<stop  offset="1" style="stop-color:#C2C2C2"/>
</linearGradient>
<path style="fill:url(#SVGID_1_);stroke:#000000;stroke-width:0.6239;stroke-miterlimit:10;" d="M38.852,74.923
	c0,0,0.524,0.422,3.571-0.502c10.469-2.809,29.71-12.014,32.325-13.695c2.614-1.682,1.735-3.437-0.076-3.532
	c-1.257-0.662-2.596-1.026-2.596-1.026l-10.36,1.088l-5.657-0.344l-3.783,3.038l-13.918,8.575
	C38.358,68.526,37.934,73.596,38.852,74.923z"/>
<path style="fill:none;stroke:#9D9D9C;stroke-width:0.6239;stroke-miterlimit:10;" d="M39.618,72.699c0,0,2.851-0.5,7.087-1.978
	c4.237-1.479,15.306-6.043,18.685-7.597c3.377-1.553,9.881-4.315,9.282-5.929c-0.46-1.242-1.596-1.472-1.596-1.472"/>
<path style="fill:#FFFFFF;stroke:#000000;stroke-width:0.6239;stroke-miterlimit:10;" d="M24.114,51.754l14.738,23.17
	c0,0-0.731-1.276,2.035-3.514c2.766-2.239,10.012-6.798,15.951-9.25c0.537-0.211,0.94-4.819,0.94-4.819L45.046,38.336
	c0,0-16.463,5.846-20.823,11.581C23.362,50.879,24.114,51.754,24.114,51.754z"/>
<g>
	<defs>
		<path id="SVGID_2_" d="M24.016,50.861l13.983,22.244l10.743-8.472l6.521-4.269l3.659-2.869l-6.4-2.735l-5.284-6.098
			c0,0-4.715-7.825-6.889-8.22c-2.176-0.394-9.846,4.454-9.846,4.454S24.217,50.123,24.016,50.861z"/>
	</defs>
	<clipPath id="SVGID_3_">
		<use xlink:href="#SVGID_2_"  style="overflow:visible;"/>
	</clipPath>
	<g style="clip-path:url(#SVGID_3_);">
		<path style="fill:none;stroke:#9D9D9C;stroke-width:0.6239;stroke-miterlimit:10;" d="M24.337,52.103c0,0,1.954-1.956,4.773-4.142
			c4.119-3.194,11.25-5.906,11.25-5.906"/>
		<path style="fill:none;stroke:#9D9D9C;stroke-width:0.6239;stroke-miterlimit:10;" d="M37.083,72.328c0,0,0.045-1.344,2.634-3.511
			c3.918-3.241,9.222-6.584,13.633-8.414c1.169-0.479,1.574-1.087,1.668-2.019c0.095-0.931,0.134-1.957,0.134-1.957"/>
	</g>
</g>
<path style="fill:#FFFFFF;stroke:#000000;stroke-width:0.6239;stroke-miterlimit:10;" d="M38.475,40.11l11.729,14.689l5.843,7.193
	c0,0,5.9-2.799,7.055-3.083c1.156-0.282,10.299-3.808,13.292-0.719c-4.623-5.168-17.472-19.318-17.472-19.318
	s-0.917-2.13-4.208-2.13C51.092,36.742,46.036,37.422,38.475,40.11z"/>
<g>
	<defs>
		<polygon id="SVGID_4_" points="74.478,56.479 58.432,38.53 55.971,37.364 44.494,38.698 40.542,40.099 43.809,44.855 
			51.263,53.921 55.945,60.139 61.608,57.83 68.241,56.068 		"/>
	</defs>
	<clipPath id="SVGID_5_">
		<use xlink:href="#SVGID_4_"  style="overflow:visible;"/>
	</clipPath>
	<path style="clip-path:url(#SVGID_5_);fill:none;stroke:#9D9D9C;stroke-width:0.6239;stroke-miterlimit:10;" d="M59.65,39.619
		c0,0-2.487-1.714-5.914-1.451c-4.155,0.319-12.097,2.768-12.097,2.768l10.45,12.66l4.589,5.282c0,0,4.407-1.953,5.82-2.447
		c1.412-0.493,8.549-2.937,11.827-0.608"/>
</g>
<rect style="fill:none;" width="80" height="80"/>
<g>
</g>
<g>
</g>
<g>
</g>
<g>
</g>
<g>
</g>
<g>
</g>
<g>
</g>
<g>
</g>
<g>
</g>
<g>
</g>
<g>
</g>
<g>
</g>
<g>
</g>
<g>
</g>
<g>
</g>
</svg>
